<svg xmlns="http://www.w3.org/2000/svg" viewBox="0 0 50 50" version="1.1">
<g>
<path d="M24.9 45.07C24.9 44.97 24.9 44.9 24.9 44.88C24.9 44.29 25.01 43.7 25.23 43.16C25.42 42.66 25.49 42.5 25.63 42.13C25.99 41.23 25.89 40.2 25.35 39.39C25.04 38.9 24.97 38.8 24.66 38.32C24.1 37.47 24 36.38 24.4 35.44C24.5 35.2 24.47 35.26 24.65 34.84C24.82 34.45 24.9 34.03 24.9 33.61C24.9 33.53 24.9 33.35 24.9 33.05"  stroke="#000000" stroke-width="2" stroke-opacity="1" fill-opacity="0"></path>
<path d="M45.72 12.5C46.36 12.5 46.88 13.02 46.88 13.66C46.88 16.86 46.88 25.32 46.88 28.53C46.88 29.17 46.36 29.69 45.72 29.69C37.2 29.69 12.8 29.69 4.28 29.69C3.64 29.69 3.13 29.17 3.13 28.53C3.13 25.32 3.13 16.86 3.13 13.66C3.13 13.02 3.64 12.5 4.28 12.5C12.8 12.5 37.2 12.5 45.72 12.5Z"  stroke="#000000" stroke-width="2" stroke-opacity="1" fill-opacity="0"></path>
<path d="M42.19 29.69C42.19 27.32 42.19 25.85 42.19 25.26C42.19 25.12 42.07 25 41.93 25C35.11 25 14.89 25 8.07 25C7.93 25 7.81 25.12 7.81 25.26C7.81 25.75 7.81 26.96 7.81 28.91"  stroke="#000000" stroke-width="2" stroke-opacity="1" fill-opacity="0"></path>
<path d="M32.71 45.07C32.71 44.97 32.71 44.9 32.71 44.88C32.71 44.29 32.82 43.7 33.04 43.16C33.24 42.66 33.3 42.5 33.45 42.13C33.81 41.23 33.7 40.2 33.17 39.39C32.85 38.9 32.78 38.8 32.47 38.32C31.91 37.47 31.81 36.38 32.21 35.44C32.31 35.2 32.29 35.26 32.46 34.84C32.63 34.45 32.71 34.03 32.71 33.61C32.71 33.53 32.71 33.35 32.71 33.05"  stroke="#000000" stroke-width="2" stroke-opacity="1" fill-opacity="0"></path>
<path d="M17.09 45.07C17.09 44.97 17.09 44.9 17.09 44.88C17.09 44.29 17.2 43.7 17.42 43.16C17.61 42.66 17.68 42.5 17.82 42.13C18.18 41.23 18.08 40.2 17.54 39.39C17.22 38.9 17.16 38.8 16.85 38.32C16.28 37.47 16.19 36.38 16.59 35.44C16.69 35.2 16.66 35.26 16.84 34.84C17 34.45 17.09 34.03 17.09 33.61C17.09 33.53 17.09 33.35 17.09 33.05"  stroke="#000000" stroke-width="2" stroke-opacity="1" fill-opacity="0"></path>
<path d="M34.38 17.19L15.63 17.19"  stroke="#000000" stroke-width="1" stroke-opacity="1" fill-opacity="0"></path>
</g>
</svg>
