<svg xmlns="http://www.w3.org/2000/svg" viewBox="0 0 50 50" version="1.1">
<g>
<path d="M24.94 44.91L29.13 48.05L29.13 41.77L24.94 44.91Z"  stroke="#000000" stroke-width="0" stroke-opacity="1" fill="#000000" fill-opacity="1"></path>
<path d="M28.14 44.85C28.67 44.85 29.61 44.63 30.97 44.19C34.42 43.07 37.51 41.06 39.93 38.36C40.5 37.73 39.19 39.19 39.93 38.36C41.8 36.27 43.19 33.79 44 31.11C44.38 29.85 43.81 31.74 44.07 30.88C45.26 26.93 45.29 22.71 44.14 18.74C43.91 17.92 44.49 19.96 44.14 18.74C43.37 16.05 41.96 13.59 40.03 11.56C39.22 10.69 40.43 11.97 39.79 11.3C37.27 8.65 34.12 6.68 30.62 5.59C29.5 5.24 31.47 5.86 30.35 5.51C26.87 4.42 23.15 4.41 19.66 5.48C18.7 5.78 20.13 5.34 18.91 5.72C16.23 6.54 13.76 7.94 11.67 9.81C10.82 10.57 12.3 9.24 11.67 9.81C8.9 12.29 6.87 15.48 5.8 19.03C5.46 20.13 6.09 18.07 5.75 19.18C4.69 22.68 4.65 26.4 5.63 29.92C5.95 31.09 5.53 29.58 5.88 30.84C6.78 34.06 8.54 36.97 10.98 39.26C11.48 39.73 10.59 38.89 11.42 39.67C12.8 40.97 14.36 42.06 16.05 42.92C16.27 43.03 16.82 43.31 17.69 43.75"  stroke="#000000" stroke-width="2" stroke-opacity="0.99" fill-opacity="0"></path>
<path d="M22.66 14.06L27.34 14.06L33.59 35.94L28.91 35.94L25 20.31L21.09 35.94L16.41 35.94L22.66 14.06Z"  stroke="#000000" stroke-width="0" stroke-opacity="0.99" fill="#000000" fill-opacity="1"></path>
<path d="M21.11 26.56L29.02 26.56L29.02 31.25L21.11 31.25L21.11 26.56Z"  fill="#000000" fill-opacity="1"></path>
</g>
</svg>
