<svg xmlns="http://www.w3.org/2000/svg" viewBox="0 0 50 50" version="1.1">
<g>
<path d="M25 20.31L25 6.25"  stroke="#000000" stroke-width="2" stroke-opacity="1" fill-opacity="0"></path>
<path d="M15.32 20.31L17.19 6.25"  stroke="#000000" stroke-width="2" stroke-opacity="1" fill-opacity="0"></path>
<path d="M32.81 6.25L34.99 20.31"  stroke="#000000" stroke-width="2" stroke-opacity="1" fill-opacity="0"></path>
<path d="M40.63 21.88L40.63 43.75L9.38 43.75L9.38 21.88"  stroke="#000000" stroke-width="2" stroke-opacity="1" fill-opacity="0"></path>
<path d="M45.31 20.31L40.63 6.25L9.38 6.25L4.91 20.31C5.89 20.66 6.5 20.87 6.75 20.96C8.46 21.56 10.31 21.63 12.06 21.16C12.49 21.05 13.57 20.77 15.28 20.31C16.64 20.73 17.48 21 17.82 21.1C19.44 21.6 21.18 21.59 22.79 21.05C23.08 20.95 23.82 20.71 25 20.31C26.1 20.68 26.78 20.91 27.05 21C28.76 21.57 30.61 21.57 32.32 21C32.6 20.91 33.28 20.68 34.38 20.31C36.02 20.72 37.05 20.98 37.46 21.08C39.53 21.6 41.7 21.52 43.72 20.84C43.93 20.77 44.46 20.6 45.31 20.31Z"  stroke="#000000" stroke-width="2" stroke-opacity="1" fill-opacity="0"></path>
</g>
</svg>
