<svg xmlns="http://www.w3.org/2000/svg" viewBox="0 0 50 50" version="1.1">
<g>
<path d="M31.25 15.18C31.25 17.5 26.35 19.38 20.31 19.38C14.28 19.38 9.38 17.5 9.38 15.18C9.38 12.87 14.28 10.98 20.31 10.98C26.35 10.98 31.25 12.87 31.25 15.18Z"  stroke="#000000" stroke-width="2" stroke-opacity="1" fill-opacity="0"></path>
<path d="M25 15.18C25 15.83 22.9 16.36 20.31 16.36C17.73 16.36 15.63 15.83 15.63 15.18C15.63 14.54 17.73 14.01 20.31 14.01C22.9 14.01 25 14.54 25 15.18Z"  stroke="#000000" stroke-width="2" stroke-opacity="1" fill-opacity="0"></path>
<path d="M43.75 32.37C41.05 32.37 39.36 32.37 38.69 32.37C35.92 32.37 33.25 33.42 31.22 35.31C31.15 35.37 31 35.51 30.75 35.75"  stroke="#000000" stroke-width="2" stroke-opacity="1" fill-opacity="0"></path>
<path d="M44.25 13.64C41.55 13.64 39.86 13.64 39.19 13.64C36.42 13.64 33.75 14.69 31.72 16.58C31.65 16.64 31.5 16.78 31.25 17.02"  stroke="#000000" stroke-width="2" stroke-opacity="1" fill-opacity="0"></path>
<path d="M42.35 32.37L43.75 32.37L43.75 13.62L42.19 13.62"  stroke="#000000" stroke-width="2" stroke-opacity="1" fill-opacity="0"></path>
<path d="M31.25 15.63C31.25 25.58 31.25 31.81 31.25 34.29C31.25 34.87 31.03 35.42 30.63 35.84C30.13 36.36 30.44 36.04 30.23 36.25C28.86 37.69 27.08 38.67 25.14 39.08C24.18 39.28 25.72 38.96 25.12 39.08C21.95 39.74 18.68 39.74 15.51 39.08C14.91 38.96 16.46 39.28 15.49 39.08C13.54 38.67 11.76 37.68 10.38 36.24C10.18 36.03 10.43 36.29 9.91 35.75C9.57 35.39 9.38 34.92 9.38 34.42C9.38 31.92 9.38 25.65 9.38 15.63"  stroke="#000000" stroke-width="2" stroke-opacity="1" fill-opacity="0"></path>
</g>
</svg>
