<svg xmlns="http://www.w3.org/2000/svg" viewBox="0 0 50 50" version="1.1">
<g>
<path d="M41.68 25C41.96 25 42.19 25.23 42.19 25.51C42.19 26.69 42.19 29.65 42.19 34.38L7.81 34.38C7.81 29.65 7.81 26.69 7.81 25.51C7.81 25.23 8.04 25 8.32 25C15.1 25 34.9 25 41.68 25Z"  stroke="#000000" stroke-width="2" stroke-opacity="1" fill-opacity="0"></path>
<path d="M39.06 25C39.06 19.79 39.06 16.54 39.06 15.23C39.06 14.59 38.54 14.06 37.89 14.06C32.5 14.06 17.5 14.06 12.11 14.06C11.46 14.06 10.94 14.59 10.94 15.23C10.94 16.54 10.94 19.79 10.94 25"  stroke="#000000" stroke-width="2" stroke-opacity="1" fill-opacity="0"></path>
<path d="M10.94 39.06L10.94 34.38"  stroke="#000000" stroke-width="2" stroke-opacity="1" fill-opacity="0"></path>
<path d="M39.06 39.06L39.06 34.38"  stroke="#000000" stroke-width="2" stroke-opacity="1" fill-opacity="0"></path>
<path d="M22.66 25C22.66 22.46 22.66 20.87 22.66 20.24C22.66 19.42 21.99 18.75 21.17 18.75C19.9 18.75 17.6 18.75 16.33 18.75C15.51 18.75 14.84 19.42 14.84 20.24C14.84 20.87 14.84 22.46 14.84 25"  stroke="#000000" stroke-width="2" stroke-opacity="1" fill-opacity="0"></path>
<path d="M35.16 25C35.16 22.46 35.16 20.87 35.16 20.24C35.16 19.42 34.49 18.75 33.67 18.75C32.4 18.75 30.1 18.75 28.83 18.75C28.01 18.75 27.34 19.42 27.34 20.24C27.34 20.87 27.34 22.46 27.34 25"  stroke="#000000" stroke-width="2" stroke-opacity="1" fill-opacity="0"></path>
</g>
</svg>
