<svg xmlns="http://www.w3.org/2000/svg" viewBox="0 0 50 50" version="1.1">
<g>
<path d="M13.28 33.85C14.77 33.11 15.71 31.59 15.71 29.93C15.71 28.44 15.71 26.83 15.71 25.37C15.71 23.47 16.16 21.59 17.01 19.89C17.33 19.24 16.75 20.41 17.01 19.89C18.07 17.75 19.48 15.81 21.17 14.13C21.21 14.09 21.31 13.98 21.48 13.81C21.16 12.94 20.96 12.39 20.87 12.17C20.56 11.32 20.55 10.39 20.85 9.53C20.99 9.16 20.79 9.72 20.89 9.44C21.29 8.29 22.16 7.36 23.28 6.88C23.67 6.71 23.01 6.99 23.39 6.83C24.57 6.32 25.92 6.34 27.08 6.89C27.42 7.05 26.86 6.78 27.26 6.97C28.23 7.43 28.98 8.24 29.37 9.23C29.49 9.56 29.24 8.92 29.37 9.23C29.77 10.27 29.76 11.43 29.33 12.47C29.25 12.64 29.07 13.07 28.78 13.76C28.94 13.92 29.04 14.02 29.08 14.06C30.81 15.79 32.25 17.78 33.34 19.97C33.59 20.47 33.11 19.51 33.47 20.22C34.21 21.7 34.59 23.34 34.59 25C34.59 26.53 34.59 28.44 34.59 29.93C34.59 31.6 35.53 33.11 37.02 33.86C37.12 33.91 36.8 33.75 37.35 34.02C37.44 34.07 37.5 34.16 37.5 34.27C37.5 34.82 37.5 36.04 37.5 36.52C37.5 36.79 37.29 37 37.02 37C32.18 37 18.01 37 13.14 37C12.96 37 12.8 36.85 12.8 36.67C12.8 36.15 12.78 34.86 12.78 34.32C12.78 34.19 12.85 34.06 12.98 34C13.52 33.73 13.18 33.9 13.28 33.85Z"  stroke="#000000" stroke-width="2" stroke-opacity="1" fill-opacity="0"></path>
<path d="M26.76 10.94C26.76 11.84 26.04 12.57 25.15 12.57C24.27 12.57 23.55 11.84 23.55 10.94C23.55 10.03 24.27 9.3 25.15 9.3C26.04 9.3 26.76 10.03 26.76 10.94Z"  stroke="#000000" stroke-width="1" stroke-opacity="1" fill-opacity="0"></path>
<path d="M30.21 39.73C29.76 40.51 29.47 41 29.35 41.2C28.81 42.13 27.95 42.83 26.93 43.19C26.56 43.32 27.04 43.15 26.67 43.28C25.66 43.64 24.54 43.62 23.53 43.24C23.22 43.12 23.84 43.36 23.53 43.24C22.52 42.85 21.68 42.12 21.14 41.19C21.03 40.99 20.75 40.51 20.31 39.73"  stroke="#000000" stroke-width="2" stroke-opacity="1" fill-opacity="0"></path>
</g>
</svg>
