<svg xmlns="http://www.w3.org/2000/svg" viewBox="0 0 50 50" version="1.1">
<g>
<path d="M21.09 24.22C13 24.22 7.94 24.22 5.91 24.22C5.67 24.22 5.47 24.02 5.47 23.78C5.47 22.46 5.47 18.95 5.47 17.63C5.47 17.39 5.67 17.19 5.91 17.19C13.63 17.19 36.37 17.19 44.09 17.19C44.33 17.19 44.53 17.39 44.53 17.63C44.53 18.95 44.53 22.46 44.53 23.78C44.53 24.02 44.33 24.22 44.09 24.22C42.08 24.22 37.06 24.22 29.03 24.22"  stroke="#000000" stroke-width="2" stroke-opacity="1" fill-opacity="0"></path>
<path d="M42.19 24.22C42.19 34.63 42.19 41.13 42.19 43.74C42.19 44.18 41.83 44.53 41.39 44.53C34.68 44.53 15.32 44.53 8.61 44.53C8.17 44.53 7.81 44.18 7.81 43.74C7.81 41.13 7.81 34.63 7.81 24.22"  stroke="#000000" stroke-width="2" stroke-opacity="1" fill-opacity="0"></path>
<path d="M28.91 17.19C28.91 25.32 28.91 30.4 28.91 32.43C28.91 32.58 28.73 32.67 28.61 32.57C27.89 32 26.02 30.5 25.3 29.93C25.12 29.79 24.88 29.79 24.7 29.93C23.98 30.5 22.11 32 21.39 32.57C21.27 32.67 21.09 32.58 21.09 32.43C21.09 30.4 21.09 25.32 21.09 17.19"  stroke="#000000" stroke-width="2" stroke-opacity="1" fill-opacity="0"></path>
<path d="M17.77 7.47C16.86 7.32 15.93 7.6 15.27 8.23C15.05 8.44 15.45 8.06 15.23 8.27C14.56 8.91 14.22 9.81 14.3 10.73C14.36 11.44 14.27 10.44 14.3 10.73C14.49 12.86 15.98 14.65 18.04 15.22C19.42 15.61 21.77 16.27 23.56 16.78C24.15 16.94 24.68 16.37 24.47 15.79C23.93 14.27 23.44 12.87 23.06 11.8C22.26 9.55 20.31 7.91 17.96 7.51C17.63 7.45 18.57 7.61 17.77 7.47Z"  stroke="#000000" stroke-width="2" stroke-opacity="1" fill-opacity="0"></path>
<path d="M33.7 4.94C34.87 4.73 36.06 5.1 36.91 5.93C37.18 6.2 36.64 5.67 36.91 5.94C37.77 6.78 38.2 7.96 38.09 9.15C38.01 10.06 38.13 8.77 38.09 9.15C37.85 11.9 35.94 14.23 33.28 15C31.58 15.5 28.8 16.3 26.58 16.95C25.81 17.17 25.12 16.44 25.37 15.69C26.05 13.72 26.66 11.93 27.14 10.55C28.14 7.63 30.64 5.48 33.68 4.94C34.05 4.88 32.71 5.12 33.7 4.94Z"  stroke="#000000" stroke-width="2" stroke-opacity="1" fill-opacity="0"></path>
</g>
</svg>
