<svg xmlns="http://www.w3.org/2000/svg" viewBox="0 0 50 50" version="1.1">
<g>
<path d="M39.06 41.41C39.06 43.54 39.06 44.87 39.06 45.4C39.06 45.78 38.75 46.09 38.37 46.09C37.1 46.09 33.99 46.09 32.72 46.09C32.34 46.09 32.03 45.78 32.03 45.4C32.03 44.87 32.03 43.54 32.03 41.41L17.97 41.41C17.97 43.54 17.97 44.87 17.97 45.4C17.97 45.78 17.66 46.09 17.28 46.09C16.01 46.09 12.9 46.09 11.63 46.09C11.25 46.09 10.94 45.78 10.94 45.4C10.94 44.87 10.94 43.54 10.94 41.41"  stroke="#000000" stroke-width="2" stroke-opacity="1" fill-opacity="0"></path>
<path d="M38.72 3.91C40.2 3.91 41.41 5.11 41.41 6.59C41.41 13.56 41.41 31.76 41.41 38.72C41.41 40.2 40.2 41.41 38.72 41.41C32.69 41.41 17.31 41.41 11.28 41.41C9.8 41.41 8.59 40.2 8.59 38.72C8.59 31.76 8.59 13.56 8.59 6.59C8.59 5.11 9.8 3.91 11.28 3.91C17.31 3.91 32.69 3.91 38.72 3.91Z"  stroke="#000000" stroke-width="2" stroke-opacity="1" fill-opacity="0"></path>
<path d="M4.69 22.66L4.69 17.19L8.59 13.28"  stroke="#000000" stroke-width="2" stroke-opacity="1" fill-opacity="0"></path>
<path d="M42.19 12.5L7.81 12.5"  stroke="#000000" stroke-width="2" stroke-opacity="1" fill-opacity="0"></path>
<path d="M42.19 26.56L7.81 26.56"  stroke="#000000" stroke-width="2" stroke-opacity="1" fill-opacity="0"></path>
<path d="M25 26.56L25 12.5"  stroke="#000000" stroke-width="2" stroke-opacity="1" fill-opacity="0"></path>
<path d="M45.31 22.66L45.31 17.19L41.56 13.28"  stroke="#000000" stroke-width="2" stroke-opacity="1" fill-opacity="0"></path>
</g>
</svg>
