<svg xmlns="http://www.w3.org/2000/svg" viewBox="0 0 50 50" version="1.1">
<g>
<path d="M17.19 6.25C12.98 6.25 10.35 6.25 9.29 6.25C8.48 6.25 7.81 6.91 7.81 7.73C7.81 14.62 7.81 33.82 7.81 40.71C7.81 41.52 8.48 42.19 9.29 42.19C15.87 42.19 34.13 42.19 40.71 42.19C41.52 42.19 42.19 41.52 42.19 40.71C42.19 33.82 42.19 14.62 42.19 7.73C42.19 6.91 41.52 6.25 40.71 6.25C39.65 6.25 37.02 6.25 32.81 6.25"  stroke="#000000" stroke-width="2" stroke-opacity="1" fill-opacity="0"></path>
<path d="M10.94 42.19C10.94 43.06 10.94 43.61 10.94 43.83C10.94 44.65 11.6 45.31 12.42 45.31C19 45.31 37.25 45.31 43.83 45.31C44.65 45.31 45.31 44.65 45.31 43.83C45.31 36.94 45.31 17.75 45.31 10.86C45.31 10.04 44.65 9.38 43.83 9.38C43.61 9.38 43.06 9.38 42.19 9.38"  stroke="#000000" stroke-width="2" stroke-opacity="1" fill-opacity="0"></path>
<path d=""  stroke="#000000" stroke-width="2" stroke-opacity="1" fill-opacity="0"></path>
<path d="M18.75 9.38L18.75 3.13"  stroke="#000000" stroke-width="2" stroke-opacity="1" fill-opacity="0"></path>
<path d="M31.25 9.38L31.25 3.13"  stroke="#000000" stroke-width="2" stroke-opacity="1" fill-opacity="0"></path>
<path d="M29.69 6.25L20.31 6.25"  stroke="#000000" stroke-width="2" stroke-opacity="1" fill-opacity="0"></path>
<path d="M42.19 20.31L7.81 20.31"  stroke="#000000" stroke-width="1" stroke-opacity="1" fill-opacity="0"></path>
</g>
</svg>
