<svg xmlns="http://www.w3.org/2000/svg" viewBox="0 0 50 50" version="1.1">
<g>
<path d="M36.59 6.25C38.82 6.25 40.63 8.05 40.63 10.28C40.63 15.72 40.63 28.03 40.63 33.47C40.63 35.7 38.82 37.5 36.59 37.5C31.15 37.5 18.85 37.5 13.41 37.5C11.18 37.5 9.37 35.7 9.37 33.47C9.37 28.03 9.37 15.72 9.37 10.28C9.37 8.05 11.18 6.25 13.41 6.25C18.85 6.25 31.15 6.25 36.59 6.25Z"  stroke="#000000" stroke-width="2" stroke-opacity="1" fill-opacity="0"></path>
<path d="M34.38 21.88C34.38 27.05 30.17 31.25 25 31.25C19.83 31.25 15.62 27.05 15.62 21.88C15.62 16.7 19.83 12.5 25 12.5C30.17 12.5 34.38 16.7 34.38 21.88Z"  stroke="#000000" stroke-width="2" stroke-opacity="1" fill-opacity="0"></path>
<path d="M29.47 20.94C29.47 20.94 29.47 20.94 29.47 20.94C28.88 19.46 27.66 18.31 26.15 17.81C26.15 17.81 26.15 17.81 26.15 17.81"  stroke="#000000" stroke-width="2" stroke-opacity="1" fill-opacity="0"></path>
<path d="M31.25 37.5L37.5 42.19L34.38 45.31C33.54 44.79 33.03 44.46 32.82 44.33C28.12 41.38 22.16 41.34 17.42 44.22C17.18 44.36 16.58 44.73 15.63 45.31L12.5 42.19L18.75 37.5"  stroke="#000000" stroke-width="2" stroke-opacity="1" fill-opacity="0"></path>
</g>
</svg>
