<svg xmlns="http://www.w3.org/2000/svg" viewBox="0 0 50 50" version="1.1">
<g>
<path d="M13.77 30.85C13.77 32.57 12.37 33.97 10.65 33.97C8.92 33.97 7.52 32.57 7.52 30.85C7.52 29.12 8.92 27.72 10.65 27.72C12.37 27.72 13.77 29.12 13.77 30.85Z"  stroke="#000000" stroke-width="2" stroke-opacity="1" fill-opacity="0"></path>
<path d="M41.9 30.85C41.9 32.57 40.5 33.97 38.77 33.97C37.05 33.97 35.65 32.57 35.65 30.85C35.65 29.12 37.05 27.72 38.77 27.72C40.5 27.72 41.9 29.12 41.9 30.85Z"  stroke="#000000" stroke-width="2" stroke-opacity="1" fill-opacity="0"></path>
<path d="M13.28 25.68C11.46 24.74 9.28 24.82 7.54 25.9C7.03 26.21 8.09 25.55 7.53 25.9C5.94 26.88 4.97 28.61 4.95 30.47C4.95 30.47 4.95 30.47 4.95 30.47C4.13 30.47 3.63 30.46 3.42 30.46C3.24 30.46 3.07 30.41 2.91 30.33C2.74 30.23 2.57 30.14 2.42 30.06C2.2 29.94 2.07 29.7 2.08 29.44C2.19 27.98 2.45 24.13 2.55 22.7C2.57 22.32 2.73 21.96 3 21.69C3.97 20.71 6.45 18.18 7.42 17.19C7.68 16.93 8.03 16.77 8.4 16.75C11.78 16.58 19.45 16.19 22.36 16.04C24.3 15.94 26.22 16.38 27.93 17.32C29.47 18.16 33.25 20.23 35.23 21.32C35.5 21.47 35.8 21.57 36.11 21.63C38.19 21.99 43.32 22.88 45.24 23.21C46.02 23.34 46.7 23.84 47.06 24.55C47.23 24.88 47.21 24.82 47.38 25.17C47.73 25.85 47.92 26.61 47.92 27.37C47.92 27.93 47.92 29.23 47.92 29.99C47.92 30.09 47.84 30.17 47.74 30.18C47.3 30.21 46.21 30.29 44.45 30.41C44.45 30.35 44.45 30.32 44.45 30.3C44.33 28.42 43.28 26.73 41.64 25.79C41.07 25.47 42.16 26.09 41.64 25.79C39.87 24.78 37.7 24.74 35.89 25.69C35.32 26 36.47 25.39 35.89 25.69C34.13 26.62 33.03 28.44 33.01 30.42C33.01 30.42 33.01 30.42 33.01 30.42L16.33 30.41C16.32 30.32 16.32 30.26 16.32 30.24C16.16 28.29 15.01 26.57 13.28 25.68C12.69 25.38 13.83 25.97 13.28 25.68Z"  stroke="#000000" stroke-width="2" stroke-opacity="1" fill-opacity="0"></path>
</g>
</svg>
