<svg xmlns="http://www.w3.org/2000/svg" viewBox="0 0 50 50" version="1.1">
<g>
<path d="M28.13 37.01C33.5 37.05 36.86 37.08 38.2 37.09C39.07 37.1 39.78 36.4 39.78 35.53C39.78 31.06 39.78 19.21 39.78 14.74C39.78 13.87 39.07 13.16 38.2 13.16C32.61 13.16 17.39 13.16 11.8 13.16C10.93 13.16 10.22 13.87 10.22 14.74C10.22 15.34 10.22 16.85 10.22 19.27"  stroke="#000000" stroke-width="2" stroke-opacity="1" fill-opacity="0"></path>
<path d="M23.61 37.96C23.61 37.59 23.61 37.3 23.61 37.08C23.57 35.27 22.99 33.32 21.86 31.22C20.3 28.32 17.8 26.04 14.78 24.76C12.98 23.99 11.41 23.6 10.06 23.56C9.74 23.56 9.46 23.56 9.24 23.56"  stroke="#000000" stroke-width="2" stroke-opacity="1" fill-opacity="0"></path>
<path d="M17.71 37.99C17.71 37.77 17.71 37.6 17.71 37.48C17.69 36.42 17.35 35.27 16.68 34.04C15.77 32.35 14.31 31.02 12.54 30.26C11.49 29.82 10.57 29.58 9.78 29.57C9.67 29.57 9.51 29.57 9.3 29.57"  stroke="#000000" stroke-width="2" stroke-opacity="1" fill-opacity="0"></path>
<path d="M11.88 37.94C11.88 37.87 11.88 37.82 11.88 37.78C11.88 37.45 11.77 37.1 11.57 36.72C11.28 36.19 10.83 35.78 10.29 35.55C9.96 35.41 9.68 35.34 9.43 35.33C9.4 35.33 9.35 35.33 9.28 35.33"  stroke="#000000" stroke-width="2" stroke-opacity="1" fill-opacity="0"></path>
</g>
</svg>
