<svg xmlns="http://www.w3.org/2000/svg" viewBox="0 0 50 50" version="1.1">
<g>
<path d="M15.75 45.31L9.38 45.31C8.18 43.7 7.47 41.88 7.25 39.84C6.92 36.79 7.24 34.67 8.25 32.56C9.26 30.45 10.63 29.08 11.72 28.13C12.81 27.17 14.45 26.91 15.81 25.34C16.72 24.3 17.18 23.15 17.19 21.88"  stroke="#000000" stroke-width="2" stroke-opacity="1" fill-opacity="0"></path>
<path d="M15.63 45.31L23.59 45.31L29.97 45.31C31.17 43.7 31.88 41.88 32.09 39.84C32.42 36.79 32.1 34.67 31.09 32.56C30.09 30.45 28.72 29.08 27.63 28.13C26.53 27.17 24.9 26.91 23.53 25.34C22.62 24.3 22.16 23.15 22.16 21.88"  stroke="#000000" stroke-width="2" stroke-opacity="1" fill-opacity="0"></path>
<path d="M24.21 21.58C24.24 21.73 24.13 21.88 23.97 21.88C22.21 21.88 17.24 21.88 15.48 21.88C15.32 21.88 15.21 21.73 15.24 21.58C15.38 20.86 15.74 18.98 15.88 18.26C15.91 18.09 16.06 17.97 16.24 17.97C17.69 17.97 21.76 17.97 23.21 17.97C23.39 17.97 23.54 18.09 23.57 18.26C23.71 18.98 24.07 20.86 24.21 21.58Z"  stroke="#000000" stroke-width="2" stroke-opacity="1" fill-opacity="0"></path>
<path d="M17.56 17.97C17.5 16.67 16.9 15.62 15.75 14.84C15.29 14.53 14.28 14.36 12.73 14.33C11.07 14.3 10.29 12.27 11.49 11.14C12.48 10.21 13.33 9.55 14.06 9.16C15.82 8.2 17.64 7.76 19.53 7.81C25.92 7.81 29.9 7.81 31.5 7.81C31.79 7.81 32.03 8.05 32.03 8.34C32.03 9.17 32.03 11.07 32.03 11.88C32.03 12.22 31.75 12.5 31.41 12.5C31.1 12.5 30.32 12.5 29.06 12.5C27 12.63 25.39 13.15 24.22 14.06C23.05 14.97 22.33 16.28 22.06 17.97"  stroke="#000000" stroke-width="2" stroke-opacity="1" fill-opacity="0"></path>
<path d="M28.13 12.69C28.06 13.41 28.32 14.39 28.91 15.63C29.27 16.39 30.1 17.52 31.41 19.01C31.83 19.49 31.31 20.2 30.73 19.95C29.32 19.35 28.29 18.78 27.62 18.21C26.46 17.24 25.49 15.86 24.69 14.06"  stroke="#000000" stroke-width="2" stroke-opacity="1" fill-opacity="0"></path>
<path d="M28.91 12.5L28.91 7.81"  stroke="#000000" stroke-width="1" stroke-opacity="1" fill-opacity="0"></path>
<path d=""  stroke="#000000" stroke-width="1" stroke-opacity="1" fill-opacity="0"></path>
<path d="M37.5 10.16L34.38 10.16"  stroke="#000000" stroke-width="1" stroke-opacity="1" fill-opacity="0"></path>
<path d="M42.19 10.16L39.06 10.16"  stroke="#000000" stroke-width="1" stroke-opacity="1" fill-opacity="0"></path>
<path d="M46.88 10.16L43.75 10.16"  stroke="#000000" stroke-width="1" stroke-opacity="1" fill-opacity="0"></path>
<path d="M37.36 6.38L34.38 7.3"  stroke="#000000" stroke-width="1" stroke-opacity="1" fill-opacity="0"></path>
<path d="M41.85 5.01L38.86 5.93"  stroke="#000000" stroke-width="1" stroke-opacity="1" fill-opacity="0"></path>
<path d="M46.33 3.64L43.34 4.56"  stroke="#000000" stroke-width="1" stroke-opacity="1" fill-opacity="0"></path>
<path d="M43.34 15.49L46.33 16.41"  stroke="#000000" stroke-width="1" stroke-opacity="1" fill-opacity="0"></path>
<path d="M38.86 14.12L41.85 15.04"  stroke="#000000" stroke-width="1" stroke-opacity="1" fill-opacity="0"></path>
<path d="M34.38 12.75L37.36 13.67"  stroke="#000000" stroke-width="1" stroke-opacity="1" fill-opacity="0"></path>
</g>
</svg>
