<svg xmlns="http://www.w3.org/2000/svg" viewBox="0 0 50 50" version="1.1">
<g>
<path d="M45.31 4.69L4.69 4.69"  stroke="#000000" stroke-width="2" stroke-opacity="1" fill-opacity="0"></path>
<path d="M32.81 4.69C32.81 25.43 32.81 38.39 32.81 43.57C32.81 43.69 32.77 43.79 32.69 43.87C32.09 44.47 31.39 45.17 31.04 45.52C30.29 46.27 29.08 46.27 28.34 45.52C28.1 45.29 27.51 44.7 26.56 43.75C25.55 44.77 24.91 45.4 24.66 45.66C23.99 46.32 22.91 46.3 22.26 45.61C22.03 45.37 21.45 44.74 20.53 43.75C19.42 44.79 18.72 45.44 18.44 45.7C17.74 46.36 16.65 46.34 15.97 45.66C15.72 45.4 15.08 44.77 14.06 43.75C13.12 44.7 12.53 45.29 12.29 45.52C11.55 46.26 10.35 46.24 9.63 45.48C9.42 45.25 8.88 44.67 8.01 43.75L7.81 4.69"  stroke="#000000" stroke-width="2" stroke-opacity="1" fill-opacity="0"></path>
<path d="M14.06 15.63L14.06 43.75"  stroke="#000000" stroke-width="1" stroke-opacity="1" fill-opacity="0"></path>
<path d="M20.31 10.94L20.31 43.75L20.31 10.94Z"  stroke="#000000" stroke-width="1" stroke-opacity="1" fill-opacity="0"></path>
<path d="M26.56 15.63L26.56 43.75"  stroke="#000000" stroke-width="1" stroke-opacity="1" fill-opacity="0"></path>
</g>
</svg>
