<svg xmlns="http://www.w3.org/2000/svg" viewBox="0 0 50 50" version="1.1">
<g>
<path d="M40.2 15.63C40.43 15.63 40.63 15.43 40.63 15.2C40.63 14.64 40.63 13.37 40.63 12.81C40.63 12.58 40.43 12.39 40.2 12.39C34.03 12.39 15.97 12.39 9.8 12.39C9.57 12.39 9.38 12.58 9.38 12.81C9.38 13.37 9.38 14.64 9.38 15.2C9.38 15.43 9.57 15.63 9.8 15.63C15.97 15.63 34.03 15.63 40.2 15.63Z"  stroke="#000000" stroke-width="2" stroke-opacity="1" fill-opacity="0"></path>
<path d="M12.5 15.63L15.63 43.64L34.38 43.64L37.5 15.63"  stroke="#000000" stroke-width="2" stroke-opacity="1" fill-opacity="0"></path>
<path d="M21.88 21.88L21.88 37.5"  stroke="#000000" stroke-width="2" stroke-opacity="1" fill-opacity="0"></path>
<path d="M28.13 21.88L28.13 37.5"  stroke="#000000" stroke-width="2" stroke-opacity="1" fill-opacity="0"></path>
<path d="M29.69 12.39C29.69 10.63 29.69 9.54 29.69 9.1C29.69 8.26 29.15 7.52 28.36 7.26C27.69 7.03 27 6.8 26.33 6.58C25.47 6.29 24.53 6.29 23.67 6.58C23 6.8 22.31 7.03 21.64 7.26C20.85 7.52 20.31 8.26 20.31 9.1C20.31 9.54 20.31 10.63 20.31 12.39"  stroke="#000000" stroke-width="2" stroke-opacity="1" fill-opacity="0"></path>
</g>
</svg>
