<svg xmlns="http://www.w3.org/2000/svg" viewBox="0 0 50 50" version="1.1">
<g>
<path d="M39.67 4.69C40.2 4.69 40.63 5.12 40.63 5.64C40.63 13.58 40.63 36.42 40.63 44.36C40.63 44.88 40.2 45.31 39.67 45.31C33.61 45.31 16.39 45.31 10.33 45.31C9.8 45.31 9.38 44.88 9.38 44.36C9.38 36.42 9.38 13.58 9.38 5.64C9.38 5.12 9.8 4.69 10.33 4.69C16.39 4.69 33.61 4.69 39.67 4.69Z"  stroke="#000000" stroke-width="2" stroke-opacity="1" fill-opacity="0"></path>
<path d="M36.33 27.34C36.33 33.81 31.25 39.06 25 39.06C18.75 39.06 13.67 33.81 13.67 27.34C13.67 20.88 18.75 15.62 25 15.62C31.25 15.62 36.33 20.88 36.33 27.34Z"  stroke="#000000" stroke-width="2" stroke-opacity="1" fill-opacity="0"></path>
<path d="M31.25 9.38L18.75 9.38"  stroke="#000000" stroke-width="2" stroke-opacity="1" fill-opacity="0"></path>
<path d="M25 18.9L25 22.33"  stroke="#000000" stroke-width="2" stroke-opacity="1" fill-opacity="0"></path>
<path d="M25 31.58L25 35"  stroke="#000000" stroke-width="2" stroke-opacity="1" fill-opacity="0"></path>
<path d="M30.69 21.22L28.27 23.64"  stroke="#000000" stroke-width="2" stroke-opacity="1" fill-opacity="0"></path>
<path d="M21.73 30.18L19.31 32.6"  stroke="#000000" stroke-width="2" stroke-opacity="1" fill-opacity="0"></path>
<path d="M19.31 21.22L21.73 23.64"  stroke="#000000" stroke-width="2" stroke-opacity="1" fill-opacity="0"></path>
<path d="M28.27 30.18L30.69 32.6"  stroke="#000000" stroke-width="2" stroke-opacity="1" fill-opacity="0"></path>
<path d="M33.05 26.95L29.63 26.95"  stroke="#000000" stroke-width="2" stroke-opacity="1" fill-opacity="0"></path>
<path d="M20.37 26.95L16.95 26.95"  stroke="#000000" stroke-width="2" stroke-opacity="1" fill-opacity="0"></path>
<path d="M28.13 26.95C28.13 28.68 26.72 30.08 25 30.08C23.28 30.08 21.88 28.68 21.88 26.95C21.88 25.23 23.28 23.83 25 23.83C26.72 23.83 28.13 25.23 28.13 26.95Z"  stroke="#000000" stroke-width="2" stroke-opacity="1" fill-opacity="0"></path>
</g>
</svg>
