<svg xmlns="http://www.w3.org/2000/svg" viewBox="0 0 50 50" version="1.1">
<g>
<path d="M24.12 21.97C23.12 21.09 22.46 19.74 22.14 17.92C22.01 17.17 22.05 16.36 22.24 15.48C22.71 13.39 21.99 11.21 20.37 9.81C19.86 9.37 20.8 10.19 20.26 9.71C18.82 8.47 16.73 8.31 15.12 9.31C14.81 9.51 15.66 8.97 15.12 9.31C14.09 9.95 13.17 10.75 12.4 11.68C11.75 12.46 12.43 11.65 12.14 11.99C10.46 14.01 10.58 16.98 12.42 18.86C12.98 19.43 11.77 18.2 12.42 18.86C14.27 20.75 16.47 22.24 18.91 23.25C19.36 23.43 20.47 23.89 22.24 24.62"  stroke="#000000" stroke-width="2" stroke-opacity="1" fill-opacity="0"></path>
<path d="M28.07 24.2C28.95 23.19 30.3 22.53 32.13 22.22C32.87 22.09 33.69 22.12 34.56 22.32C36.65 22.79 38.83 22.07 40.23 20.45C40.67 19.94 39.85 20.88 40.33 20.33C41.57 18.89 41.73 16.81 40.73 15.2C40.54 14.89 41.07 15.74 40.73 15.2C40.09 14.17 39.29 13.25 38.36 12.48C37.58 11.83 38.39 12.51 38.05 12.22C36.03 10.54 33.06 10.66 31.18 12.5C30.61 13.06 31.85 11.85 31.18 12.5C29.3 14.34 27.8 16.55 26.79 18.99C26.61 19.44 26.15 20.54 25.42 22.31"  stroke="#000000" stroke-width="2" stroke-opacity="1" fill-opacity="0"></path>
<path d="M25.88 28.03C26.88 28.91 27.54 30.26 27.86 32.08C27.99 32.83 27.95 33.64 27.76 34.52C27.29 36.61 28.01 38.79 29.63 40.19C30.14 40.63 29.2 39.81 29.74 40.29C31.18 41.53 33.27 41.69 34.88 40.69C35.19 40.49 34.34 41.03 34.88 40.69C35.91 40.05 36.83 39.25 37.6 38.32C38.25 37.54 37.57 38.35 37.86 38.01C39.54 35.99 39.42 33.02 37.58 31.14C37.02 30.57 38.23 31.8 37.58 31.14C35.73 29.25 33.53 27.76 31.09 26.75C30.64 26.57 29.53 26.11 27.76 25.38"  stroke="#000000" stroke-width="2" stroke-opacity="1" fill-opacity="0"></path>
<path d="M21.93 25.8C21.05 26.81 19.7 27.47 17.87 27.78C17.13 27.91 16.31 27.88 15.44 27.68C13.35 27.21 11.17 27.93 9.77 29.55C9.33 30.06 10.15 29.12 9.67 29.67C8.43 31.11 8.27 33.19 9.27 34.8C9.46 35.11 8.93 34.26 9.27 34.8C9.91 35.83 10.71 36.75 11.64 37.52C12.42 38.17 11.61 37.49 11.95 37.78C13.97 39.46 16.94 39.34 18.82 37.5C19.39 36.94 18.15 38.15 18.82 37.5C20.7 35.66 22.2 33.45 23.21 31.01C23.39 30.56 23.85 29.46 24.58 27.69"  stroke="#000000" stroke-width="2" stroke-opacity="1" fill-opacity="0"></path>
<path d="M28.11 25.1C28.11 26.82 26.7 28.22 24.98 28.22C23.26 28.22 21.86 26.82 21.86 25.1C21.86 23.37 23.26 21.97 24.98 21.97C26.7 21.97 28.11 23.37 28.11 25.1Z"  stroke="#000000" stroke-width="2" stroke-opacity="1" fill-opacity="0"></path>
</g>
</svg>
