<svg xmlns="http://www.w3.org/2000/svg" viewBox="0 0 50 50" version="1.1">
<g>
<path d="M21.15 5.36C22.08 5.84 22.67 6.14 22.9 6.26C30.24 10 34.41 17.97 33.3 26.12C33.2 26.81 32.97 28.52 32.6 31.25C33.53 29.9 34.11 29.05 34.34 28.71C35.76 26.66 36.82 24.37 37.48 21.96C37.48 21.95 37.49 21.92 37.5 21.88C38.08 23.93 38.45 25.22 38.59 25.73C40.21 31.43 38.4 37.56 33.94 41.46C32.16 43.03 35.4 40.18 33.94 41.46C28.77 46 21.08 46.19 15.69 41.9C13.81 40.39 17.56 43.38 15.69 41.9C10.46 37.73 9.55 30.12 13.65 24.84C14.44 23.82 12.63 26.16 14.22 24.1C16.4 21.3 17.46 17.79 17.2 14.25C17.2 14.22 17.19 14.16 17.19 14.06C17.5 14.34 17.7 14.51 17.78 14.58C19.65 16.22 20.65 18.64 20.47 21.13C20.45 21.43 20.4 22.2 20.31 23.44C20.51 23.13 20.64 22.93 20.69 22.85C23.85 17.92 24.22 11.7 21.66 6.42C21.59 6.28 21.42 5.93 21.15 5.36Z"  stroke="#000000" stroke-width="2" stroke-opacity="1" fill-opacity="0"></path>
</g>
</svg>
