<svg xmlns="http://www.w3.org/2000/svg" viewBox="0 0 50 50" version="1.1">
<g>
<path d="M10.94 4.69L37.5 4.69L37.5 45.31L10.94 45.31L10.94 4.69Z"  stroke="#000000" stroke-width="2" stroke-opacity="1" fill-opacity="0"></path>
<path d="M15.63 14.06L32.81 14.06L32.81 39.06L15.63 39.06L15.63 14.06Z"  stroke="#000000" stroke-width="2" stroke-opacity="1" fill-opacity="0"></path>
<path d="M22.81 22.71C23.13 22.87 23.32 22.97 23.4 23.01C25.85 24.26 27.24 26.92 26.87 29.64C26.84 29.87 26.76 30.44 26.63 31.35C26.94 30.9 27.14 30.62 27.22 30.5C27.69 29.82 28.04 29.06 28.26 28.25C28.26 28.25 28.27 28.24 28.27 28.22C28.46 28.91 28.59 29.34 28.64 29.51C29.17 31.41 28.57 33.46 27.08 34.76C26.49 35.28 27.57 34.33 27.08 34.76C25.36 36.27 22.79 36.33 20.99 34.9C20.36 34.4 21.61 35.4 20.99 34.9C19.25 33.51 18.94 30.97 20.31 29.21C20.57 28.87 19.97 29.65 20.5 28.96C21.23 28.03 21.58 26.86 21.5 25.68C21.5 25.67 21.49 25.65 21.49 25.61C21.6 25.71 21.66 25.77 21.69 25.79C22.31 26.34 22.65 27.14 22.59 27.97C22.58 28.07 22.56 28.33 22.53 28.74C22.6 28.64 22.64 28.57 22.66 28.55C23.71 26.9 23.84 24.82 22.98 23.06C22.96 23.02 22.9 22.9 22.81 22.71Z"  stroke="#000000" stroke-width="1" stroke-opacity="1" fill-opacity="0"></path>
<path d="M37.5 7.81L10.94 7.81"  stroke="#000000" stroke-width="2" stroke-opacity="1" fill-opacity="0"></path>
</g>
</svg>
