<svg xmlns="http://www.w3.org/2000/svg" viewBox="0 0 50 50" version="1.1">
<g>
<path d="M7.23 23.44L7.42 25.25L6.64 31.32C8.63 29.87 9.88 28.96 10.37 28.6C12.43 27.1 14.32 25.39 16.01 23.49C18.51 20.68 16.47 22.97 17.22 22.13C23.34 15.26 33.99 14.98 40.45 21.53C41.03 22.11 40.06 21.13 42.95 24.05C43.21 24.32 43.36 24.68 43.36 25.06C43.36 25.06 43.36 25.06 43.36 25.06"  stroke="#000000" stroke-width="2" stroke-opacity="1" fill-opacity="0"></path>
<path d="M7.42 25.08C7.29 24.05 7.03 21.96 6.64 18.82C8.63 20.27 9.88 21.18 10.38 21.54C12.43 23.04 14.32 24.75 16.01 26.65C18.51 29.46 16.31 26.99 17.02 27.79C23.25 34.77 34.08 35.05 40.64 28.38C41.18 27.83 40.06 28.97 42.95 26.04C43.21 25.77 43.36 25.41 43.36 25.04C43.36 25.04 43.36 25.04 43.36 25.04"  stroke="#000000" stroke-width="2" stroke-opacity="1" fill-opacity="0"></path>
<path d="M34.77 32.1C34.51 31.42 34.36 30.99 34.29 30.82C32.97 27.23 32.95 23.28 34.24 19.68C34.31 19.48 34.48 18.98 34.77 18.19"  stroke="#000000" stroke-width="2" stroke-opacity="1" fill-opacity="0"></path>
<path d="M38.41 23.94C38.41 24.56 37.9 25.07 37.28 25.07C36.66 25.07 36.16 24.56 36.16 23.94C36.16 23.32 36.66 22.82 37.28 22.82C37.9 22.82 38.41 23.32 38.41 23.94Z"  fill="#000000" fill-opacity="1"></path>
</g>
</svg>
