<svg xmlns="http://www.w3.org/2000/svg" viewBox="0 0 50 50" version="1.1">
<g>
<path d="M24.78 10.72L28.13 15.7L21.43 15.7L24.78 10.72Z"  stroke="#000000" stroke-width="0" stroke-opacity="1" fill="#000000" fill-opacity="1"></path>
<path d="M24.78 36C24.78 35.82 24.78 35.7 24.78 35.66C24.78 34.65 24.97 33.66 25.34 32.72C25.68 31.88 25.78 31.6 26.04 30.97C26.65 29.42 26.47 27.67 25.56 26.27C25.01 25.44 24.9 25.27 24.37 24.46C23.41 22.99 23.24 21.14 23.92 19.52C24.09 19.12 24.05 19.22 24.36 18.5C24.64 17.83 24.78 17.12 24.78 16.4C24.78 16.27 24.78 15.95 24.78 15.45"  stroke="#000000" stroke-width="2" stroke-opacity="1" fill-opacity="0"></path>
<path d="M32.59 10.72L35.94 15.7L29.25 15.7L32.59 10.72Z"  stroke="#000000" stroke-width="0" stroke-opacity="1" fill="#000000" fill-opacity="1"></path>
<path d="M32.59 36C32.59 35.82 32.59 35.7 32.59 35.66C32.59 34.65 32.78 33.66 33.15 32.72C33.49 31.88 33.6 31.6 33.85 30.97C34.46 29.42 34.28 27.67 33.37 26.27C32.82 25.44 32.71 25.27 32.18 24.46C31.22 22.99 31.05 21.14 31.73 19.52C31.91 19.12 31.86 19.22 32.17 18.5C32.45 17.83 32.59 17.12 32.59 16.4C32.59 16.27 32.59 15.95 32.59 15.45"  stroke="#000000" stroke-width="2" stroke-opacity="1" fill-opacity="0"></path>
<path d="M16.97 10.72L20.32 15.7L13.62 15.7L16.97 10.72Z"  stroke="#000000" stroke-width="0" stroke-opacity="1" fill="#000000" fill-opacity="1"></path>
<path d="M16.97 36C16.97 35.82 16.97 35.7 16.97 35.66C16.97 34.65 17.16 33.66 17.53 32.72C17.86 31.88 17.97 31.6 18.22 30.97C18.84 29.42 18.66 27.67 17.74 26.27C17.2 25.44 17.08 25.27 16.56 24.46C15.59 22.99 15.43 21.14 16.11 19.52C16.28 19.12 16.24 19.22 16.54 18.5C16.82 17.83 16.97 17.12 16.97 16.4C16.97 16.27 16.97 15.95 16.97 15.45"  stroke="#000000" stroke-width="2" stroke-opacity="1" fill-opacity="0"></path>
<path d="M36.72 32.59L39.84 32.59L42.97 39.06L7.03 38.84L10.16 32.59L13.28 32.59"  stroke="#000000" stroke-width="2" stroke-opacity="1" fill-opacity="0"></path>
<path d=""  stroke="#000000" stroke-width="1" stroke-opacity="1" fill-opacity="0"></path>
</g>
</svg>
