<svg xmlns="http://www.w3.org/2000/svg" viewBox="0 0 50 50" version="1.1">
<g>
<path d="M34.57 6.25C35.32 6.25 35.94 6.86 35.94 7.62C35.94 14.85 35.94 35.15 35.94 42.38C35.94 43.14 35.32 43.75 34.57 43.75C30.47 43.75 19.53 43.75 15.43 43.75C14.68 43.75 14.06 43.14 14.06 42.38C14.06 35.15 14.06 14.85 14.06 7.62C14.06 6.86 14.68 6.25 15.43 6.25C19.53 6.25 30.47 6.25 34.57 6.25Z"  stroke="#000000" stroke-width="2" stroke-opacity="1" fill-opacity="0"></path>
<path d="M35.94 20.31L14.06 20.31"  stroke="#000000" stroke-width="2" stroke-opacity="1" fill-opacity="0"></path>
<path d=""  fill-opacity="0"></path>
<path d="M32.03 17.19L32.03 9.38"  stroke="#000000" stroke-width="2" stroke-opacity="1" fill-opacity="0"></path>
<path d="M32.03 34.85L32.03 23.44"  stroke="#000000" stroke-width="2" stroke-opacity="1" fill-opacity="0"></path>
</g>
</svg>
