<svg xmlns="http://www.w3.org/2000/svg" viewBox="0 0 50 50" version="1.1">
<g>
<path d="M25 4.69L30.37 12.67L19.63 12.67L25 4.69Z"  stroke="#000000" stroke-width="0" stroke-opacity="1" fill="#000000" fill-opacity="1"></path>
<path d="M25 45.19C25 44.91 25 44.72 25 44.65C25 43.04 25.3 41.44 25.9 39.95C26.43 38.59 26.61 38.15 27.01 37.14C27.99 34.66 27.71 31.85 26.24 29.62C25.37 28.28 25.19 28 24.34 26.71C22.8 24.36 22.53 21.39 23.62 18.8C23.9 18.15 23.83 18.31 24.32 17.15C24.77 16.09 25 14.95 25 13.79C25 13.59 25 13.08 25 12.27"  stroke="#000000" stroke-width="2" stroke-opacity="1" fill-opacity="0"></path>
<path d="M37.52 4.69L42.88 12.67L32.15 12.67L37.52 4.69Z"  stroke="#000000" stroke-width="0" stroke-opacity="1" fill="#000000" fill-opacity="1"></path>
<path d="M37.52 45.19C37.52 44.91 37.52 44.72 37.52 44.65C37.52 43.04 37.82 41.44 38.42 39.95C38.95 38.59 39.13 38.15 39.53 37.14C40.51 34.66 40.22 31.85 38.76 29.62C37.89 28.28 37.7 28 36.86 26.71C35.32 24.36 35.05 21.39 36.14 18.8C36.42 18.15 36.35 18.31 36.84 17.15C37.29 16.09 37.52 14.95 37.52 13.79C37.52 13.59 37.52 13.08 37.52 12.27"  stroke="#000000" stroke-width="2" stroke-opacity="1" fill-opacity="0"></path>
<path d="M12.48 4.69L17.85 12.67L7.12 12.67L12.48 4.69Z"  stroke="#000000" stroke-width="0" stroke-opacity="1" fill="#000000" fill-opacity="1"></path>
<path d="M12.48 45.19C12.48 44.91 12.48 44.72 12.48 44.65C12.48 43.04 12.79 41.44 13.38 39.95C13.91 38.59 14.09 38.15 14.49 37.14C15.47 34.66 15.19 31.85 13.72 29.62C12.85 28.28 12.67 28 11.82 26.71C10.28 24.36 10.01 21.39 11.1 18.8C11.38 18.15 11.31 18.31 11.8 17.15C12.25 16.09 12.48 14.95 12.48 13.79C12.48 13.59 12.48 13.08 12.48 12.27"  stroke="#000000" stroke-width="2" stroke-opacity="1" fill-opacity="0"></path>
<path d=""  stroke="#000000" stroke-width="1" stroke-opacity="1" fill-opacity="0"></path>
</g>
</svg>
