<svg xmlns="http://www.w3.org/2000/svg" viewBox="0 0 50 50" version="1.1">
<g>
<path d="M44.41 24.88C44.48 24.95 44.48 25.05 44.41 25.12C43.81 25.72 42.13 27.41 41.52 28.01C41.46 28.07 41.35 28.07 41.29 28.01C38.03 24.75 28.38 15.09 25.12 11.84C25.05 11.77 24.95 11.77 24.88 11.84C21.62 15.09 11.97 24.75 8.71 28.01C8.65 28.07 8.54 28.07 8.48 28.01C7.87 27.41 6.19 25.72 5.59 25.12C5.52 25.05 5.52 24.95 5.59 24.88C9.47 21 21 9.47 24.88 5.59C24.95 5.52 25.05 5.52 25.12 5.59C29 9.47 40.53 21 44.41 24.88Z"  stroke="#000000" stroke-width="2" stroke-opacity="1" fill-opacity="0"></path>
<path d="M39.06 25.99L39.06 43.75L10.94 43.75L10.94 25.61"  stroke="#000000" stroke-width="2" stroke-opacity="1" fill-opacity="0"></path>
<path d="M29.69 43.75L29.69 29.69L20.31 29.69L20.31 43.75"  stroke="#000000" stroke-width="2" stroke-opacity="1" fill-opacity="0"></path>
</g>
</svg>
