<svg xmlns="http://www.w3.org/2000/svg" viewBox="0 0 50 50" version="1.1">
<g>
<path d="M19.73 18.75C19.88 16.33 20.47 13.73 23.2 10.94C25.94 8.14 28.75 7.56 31.25 7.56C33.75 7.56 37.26 8.84 39.06 10.94C40.86 13.03 42.19 15.27 42.19 18.75C42.19 22.23 41.45 25.59 39.06 28.13C36.68 30.66 33.32 31.09 31.25 31.02C29.87 30.96 28.31 30.52 26.56 29.69C26.56 30.65 26.56 31.25 26.56 31.49C26.56 32.22 25.97 32.81 25.24 32.81C24.79 32.81 23.67 32.81 21.88 32.81C21.88 34.87 21.88 36.16 21.88 36.67C21.88 37.13 21.5 37.5 21.05 37.5C20.53 37.5 19.25 37.5 17.19 37.5C17.19 39.38 17.19 40.56 17.19 41.03C17.19 41.67 16.67 42.19 16.03 42.19C14.7 42.19 11.55 42.19 10.15 42.19C9.67 42.19 9.22 41.94 8.97 41.53C8.74 41.17 8.72 41.14 8.55 40.87C8.07 40.1 7.81 39.21 7.81 38.3C7.81 37.83 7.81 38.4 7.81 38.08C7.81 36.71 8.35 35.39 9.31 34.41C10.74 32.94 14.31 29.29 20.03 23.44C19.73 21.93 19.63 20.37 19.73 18.75Z"  stroke="#000000" stroke-width="2" stroke-opacity="1" fill-opacity="0"></path>
<path d="M37.5 15.63C37.5 17.35 36.1 18.75 34.38 18.75C32.65 18.75 31.25 17.35 31.25 15.63C31.25 13.9 32.65 12.5 34.38 12.5C36.1 12.5 37.5 13.9 37.5 15.63Z"  stroke="#000000" stroke-width="2" stroke-opacity="1" fill-opacity="0"></path>
</g>
</svg>
