<svg xmlns="http://www.w3.org/2000/svg" viewBox="0 0 50 50" version="1.1">
<g>
<path d="M-25.78 25.71L5.47 25.71L5.47 41.34L-25.78 41.34L-25.78 25.71Z"  fill-opacity="0"></path>
<path d="M25 43.75L25 25"  stroke="#000000" stroke-width="2" stroke-opacity="1" fill-opacity="0"></path>
<path d="M43.75 34.38L25 34.38"  stroke="#000000" stroke-width="2" stroke-opacity="1" fill-opacity="0"></path>
<path d="M25 14.06L25 12.5L18.75 8.71L18.75 4.69L12.5 4.69L12.5 8.71L6.25 12.5L6.25 14.06L25 14.06Z"  stroke="#000000" stroke-width="2" stroke-opacity="1" fill-opacity="0"></path>
<path d="M19.64 8.59L12.14 8.59"  stroke="#000000" stroke-width="2" stroke-opacity="1" fill-opacity="0"></path>
<path d="M21.55 28.13C21.55 28.81 20.99 29.36 20.31 29.36C19.63 29.36 19.08 28.81 19.08 28.13C19.08 27.44 19.63 26.89 20.31 26.89C20.99 26.89 21.55 27.44 21.55 28.13Z"  fill="#000000" fill-opacity="1"></path>
<path d="M21.88 31.25L21.88 40.63L9.38 40.63L9.38 31.25L21.88 31.25Z"  stroke="#000000" stroke-width="2" stroke-opacity="1" fill-opacity="0"></path>
<path d="M12.17 28.13C12.17 28.81 11.62 29.36 10.94 29.36C10.26 29.36 9.7 28.81 9.7 28.13C9.7 27.44 10.26 26.89 10.94 26.89C11.62 26.89 12.17 27.44 12.17 28.13Z"  fill="#000000" fill-opacity="1"></path>
<path d="M16.86 28.13C16.86 28.81 16.31 29.36 15.63 29.36C14.94 29.36 14.39 28.81 14.39 28.13C14.39 27.44 14.94 26.89 15.63 26.89C16.31 26.89 16.86 27.44 16.86 28.13Z"  fill="#000000" fill-opacity="1"></path>
<path d="M43.75 25L43.75 43.75L6.25 43.75L6.25 25L43.75 25Z"  stroke="#000000" stroke-width="2" stroke-opacity="1" fill-opacity="0"></path>
<path d="M36.72 28.13L32.03 28.13"  stroke="#000000" stroke-width="1" stroke-opacity="1" fill-opacity="0"></path>
<path d="M36.72 37.5L32.03 37.5"  stroke="#000000" stroke-width="1" stroke-opacity="1" fill-opacity="0"></path>
</g>
</svg>
