<svg xmlns="http://www.w3.org/2000/svg" viewBox="0 0 50 50" version="1.1">
<g>
<path d="M29.64 32.81C29.63 30.88 29.94 29.32 30.54 28.13C30.71 27.79 31.34 27.03 32.41 25.85C35.52 22.42 36.57 17.59 35.16 13.18C34.7 11.76 35.62 14.61 35.16 13.18C33.8 8.94 29.85 6.05 25.39 6.05C23.77 6.05 26.37 6.05 24.74 6.05C20.27 6.05 16.31 8.92 14.92 13.17C14.45 14.6 15.38 11.77 14.91 13.2C13.45 17.63 14.35 22.5 17.28 26.13C18.22 27.3 18.74 27.97 18.82 28.13C19.88 30.05 20.42 31.61 20.43 32.81"  stroke="#000000" stroke-width="2" stroke-opacity="1" fill-opacity="0"></path>
<path d="M30.47 36.33L19.56 36.33"  stroke="#000000" stroke-width="2" stroke-opacity="1" fill-opacity="0"></path>
<path d="M30.47 39.84L19.53 39.84"  stroke="#000000" stroke-width="2" stroke-opacity="1" fill-opacity="0"></path>
<path d="M28.85 43.36L21.15 43.36"  stroke="#000000" stroke-width="2" stroke-opacity="1" fill-opacity="0"></path>
</g>
</svg>
