<svg xmlns="http://www.w3.org/2000/svg" viewBox="0 0 50 50" version="1.1">
<g>
<path d="M16.42 30.53C16.42 33.74 13.92 36.34 10.84 36.34C7.76 36.34 5.26 33.74 5.26 30.53C5.26 27.33 7.76 24.72 10.84 24.72C13.92 24.72 16.42 27.33 16.42 30.53Z"  stroke="#000000" stroke-width="2" stroke-opacity="1" fill-opacity="0"></path>
<path d="M17.04 17.47C23.36 16.54 29.8 17.91 35.2 21.33C37.23 22.61 41.06 25.04 44.62 27.3C45.07 27.59 45.37 28.07 45.41 28.61C45.47 29.51 45.6 31.26 45.66 32.13C45.7 32.66 45.29 33.11 44.76 33.11C41.29 33.13 32.63 33.16 18.78 33.21C18.99 32.5 19.09 31.46 19.09 30.09C19.09 29.91 19.09 29.69 19.08 29.42C18.97 26.71 17.44 24.26 15.05 22.97C14.6 22.73 15.82 23.39 15.05 22.97C13.57 22.18 11.9 21.82 10.23 21.93C9.94 21.95 9.63 22 9.29 22.07C8.02 22.32 6.75 22.91 5.47 23.84C5.47 23.84 5.47 23.84 5.47 23.84C8.36 20.41 12.4 18.16 16.83 17.5C18.83 17.21 15.62 17.68 17.04 17.47Z"  stroke="#000000" stroke-width="2" stroke-opacity="1" fill-opacity="0"></path>
<path d="M42.76 33.21C42.37 34.13 42.12 34.7 42.02 34.93C41.11 37 38.17 37 37.26 34.93C37.16 34.7 36.91 34.13 36.51 33.21"  stroke="#000000" stroke-width="2" stroke-opacity="1" fill-opacity="0"></path>
</g>
</svg>
