<svg xmlns="http://www.w3.org/2000/svg" viewBox="0 0 50 50" version="1.1">
<g>
<path d="M34.51 21.22C34.51 24.42 37.01 27.03 40.09 27.03C43.17 27.03 45.67 24.42 45.67 21.22C45.67 18.01 43.17 15.41 40.09 15.41C37.01 15.41 34.51 18.01 34.51 21.22Z"  stroke="#000000" stroke-width="2" stroke-opacity="1" fill-opacity="0"></path>
<path d="M33.89 8.16C27.57 7.23 21.13 8.59 15.73 12.01C13.7 13.3 9.87 15.73 6.31 17.98C5.86 18.27 5.57 18.76 5.53 19.3C5.46 20.2 5.33 21.95 5.27 22.82C5.23 23.35 5.65 23.8 6.18 23.8C9.64 23.81 18.3 23.85 32.15 23.9C31.94 23.19 31.84 22.15 31.84 20.78C31.84 20.6 31.84 20.37 31.85 20.11C31.96 17.4 33.49 14.94 35.88 13.66C36.33 13.42 35.11 14.07 35.88 13.66C37.36 12.87 39.03 12.51 40.7 12.62C40.99 12.64 41.3 12.69 41.64 12.75C42.91 13 44.18 13.6 45.46 14.53C45.46 14.53 45.46 14.53 45.46 14.53C42.57 11.1 38.53 8.85 34.1 8.19C32.1 7.9 35.31 8.37 33.89 8.16Z"  stroke="#000000" stroke-width="2" stroke-opacity="1" fill-opacity="0"></path>
<path d="M8.17 23.9C8.57 24.82 8.82 25.39 8.92 25.62C9.82 27.69 12.76 27.69 13.67 25.62C13.77 25.39 14.02 24.82 14.42 23.9"  stroke="#000000" stroke-width="2" stroke-opacity="1" fill-opacity="0"></path>
<path d="M18.38 44.45L10.57 36.64L18.38 28.83"  stroke="#000000" stroke-width="2" stroke-opacity="1" fill-opacity="0"></path>
<path d=""  stroke="#000000" stroke-width="1" stroke-opacity="1" fill-opacity="0"></path>
<path d="M40.26 36.64L11.35 36.64"  stroke="#000000" stroke-width="2" stroke-opacity="1" fill-opacity="0"></path>
</g>
</svg>
