<svg xmlns="http://www.w3.org/2000/svg" viewBox="0 0 50 50" version="1.1">
<g>
<path d="M38.2 17.63C37.74 17.59 37.46 17.57 37.34 17.56C36.19 17.48 35.03 17.58 33.91 17.87C20.44 21.28 12.15 23.36 9.03 24.11C8.09 24.33 7.38 25.06 7.16 25.97C7.11 26.17 7.08 26.37 7.08 26.59C7.12 33.77 7.13 36.67 7.13 35.3C7.13 36.65 7.46 37.98 8.09 39.18C8.28 39.54 7.9 38.82 8.09 39.18C8.71 40.36 9.65 41.35 10.79 42.03C11.22 42.29 10.44 41.82 10.79 42.03C12.2 42.88 13.82 43.33 15.46 43.33C19.13 43.33 28.29 43.33 42.95 43.33L42.89 33.84C28.76 33.85 19.93 33.86 16.4 33.86C14.14 33.86 11.94 33.19 10.06 31.93C9.7 31.69 10.64 32.31 10.06 31.93C8.89 31.14 7.98 30.02 7.45 28.71C7.41 28.61 7.32 28.38 7.16 28L7.14 26.03"  stroke="#000000" stroke-width="2" stroke-opacity="1" fill-opacity="0"></path>
<path d="M17.64 38.53C17.64 39.39 16.94 40.09 16.07 40.09C15.21 40.09 14.51 39.39 14.51 38.53C14.51 37.67 15.21 36.97 16.07 36.97C16.94 36.97 17.64 37.67 17.64 38.53Z"  fill="#000000" fill-opacity="1"></path>
<path d="M24.67 38.53C24.67 39.39 23.97 40.09 23.1 40.09C22.24 40.09 21.54 39.39 21.54 38.53C21.54 37.67 22.24 36.97 23.1 36.97C23.97 36.97 24.67 37.67 24.67 38.53Z"  fill="#000000" fill-opacity="1"></path>
<path d="M31.7 38.53C31.7 39.39 31 40.09 30.14 40.09C29.27 40.09 28.57 39.39 28.57 38.53C28.57 37.67 29.27 36.97 30.14 36.97C31 36.97 31.7 37.67 31.7 38.53Z"  fill="#000000" fill-opacity="1"></path>
<path d="M38.73 38.53C38.73 39.39 38.03 40.09 37.17 40.09C36.3 40.09 35.6 39.39 35.6 38.53C35.6 37.67 36.3 36.97 37.17 36.97C38.03 36.97 38.73 37.67 38.73 38.53Z"  fill="#000000" fill-opacity="1"></path>
<path d="M11.39 32.75C11.73 32.79 11.95 32.82 12.04 32.83C13.39 32.98 14.76 32.89 16.08 32.56C29.59 29.19 37.89 27.13 40.97 26.39C41.91 26.17 42.62 25.44 42.84 24.53C42.89 24.33 42.92 24.13 42.92 23.91C42.88 16.73 42.87 13.83 42.87 15.2C42.87 13.85 42.54 12.52 41.91 11.32C41.72 10.96 42.1 11.68 41.91 11.32C41.29 10.14 40.35 9.15 39.21 8.47C38.78 8.21 39.56 8.68 39.21 8.47C37.8 7.62 36.18 7.17 34.54 7.17C30.87 7.17 21.71 7.17 7.05 7.17L7.11 16.66C21.24 16.65 30.07 16.64 33.6 16.64C35.86 16.64 38.06 17.31 39.94 18.57C40.3 18.81 39.36 18.19 39.94 18.57C41.11 19.36 42.02 20.48 42.55 21.79C42.59 21.89 42.68 22.12 42.84 22.5L42.86 24.47"  stroke="#000000" stroke-width="2" stroke-opacity="1" fill-opacity="0"></path>
<path d="M32.36 11.97C32.36 11.11 33.06 10.41 33.93 10.41C34.79 10.41 35.49 11.11 35.49 11.97C35.49 12.83 34.79 13.53 33.93 13.53C33.06 13.53 32.36 12.83 32.36 11.97Z"  fill="#000000" fill-opacity="1"></path>
<path d="M25.33 11.97C25.33 11.11 26.03 10.41 26.9 10.41C27.76 10.41 28.46 11.11 28.46 11.97C28.46 12.83 27.76 13.53 26.9 13.53C26.03 13.53 25.33 12.83 25.33 11.97Z"  fill="#000000" fill-opacity="1"></path>
<path d="M18.3 11.97C18.3 11.11 19 10.41 19.86 10.41C20.73 10.41 21.43 11.11 21.43 11.97C21.43 12.83 20.73 13.53 19.86 13.53C19 13.53 18.3 12.83 18.3 11.97Z"  fill="#000000" fill-opacity="1"></path>
<path d="M11.27 11.97C11.27 11.11 11.97 10.41 12.83 10.41C13.7 10.41 14.4 11.11 14.4 11.97C14.4 12.83 13.7 13.53 12.83 13.53C11.97 13.53 11.27 12.83 11.27 11.97Z"  fill="#000000" fill-opacity="1"></path>
<path d="M15.48 27.59C15.48 28.46 14.78 29.16 13.92 29.16C13.05 29.16 12.35 28.46 12.35 27.59C12.35 26.73 13.05 26.03 13.92 26.03C14.78 26.03 15.48 26.73 15.48 27.59Z"  fill="#000000" fill-opacity="1"></path>
<path d="M22.76 26.03C22.76 26.89 22.06 27.59 21.2 27.59C20.34 27.59 19.64 26.89 19.64 26.03C19.64 25.17 20.34 24.47 21.2 24.47C22.06 24.47 22.76 25.17 22.76 26.03Z"  fill="#000000" fill-opacity="1"></path>
<path d="M30.14 24.25C30.14 25.11 29.44 25.81 28.57 25.81C27.71 25.81 27.01 25.11 27.01 24.25C27.01 23.39 27.71 22.69 28.57 22.69C29.44 22.69 30.14 23.39 30.14 24.25Z"  fill="#000000" fill-opacity="1"></path>
<path d="M37.32 22.66C37.32 23.52 36.62 24.22 35.76 24.22C34.9 24.22 34.2 23.52 34.2 22.66C34.2 21.79 34.9 21.09 35.76 21.09C36.62 21.09 37.32 21.79 37.32 22.66Z"  fill="#000000" fill-opacity="1"></path>
</g>
</svg>
