<svg xmlns="http://www.w3.org/2000/svg" viewBox="0 0 50 50" version="1.1">
<g>
<path d="M35.98 21.72C36.75 21.72 37.38 22.35 37.38 23.12C37.38 26.62 37.38 35.73 37.38 39.23C37.38 40 36.75 40.63 35.98 40.63C31.29 40.63 18.61 40.63 13.91 40.63C13.14 40.63 12.51 40 12.51 39.23C12.51 35.73 12.51 26.62 12.51 23.12C12.51 22.35 13.14 21.72 13.91 21.72C18.61 21.72 31.29 21.72 35.98 21.72Z"  stroke="#000000" stroke-width="2" stroke-opacity="1" fill-opacity="0"></path>
<path d="M33.22 21.88C33.22 18.54 33.22 16.46 33.22 15.62C33.22 12.57 31.7 9.72 29.16 8.03C28.35 7.48 29.97 8.57 29.16 8.03C26.7 6.38 23.49 6.36 21.01 7.98C20.17 8.53 21.72 7.52 20.87 8.07C18.32 9.74 16.78 12.58 16.78 15.62C16.78 16.46 16.78 18.54 16.78 21.88"  stroke="#000000" stroke-width="2" stroke-opacity="1" fill-opacity="0"></path>
</g>
</svg>
