<svg xmlns="http://www.w3.org/2000/svg" viewBox="0 0 50 50" version="1.1">
<g>
<path d="M17.46 45.7L10.16 45.7L10.16 26.56"  stroke="#000000" stroke-width="2" stroke-opacity="1" fill-opacity="0"></path>
<path d="M15.82 30.83C16.28 30.4 16.56 30.12 16.68 30.02C17.21 29.51 17.79 29.06 18.41 28.66C18.6 28.54 18.24 28.77 18.43 28.65C19.05 28.25 19.71 27.93 20.4 27.69C20.72 27.58 20.65 27.6 20.98 27.49C21.67 27.25 22.39 27.08 23.11 27C23.48 26.95 23.47 26.96 23.83 26.91C24.56 26.83 25.3 26.81 26.03 26.87C26.39 26.9 26.38 26.9 26.75 26.93C27.48 26.99 28.2 27.14 28.89 27.38C29.16 27.48 28.95 27.4 29.23 27.5C29.92 27.74 30.59 28.05 31.22 28.41C31.47 28.56 31.25 28.43 31.5 28.57C32.13 28.94 32.73 29.37 33.27 29.86C33.4 29.96 33.7 30.23 34.18 30.66"  stroke="#000000" stroke-width="2" stroke-opacity="1" fill-opacity="0"></path>
<path d="M18.79 33.65C19.11 33.35 19.31 33.16 19.39 33.09C19.76 32.74 20.16 32.42 20.59 32.15C20.72 32.06 20.47 32.22 20.61 32.14C21.03 31.86 21.49 31.64 21.97 31.47C22.19 31.39 22.15 31.41 22.37 31.33C22.85 31.17 23.35 31.05 23.85 30.99C24.1 30.96 24.1 30.96 24.35 30.93C24.85 30.87 25.36 30.86 25.87 30.91C26.12 30.93 26.12 30.93 26.37 30.95C26.88 30.99 27.38 31.09 27.86 31.26C28.05 31.33 27.9 31.27 28.09 31.34C28.57 31.51 29.04 31.72 29.48 31.98C29.65 32.07 29.49 31.99 29.66 32.09C30.1 32.34 30.52 32.64 30.9 32.98C30.98 33.05 31.19 33.24 31.53 33.53"  stroke="#000000" stroke-width="2" stroke-opacity="1" fill-opacity="0"></path>
<path d="M21.51 36.72C21.69 36.55 21.8 36.44 21.85 36.4C22.06 36.2 22.29 36.02 22.53 35.87C22.6 35.82 22.46 35.91 22.54 35.86C22.78 35.7 23.04 35.58 23.31 35.48C23.44 35.44 23.41 35.45 23.54 35.4C23.81 35.31 24.1 35.24 24.38 35.21C24.53 35.19 24.52 35.19 24.67 35.17C24.95 35.14 25.24 35.13 25.53 35.16C25.68 35.17 25.67 35.17 25.82 35.18C26.11 35.21 26.39 35.27 26.66 35.36C26.77 35.4 26.69 35.37 26.8 35.41C27.07 35.5 27.33 35.62 27.58 35.77C27.68 35.82 27.59 35.77 27.69 35.83C27.94 35.97 28.18 36.14 28.39 36.34C28.44 36.38 28.56 36.48 28.75 36.65"  stroke="#000000" stroke-width="2" stroke-opacity="1" fill-opacity="0"></path>
<path d="M44.41 24.88C44.48 24.95 44.48 25.05 44.41 25.12C43.81 25.72 42.13 27.41 41.52 28.01C41.46 28.07 41.35 28.07 41.29 28.01C38.03 24.75 28.38 15.09 25.12 11.84C25.05 11.77 24.95 11.77 24.88 11.84C21.62 15.09 11.97 24.75 8.71 28.01C8.65 28.07 8.54 28.07 8.48 28.01C7.87 27.41 6.19 25.72 5.59 25.12C5.52 25.05 5.52 24.95 5.59 24.88C9.47 21 21 9.47 24.88 5.59C24.95 5.52 25.05 5.52 25.12 5.59C29 9.47 40.53 21 44.41 24.88Z"  stroke="#000000" stroke-width="2" stroke-opacity="1" fill-opacity="0"></path>
<path d="M39.84 26.56L39.84 45.7L25 45.7L25 39.06"  stroke="#000000" stroke-width="2" stroke-opacity="1" fill-opacity="0"></path>
<path d="M26.74 39.73C26.74 40.63 25.96 41.37 25 41.37C24.04 41.37 23.26 40.63 23.26 39.73C23.26 38.82 24.04 38.09 25 38.09C25.96 38.09 26.74 38.82 26.74 39.73Z"  fill="#1a101a" fill-opacity="1"></path>
</g>
</svg>
