<svg xmlns="http://www.w3.org/2000/svg" viewBox="0 0 50 50" version="1.1">
<g>
<path d="M14.06 11.28C13.23 11.41 12.71 11.49 12.5 11.52C11.47 11.69 10.49 12.06 9.61 12.64C9.25 12.87 9.37 12.8 8.97 13.05C8.2 13.55 7.53 14.19 6.98 14.92C6.71 15.27 6.82 15.13 6.57 15.46C5.96 16.27 5.51 17.19 5.25 18.17C5.14 18.6 5.18 18.46 5.06 18.9C4.81 19.84 4.69 20.8 4.69 21.77C4.69 23.87 4.69 29.11 4.69 37.5L37.5 37.5"  stroke="#000000" stroke-width="2" stroke-opacity="1" fill-opacity="0"></path>
<path d="M14.06 11.28C14.9 11.41 15.42 11.49 15.62 11.52C16.65 11.69 17.64 12.06 18.51 12.64C18.87 12.87 18.76 12.8 19.15 13.05C19.92 13.55 20.59 14.19 21.15 14.92C21.41 15.27 21.31 15.13 21.56 15.46C22.17 16.27 22.61 17.19 22.87 18.17C22.98 18.6 22.95 18.46 23.07 18.9C23.31 19.84 23.44 20.8 23.44 21.77C23.44 23.87 23.44 29.11 23.44 37.5"  stroke="#000000" stroke-width="2" stroke-opacity="1" fill-opacity="0"></path>
<path d="M13.65 11.28L35.94 11.28C36.77 11.41 37.29 11.49 37.5 11.52C38.53 11.69 39.51 12.06 40.39 12.64C40.75 12.87 40.63 12.8 41.03 13.05C41.8 13.55 42.47 14.19 43.02 14.92C43.29 15.27 43.18 15.13 43.43 15.46C44.04 16.27 44.49 17.19 44.75 18.17C44.86 18.6 44.82 18.46 44.94 18.9C45.19 19.84 45.31 20.8 45.31 21.77C45.31 23.87 45.31 29.11 45.31 37.5L37.5 37.5"  stroke="#000000" stroke-width="2" stroke-opacity="1" fill-opacity="0"></path>
<path d="M20.31 33.39L7.58 33.39"  stroke="#000000" stroke-width="2" stroke-opacity="1" fill-opacity="0"></path>
<path d="M20.31 45.31L20.31 37.5"  stroke="#000000" stroke-width="2" stroke-opacity="1" fill-opacity="0"></path>
<path d="M29.69 45.31L29.69 37.5"  stroke="#000000" stroke-width="2" stroke-opacity="1" fill-opacity="0"></path>
<path d="M35.94 18.75L35.94 26.56L40.63 26.56L40.63 18.75L26.56 18.75"  stroke="#000000" stroke-width="2" stroke-opacity="1" fill-opacity="0"></path>
</g>
</svg>
