<svg xmlns="http://www.w3.org/2000/svg" viewBox="0 0 50 50" version="1.1">
<g>
<path d="M43.75 7.81L43.75 42.19L6.25 42.19L6.25 7.81L43.75 7.81Z"  stroke="#000000" stroke-width="2" stroke-opacity="1" fill-opacity="0"></path>
<path d="M39.06 20.31L39.06 37.5L10.94 37.5L10.94 20.31L39.06 20.31Z"  stroke="#000000" stroke-width="2" stroke-opacity="1" fill-opacity="0"></path>
<path d="M28.12 14.06C28.12 15.79 26.72 17.19 25 17.19C23.28 17.19 21.88 15.79 21.88 14.06C21.88 12.34 23.28 10.94 25 10.94C26.72 10.94 28.12 12.34 28.12 14.06Z"  stroke="#000000" stroke-width="2" stroke-opacity="1" fill-opacity="0"></path>
<path d="M17.43 29.06C17.56 29.06 17.64 29.06 17.68 29.06C18.42 29.06 19.15 29.2 19.84 29.48C20.46 29.72 20.67 29.8 21.13 29.99C22.27 30.44 23.57 30.31 24.59 29.64C25.21 29.23 25.33 29.15 25.93 28.76C27.01 28.05 28.38 27.93 29.57 28.43C29.87 28.56 29.79 28.53 30.33 28.75C30.81 28.96 31.34 29.06 31.87 29.06C31.97 29.06 32.2 29.06 32.57 29.06"  stroke="#000000" stroke-width="2" stroke-opacity="1" fill-opacity="0"></path>
<path d="M17.43 32.75C17.56 32.75 17.64 32.75 17.68 32.75C18.42 32.75 19.15 32.89 19.84 33.16C20.46 33.41 20.67 33.49 21.13 33.68C22.27 34.13 23.57 34 24.59 33.32C25.21 32.92 25.33 32.84 25.93 32.45C27.01 31.74 28.38 31.62 29.57 32.12C29.87 32.25 29.79 32.21 30.33 32.44C30.81 32.65 31.34 32.75 31.87 32.75C31.97 32.75 32.2 32.75 32.57 32.75"  stroke="#000000" stroke-width="2" stroke-opacity="1" fill-opacity="0"></path>
<path d="M17.43 25.38C17.56 25.38 17.64 25.38 17.68 25.38C18.42 25.38 19.15 25.52 19.84 25.79C20.46 26.04 20.67 26.12 21.13 26.3C22.27 26.75 23.57 26.62 24.59 25.95C25.21 25.55 25.33 25.46 25.93 25.07C27.01 24.36 28.38 24.24 29.57 24.74C29.87 24.87 29.79 24.84 30.33 25.06C30.81 25.27 31.34 25.38 31.87 25.38C31.97 25.38 32.2 25.38 32.57 25.38"  stroke="#000000" stroke-width="2" stroke-opacity="1" fill-opacity="0"></path>
</g>
</svg>
