<svg xmlns="http://www.w3.org/2000/svg" viewBox="0 0 50 50" version="1.1">
<g>
<path d="M28.28 25C28.28 26.81 26.81 28.28 25 28.28C23.19 28.28 21.72 26.81 21.72 25C21.72 23.19 23.19 21.72 25 21.72C26.81 21.72 28.28 23.19 28.28 25Z"  stroke="#000000" stroke-width="0" stroke-opacity="1" fill="#000000" fill-opacity="1"></path>
<path d="M28.28 12.5C28.28 14.31 26.81 15.78 25 15.78C23.19 15.78 21.72 14.31 21.72 12.5C21.72 10.69 23.19 9.22 25 9.22C26.81 9.22 28.28 10.69 28.28 12.5Z"  stroke="#000000" stroke-width="0" stroke-opacity="1" fill="#000000" fill-opacity="1"></path>
<path d="M28.28 37.5C28.28 39.31 26.81 40.78 25 40.78C23.19 40.78 21.72 39.31 21.72 37.5C21.72 35.69 23.19 34.22 25 34.22C26.81 34.22 28.28 35.69 28.28 37.5Z"  stroke="#000000" stroke-width="0" stroke-opacity="1" fill="#000000" fill-opacity="1"></path>
</g>
</svg>
