<svg xmlns="http://www.w3.org/2000/svg" viewBox="0 0 50 50" version="1.1">
<g>
<path d="M42.97 26.56L42.97 42.19L28.91 42.19L28.91 26.56L42.97 26.56Z"  stroke="#000000" stroke-width="2" stroke-opacity="1" fill-opacity="0"></path>
<path d="M38.28 29.69L33.59 29.69"  stroke="#000000" stroke-width="1" stroke-opacity="1" fill-opacity="0"></path>
<path d="M42.97 34.38L28.91 34.38"  stroke="#000000" stroke-width="2" stroke-opacity="1" fill-opacity="0"></path>
<path d="M38.28 37.5L33.59 37.5"  stroke="#000000" stroke-width="1" stroke-opacity="1" fill-opacity="0"></path>
<path d="M30.47 45.31L30.47 42.19"  stroke="#000000" stroke-width="2" stroke-opacity="1" fill-opacity="0"></path>
<path d="M41.41 45.31L41.41 42.19"  stroke="#000000" stroke-width="2" stroke-opacity="1" fill-opacity="0"></path>
<path d="M28.91 26.56L5.47 26.56L5.47 23.44L44.53 23.44L44.53 26.56L42.97 26.56"  stroke="#000000" stroke-width="2" stroke-opacity="1" fill-opacity="0"></path>
<path d="M7.03 45.31L7.03 26.56"  stroke="#000000" stroke-width="2" stroke-opacity="1" fill-opacity="0"></path>
<path d="M24.62 5.1C24.83 5.1 25 5.27 25 5.48C25 8.22 25 16.04 25 18.77C25 18.99 24.83 19.16 24.62 19.16C20.94 19.16 10.31 19.16 6.63 19.16C6.42 19.16 6.25 18.99 6.25 18.77C6.25 16.04 6.25 8.22 6.25 5.48C6.25 5.27 6.42 5.1 6.63 5.1C10.31 5.1 20.94 5.1 24.62 5.1Z"  stroke="#000000" stroke-width="2" stroke-opacity="1" fill-opacity="0"></path>
<path d="M14.06 23.44L14.06 18.75"  stroke="#000000" stroke-width="2" stroke-opacity="1" fill-opacity="0"></path>
<path d="M17.19 23.78L17.19 19.09"  stroke="#000000" stroke-width="2" stroke-opacity="1" fill-opacity="0"></path>
<path d="M25 15.63L6.25 15.63"  stroke="#000000" stroke-width="1" stroke-opacity="1" fill-opacity="0"></path>
<path d="M34.38 23.44L34.38 10.94L31.25 10.94L31.25 23.44L34.38 23.44Z"  stroke="#000000" stroke-width="2" stroke-opacity="1" fill-opacity="0"></path>
<path d="M44.1 23.12L42.15 10.77L39.06 11.26L40.96 23.19L44.1 23.12Z"  stroke="#000000" stroke-width="2" stroke-opacity="1" fill-opacity="0"></path>
<path d="M37.5 23.44L37.5 10.94L34.38 10.94"  stroke="#000000" stroke-width="2" stroke-opacity="1" fill-opacity="0"></path>
</g>
</svg>
