<svg xmlns="http://www.w3.org/2000/svg" viewBox="0 0 50 50" version="1.1">
<g>
<path d="M29.52 9.25L27.01 7.53L24.71 9.71L26.44 12.32L25.85 13.86L22.74 14.42L22.74 17.62L25.82 18.21L26.48 19.81L24.71 22.36L27.01 24.52L29.55 22.79L31.05 23.44L31.61 26.56L34.78 26.56L35.4 23.44L37 22.75L39.55 24.52L41.78 22.3L39.98 19.67L40.63 18.14L43.75 17.62L43.75 14.42L40.57 13.86L39.98 12.32L41.78 9.71L39.48 7.53L36.86 9.28L35.34 8.63L34.81 5.56L31.61 5.56L31.09 8.63L29.52 9.25Z"  stroke="#000000" stroke-width="2" stroke-opacity="1" fill-opacity="0"></path>
<path d="M37.03 16.06C37.03 18.15 35.34 19.84 33.25 19.84C31.16 19.84 29.46 18.15 29.46 16.06C29.46 13.97 31.16 12.28 33.25 12.28C35.34 12.28 37.03 13.97 37.03 16.06Z"  stroke="#000000" stroke-width="2" stroke-opacity="1" fill-opacity="0"></path>
<path d="M24.49 36.22C28.38 36.27 30.82 36.29 31.79 36.31C32.55 36.31 33.26 35.93 33.67 35.28C33.81 35.06 33.54 35.49 33.67 35.28C34.08 34.62 34.07 33.78 33.62 33.14C33.48 32.94 33.77 33.35 33.62 33.14C33.18 32.5 32.46 32.11 31.68 32.08C30.25 32.03 27.08 31.93 25.61 31.88C24.87 31.85 24.14 31.7 23.45 31.43C22.33 31 20.6 30.33 19.63 29.95C18.48 29.51 17.22 29.48 16.05 29.87C15.46 30.06 13.96 30.56 11.57 31.36"  stroke="#000000" stroke-width="2" stroke-opacity="1" fill-opacity="0"></path>
<path d="M33.58 35.03C36.85 34.15 38.89 33.6 39.71 33.38C40.29 33.23 40.9 33.27 41.44 33.52C41.69 33.63 41.27 33.44 41.44 33.52C42.18 33.85 42.63 34.62 42.54 35.43C42.52 35.68 42.57 35.16 42.54 35.43C42.46 36.18 41.95 36.82 41.23 37.07C38.19 38.09 30.6 40.63 27.65 41.62C26.59 41.97 25.45 41.96 24.4 41.57C23.48 41.23 21.19 40.39 17.53 39.04L15.72 39.53"  stroke="#000000" stroke-width="2" stroke-opacity="1" fill-opacity="0"></path>
<path d="M5.89 31.78L10.52 29.52L16.48 41.74L11.85 43.99L5.89 31.78Z"  stroke="#000000" stroke-width="2" stroke-opacity="1" fill-opacity="0"></path>
</g>
</svg>
