<svg xmlns="http://www.w3.org/2000/svg" viewBox="0 0 50 50" version="1.1">
<g>
<path d="M24.9 15.63C24.9 15.52 24.9 15.45 24.9 15.43C24.9 14.84 25.01 14.26 25.23 13.71C25.42 13.21 25.49 13.05 25.63 12.68C25.99 11.78 25.89 10.75 25.35 9.94C25.04 9.45 24.97 9.35 24.66 8.88C24.1 8.02 24 6.93 24.4 5.99C24.5 5.75 24.47 5.81 24.65 5.39C24.82 5 24.9 4.58 24.9 4.16C24.9 4.09 24.9 3.9 24.9 3.6"  stroke="#000000" stroke-width="2" stroke-opacity="1" fill-opacity="0"></path>
<path d="M29.47 15.63C29.47 15.52 29.47 15.45 29.47 15.43C29.47 14.84 29.58 14.26 29.8 13.71C29.99 13.21 30.06 13.05 30.2 12.68C30.56 11.78 30.46 10.75 29.92 9.94C29.61 9.45 29.54 9.35 29.23 8.88C28.67 8.02 28.57 6.93 28.97 5.99C29.07 5.75 29.04 5.81 29.22 5.39C29.39 5 29.47 4.58 29.47 4.16C29.47 4.09 29.47 3.9 29.47 3.6"  stroke="#000000" stroke-width="2" stroke-opacity="1" fill-opacity="0"></path>
<path d="M20.33 15.63C20.33 15.52 20.33 15.45 20.33 15.43C20.33 14.84 20.44 14.26 20.66 13.71C20.85 13.21 20.92 13.05 21.06 12.68C21.42 11.78 21.32 10.75 20.78 9.94C20.47 9.45 20.4 9.35 20.09 8.88C19.53 8.02 19.43 6.93 19.83 5.99C19.93 5.75 19.9 5.81 20.08 5.39C20.25 5 20.33 4.58 20.33 4.16C20.33 4.09 20.33 3.9 20.33 3.6"  stroke="#000000" stroke-width="2" stroke-opacity="1" fill-opacity="0"></path>
<path d="M45.19 18.75C46.12 18.75 46.87 19.5 46.87 20.44C46.87 25.1 46.87 37.4 46.87 42.06C46.87 43 46.12 43.75 45.19 43.75C36.78 43.75 13.22 43.75 4.81 43.75C3.88 43.75 3.12 43 3.12 42.06C3.12 37.4 3.12 25.1 3.12 20.44C3.12 19.5 3.88 18.75 4.81 18.75C13.22 18.75 36.78 18.75 45.19 18.75Z"  stroke="#000000" stroke-width="2" stroke-opacity="1" fill-opacity="0"></path>
<path d="M9.11 23.32C9.11 24.12 8.47 24.77 7.68 24.77C6.89 24.77 6.25 24.12 6.25 23.32C6.25 22.52 6.89 21.88 7.68 21.88C8.47 21.88 9.11 22.52 9.11 23.32Z"  fill="#000000" fill-opacity="1"></path>
<path d="M43.75 23.32C43.75 24.12 43.11 24.77 42.32 24.77C41.53 24.77 40.89 24.12 40.89 23.32C40.89 22.52 41.53 21.88 42.32 21.88C43.11 21.88 43.75 22.52 43.75 23.32Z"  fill="#000000" fill-opacity="1"></path>
<path d="M9.11 39.18C9.11 39.98 8.47 40.63 7.68 40.63C6.89 40.63 6.25 39.98 6.25 39.18C6.25 38.38 6.89 37.73 7.68 37.73C8.47 37.73 9.11 38.38 9.11 39.18Z"  fill="#000000" fill-opacity="1"></path>
<path d="M43.75 39.18C43.75 39.98 43.11 40.63 42.32 40.63C41.53 40.63 40.89 39.98 40.89 39.18C40.89 38.38 41.53 37.73 42.32 37.73C43.11 37.73 43.75 38.38 43.75 39.18Z"  fill="#000000" fill-opacity="1"></path>
</g>
</svg>
