<svg xmlns="http://www.w3.org/2000/svg" viewBox="0 0 50 50" version="1.1">
<g>
<path d="M12.7 16.9C12.29 17.85 12.09 18.86 12.09 19.89C12.09 20.3 12.09 20.03 12.09 20.45C12.09 21.35 12.59 22.17 13.4 22.57C13.69 22.72 13.37 22.56 13.7 22.72C14.42 23.08 15.27 23.08 15.99 22.72C16.31 22.56 16.01 22.71 16.3 22.57C17.1 22.17 17.6 21.36 17.6 20.47C17.6 20.04 17.6 20.32 17.6 19.92C17.6 18.87 17.39 17.84 16.99 16.87C16.84 16.5 16.88 16.61 16.7 16.18C16.7 16.18 15.67 13.91 15.67 13.91C15.56 13.69 15.28 13.15 14.84 12.27C14.28 13.42 13.93 14.14 13.79 14.43C13.79 14.43 13.18 15.76 13.18 15.76C12.96 16.27 12.85 16.54 12.7 16.9Z"  stroke="#000000" stroke-width="2" stroke-opacity="1" fill-opacity="0"></path>
<path d="M33.01 24.71C32.61 25.66 32.4 26.68 32.4 27.7C32.4 28.11 32.4 27.84 32.4 28.27C32.4 29.16 32.91 29.98 33.71 30.39C34 30.53 33.69 30.37 34.01 30.53C34.73 30.9 35.58 30.9 36.3 30.53C36.63 30.37 36.32 30.53 36.61 30.38C37.41 29.98 37.91 29.17 37.91 28.28C37.91 27.85 37.91 28.13 37.91 27.73C37.91 26.69 37.71 25.65 37.3 24.68C37.15 24.31 37.19 24.42 37.01 23.99C37.01 23.99 35.98 21.73 35.98 21.73C35.87 21.51 35.59 20.96 35.16 20.08C34.59 21.23 34.24 21.95 34.1 22.24C34.1 22.24 33.49 23.57 33.49 23.57C33.27 24.09 33.16 24.35 33.01 24.71Z"  stroke="#000000" stroke-width="2" stroke-opacity="1" fill-opacity="0"></path>
<path d="M20.51 34.76C20.11 35.71 19.9 36.73 19.9 37.75C19.9 38.16 19.9 37.89 19.9 38.31C19.9 39.21 20.41 40.03 21.21 40.44C21.5 40.58 21.19 40.42 21.51 40.58C22.23 40.95 23.08 40.95 23.8 40.58C24.13 40.42 23.82 40.58 24.11 40.43C24.91 40.03 25.41 39.22 25.41 38.33C25.41 37.9 25.41 38.18 25.41 37.78C25.41 36.74 25.21 35.7 24.8 34.73C24.65 34.36 24.69 34.47 24.51 34.04C24.51 34.04 23.48 31.78 23.48 31.78C23.37 31.56 23.09 31.01 22.66 30.13C22.09 31.28 21.74 32 21.6 32.29C21.6 32.29 20.99 33.62 20.99 33.62C20.77 34.14 20.66 34.4 20.51 34.76Z"  stroke="#000000" stroke-width="2" stroke-opacity="1" fill-opacity="0"></path>
</g>
</svg>
