<svg xmlns="http://www.w3.org/2000/svg" viewBox="0 0 50 50" version="1.1">
<g>
<path d="M28.13 10.22L21.88 5.54L21.88 14.91L28.13 10.22Z"  stroke="#000000" stroke-width="0" stroke-opacity="1" fill="#000000" fill-opacity="1"></path>
<path d="M23.7 9.95C22.31 10.28 21.44 10.5 21.09 10.58C18.25 11.27 15.69 12.82 13.76 15.01C13.28 15.56 14.35 14.34 13.76 15.01C12.18 16.81 11.05 18.97 10.48 21.29C10.27 22.14 10.66 20.58 10.48 21.29C9.8 24.06 9.92 26.96 10.81 29.67C11.12 30.6 10.54 28.84 10.81 29.67C11.81 32.67 13.73 35.29 16.29 37.14C16.6 37.37 17.39 37.94 18.65 38.86"  stroke="#000000" stroke-width="2" stroke-opacity="1" fill-opacity="0"></path>
<path d="M21.88 39.75L28.13 44.44L28.13 35.07L21.88 39.75Z"  stroke="#000000" stroke-width="0" stroke-opacity="1" fill="#000000" fill-opacity="1"></path>
<path d="M26.3 40.05C27.69 39.72 28.56 39.5 28.91 39.42C31.75 38.73 34.31 37.18 36.24 34.99C36.72 34.44 35.65 35.66 36.24 34.99C37.82 33.19 38.95 31.03 39.52 28.71C39.73 27.86 39.34 29.42 39.52 28.71C40.2 25.94 40.08 23.04 39.19 20.33C38.88 19.4 39.46 21.16 39.19 20.33C38.19 17.33 36.27 14.71 33.71 12.86C33.4 12.63 32.61 12.06 31.35 11.14"  stroke="#000000" stroke-width="2" stroke-opacity="1" fill-opacity="0"></path>
</g>
</svg>
