<svg xmlns="http://www.w3.org/2000/svg" viewBox="0 0 50 50" version="1.1">
<g>
<path d="M44.14 19.44C44.14 19.07 44.14 18.78 44.14 18.56C44.11 16.75 43.52 14.79 42.39 12.69C40.83 9.8 38.34 7.52 35.31 6.23C33.52 5.47 31.94 5.07 30.6 5.04C30.27 5.04 30 5.04 29.77 5.04"  stroke="#000000" stroke-width="2" stroke-opacity="1" fill-opacity="0"></path>
<path d="M38.24 19.47C38.24 19.25 38.24 19.08 38.24 18.95C38.22 17.89 37.88 16.75 37.22 15.52C36.31 13.83 34.85 12.49 33.08 11.74C32.03 11.29 31.11 11.06 30.32 11.04C30.21 11.05 30.05 11.05 29.84 11.04"  stroke="#000000" stroke-width="2" stroke-opacity="1" fill-opacity="0"></path>
<path d="M36.14 24.24C36.39 24.49 36.39 24.91 36.14 25.17C32.47 28.83 21.95 39.36 18.29 43.02C18.03 43.28 17.61 43.28 17.35 43.02C15.2 40.86 9.21 34.87 7.05 32.72C6.79 32.46 6.79 32.04 7.05 31.78C10.71 28.12 21.23 17.6 24.9 13.93C25.16 13.68 25.58 13.68 25.83 13.93C27.99 16.09 33.98 22.08 36.14 24.24Z"  stroke="#000000" stroke-width="2" stroke-opacity="1" fill-opacity="0"></path>
<path d="M28.87 28.02C27.04 29.85 24.07 29.85 22.24 28.02C20.41 26.19 20.41 23.22 22.24 21.39C24.07 19.56 27.04 19.56 28.87 21.39C30.7 23.22 30.7 26.19 28.87 28.02Z"  stroke="#000000" stroke-width="2" stroke-opacity="1" fill-opacity="0"></path>
<path d="M17.82 30.23C17.21 30.84 16.22 30.84 15.61 30.23C15 29.62 15 28.63 15.61 28.02C16.22 27.41 17.21 27.41 17.82 28.02C18.43 28.63 18.43 29.62 17.82 30.23Z"  fill="#000000" fill-opacity="1"></path>
<path d="M22.24 34.65C21.63 35.26 20.64 35.26 20.03 34.65C19.42 34.04 19.42 33.05 20.03 32.44C20.64 31.83 21.63 31.83 22.24 32.44C22.85 33.05 22.85 34.04 22.24 34.65Z"  fill="#000000" fill-opacity="1"></path>
<path d="M18.93 37.96C18.32 38.57 17.33 38.57 16.72 37.96C16.11 37.35 16.11 36.36 16.72 35.75C17.33 35.14 18.32 35.14 18.93 35.75C19.54 36.36 19.54 37.35 18.93 37.96Z"  fill="#000000" fill-opacity="1"></path>
<path d="M14.51 33.54C13.9 34.15 12.91 34.15 12.3 33.54C11.69 32.93 11.69 31.94 12.3 31.33C12.91 30.72 13.9 30.72 14.51 31.33C15.12 31.94 15.12 32.93 14.51 33.54Z"  fill="#000000" fill-opacity="1"></path>
</g>
</svg>
