<svg xmlns="http://www.w3.org/2000/svg" viewBox="0 0 50 50" version="1.1">
<g>
<path d="M12.5 35.38L18.75 40.06L18.75 30.69L12.5 35.38Z"  stroke="#000000" stroke-width="0" stroke-opacity="1" fill="#000000" fill-opacity="1"></path>
<path d="M21.88 14.53C19.84 14.53 18.56 14.53 18.05 14.53C16.21 14.53 14.39 14.97 12.75 15.8C12.1 16.13 13.45 15.44 13 15.67C10.76 16.8 9.1 18.82 8.42 21.23C8.3 21.68 8.67 20.35 8.47 21.08C8.02 22.68 7.9 24.35 8.11 26C8.18 26.5 8.34 27.77 8.61 29.8"  stroke="#000000" stroke-width="2" stroke-opacity="1" fill-opacity="0"></path>
<path d="M43.09 15.99C43.09 20.8 39.18 24.7 34.38 24.7C29.57 24.7 25.66 20.8 25.66 15.99C25.66 11.18 29.57 7.28 34.38 7.28C39.18 7.28 43.09 11.18 43.09 15.99Z"  stroke="#000000" stroke-width="0" stroke-opacity="1" fill="#000000" fill-opacity="1"></path>
<path d="M18.36 35.38C25.45 35.38 29.88 35.38 31.65 35.38C33.84 35.38 35.99 34.87 37.94 33.89C38.5 33.6 36.78 34.47 37.23 34.25C39.46 33.12 41.12 31.1 41.8 28.69C41.88 28.39 42.1 27.63 42.44 26.41"  stroke="#000000" stroke-width="2" stroke-opacity="1" fill-opacity="0"></path>
<path d="M34.33 10.64L35.41 10.64L35.41 20.6L34.34 20.61L34.34 11.83L32.43 13.44L31.81 12.66L34.33 10.64Z"  fill="#ffffff" fill-opacity="1"></path>
</g>
</svg>
