<svg xmlns="http://www.w3.org/2000/svg" viewBox="0 0 50 50" version="1.1">
<g>
<path d="M12.5 35.38L18.75 40.06L18.75 30.69L12.5 35.38Z"  stroke="#000000" stroke-width="0" stroke-opacity="1" fill="#000000" fill-opacity="1"></path>
<path d="M18.36 35.4C25.45 35.4 29.88 35.4 31.65 35.4C33.84 35.4 35.99 34.89 37.94 33.9C38.5 33.62 36.78 34.49 37.23 34.26C39.46 33.14 41.12 31.12 41.8 28.71C41.93 28.25 41.55 29.58 41.76 28.85C42.21 27.26 42.33 25.58 42.11 23.94C42.05 23.43 41.88 22.16 41.62 20.13"  stroke="#000000" stroke-width="2" stroke-opacity="1" fill-opacity="0"></path>
<path d="M37.5 14.63L31.25 9.94L31.25 19.32L37.5 14.63Z"  stroke="#000000" stroke-width="0" stroke-opacity="1" fill="#000000" fill-opacity="1"></path>
<path d="M31.89 14.63C24.8 14.59 20.37 14.57 18.6 14.56C16.41 14.54 14.26 15.05 12.3 16.03C11.75 16.32 13.47 15.45 13.02 15.67C10.78 16.8 9.12 18.82 8.45 21.23C8.32 21.68 8.69 20.35 8.49 21.08C8.04 22.68 7.92 24.35 8.13 26C8.2 26.51 8.37 27.77 8.63 29.81"  stroke="#000000" stroke-width="2" stroke-opacity="1" fill-opacity="0"></path>
</g>
</svg>
