<svg xmlns="http://www.w3.org/2000/svg" viewBox="0 0 50 50" version="1.1">
<g>
<path d="M25 37.5C30.5 37.5 31.87 37.5 33.59 37.5C35.22 37.5 36.82 37.07 38.24 36.26C38.76 35.96 38.04 36.37 38.53 36.09C40.06 35.22 41.33 33.96 42.24 32.46C42.52 31.99 41.96 32.92 42.24 32.46C43.16 30.93 43.75 29.24 43.99 27.48C44.06 26.99 43.92 28.02 43.99 27.48C44.21 25.84 44.1 24.18 43.66 22.59C43.49 22 43.66 22.58 43.49 21.98C43.06 20.44 42.3 19 41.27 17.78C41.03 17.5 41.58 18.15 41.27 17.78C40.5 16.87 39.57 16.11 38.54 15.53C38.02 15.23 38.49 15.5 38.09 15.27C36.68 14.48 35.09 14.06 33.47 14.06C29.95 14.06 21.13 14.06 7.03 14.06"  stroke="#000000" stroke-width="2" stroke-opacity="1" fill-opacity="0"></path>
<path d="M14.84 21.88L7.03 14.06L14.84 6.25"  stroke="#000000" stroke-width="2" stroke-opacity="1" fill-opacity="0"></path>
</g>
</svg>
