<svg xmlns="http://www.w3.org/2000/svg" viewBox="0 0 50 50" version="1.1">
<g>
<path d="M18.34 12.85L13.87 9.77L9.77 13.66L12.85 18.33L11.8 21.08L6.25 22.07L6.25 27.79L11.74 28.84L12.91 31.7L9.77 36.25L13.87 40.1L18.4 37.01L21.08 38.18L22.07 43.75L27.74 43.75L28.85 38.18L31.71 36.95L36.26 40.1L40.23 36.13L37.02 31.45L38.18 28.72L43.75 27.79L43.75 22.07L38.07 21.08L37.02 18.33L40.23 13.66L36.13 9.77L31.45 12.9L28.73 11.74L27.8 6.25L22.07 6.25L21.14 11.74L18.34 12.85Z"  stroke="#000000" stroke-width="2" stroke-opacity="1" fill-opacity="0"></path>
<path d="M31.76 25C31.76 28.73 28.73 31.76 25 31.76C21.27 31.76 18.24 28.73 18.24 25C18.24 21.27 21.27 18.24 25 18.24C28.73 18.24 31.76 21.27 31.76 25Z"  stroke="#000000" stroke-width="2" stroke-opacity="1" fill-opacity="0"></path>
</g>
</svg>
