<svg xmlns="http://www.w3.org/2000/svg" viewBox="0 0 50 50" version="1.1">
<g>
<path d="M42.19 35.38L35.94 40.06L35.94 30.69L42.19 35.38Z"  stroke="#000000" stroke-width="0" stroke-opacity="1" fill="#000000" fill-opacity="1"></path>
<path d="M19.28 29.15C18.32 30.28 17.72 30.98 17.48 31.27C16.07 32.93 14.29 34.24 12.29 35.1C12.06 35.2 12.9 34.84 12.29 35.1C11.53 35.42 10.71 35.59 9.87 35.6C9.81 35.6 9.64 35.6 9.38 35.6"  stroke="#000000" stroke-width="2" stroke-opacity="0.99" fill-opacity="0"></path>
<path d="M25.31 21.45C26.53 19.87 27.3 18.89 27.6 18.49C29.59 15.93 32.65 14.42 35.89 14.4C35.97 14.4 36.17 14.39 36.49 14.39"  stroke="#000000" stroke-width="2" stroke-opacity="0.99" fill-opacity="0"></path>
<path d="M42.19 14.63L35.94 9.94L35.94 19.31L42.19 14.63Z"  stroke="#000000" stroke-width="0" stroke-opacity="1" fill="#000000" fill-opacity="1"></path>
<path d="M25.35 21.4L19.21 29.24"  stroke="#000000" stroke-width="2" stroke-opacity="1" fill-opacity="0"></path>
<path d="M19.28 20.85C18.32 19.72 17.72 19.01 17.48 18.73C16.07 17.07 14.29 15.76 12.29 14.9C12.06 14.8 12.9 15.16 12.29 14.9C11.53 14.57 10.71 14.4 9.87 14.4C9.81 14.4 9.64 14.4 9.38 14.39"  stroke="#000000" stroke-width="2" stroke-opacity="0.99" fill-opacity="0"></path>
<path d="M25.31 28.55C26.53 30.12 27.3 31.11 27.6 31.51C29.59 34.07 32.65 35.58 35.89 35.6C35.97 35.6 36.17 35.6 36.49 35.61"  stroke="#000000" stroke-width="2" stroke-opacity="0.99" fill-opacity="0"></path>
</g>
</svg>
