<svg xmlns="http://www.w3.org/2000/svg" viewBox="0 0 50 50" version="1.1">
<g>
<path d="M35.94 32.81L43.75 25L35.94 17.19"  stroke="#000000" stroke-width="2" stroke-opacity="1" fill-opacity="0"></path>
<path d=""  stroke="#000000" stroke-width="1" stroke-opacity="1" fill-opacity="0"></path>
<path d="M20.31 25L42.97 25"  stroke="#000000" stroke-width="2" stroke-opacity="1" fill-opacity="0"></path>
<path d="M31.25 31.25C31.25 35.82 31.25 38.67 31.25 39.82C31.25 40.26 30.89 40.63 30.44 40.63C26.23 40.63 14.4 40.63 10.18 40.63C9.74 40.63 9.38 40.26 9.38 39.82C9.38 33.73 9.38 16.27 9.38 10.18C9.38 9.74 9.74 9.38 10.18 9.38C14.4 9.38 26.23 9.38 30.44 9.38C30.89 9.38 31.25 9.74 31.25 10.18C31.25 11.33 31.25 14.18 31.25 18.75"  stroke="#000000" stroke-width="2" stroke-opacity="1" fill-opacity="0"></path>
</g>
</svg>
