<svg xmlns="http://www.w3.org/2000/svg" viewBox="0 0 50 50" version="1.1">
<g>
<path d="M41.27 11.72C42.64 11.72 43.75 12.83 43.75 14.2C43.75 18.39 43.75 28.48 43.75 32.67C43.75 34.04 42.64 35.16 41.27 35.16C34.26 35.16 15.74 35.16 8.73 35.16C7.36 35.16 6.25 34.04 6.25 32.67C6.25 28.48 6.25 18.39 6.25 14.2C6.25 12.83 7.36 11.72 8.73 11.72C15.74 11.72 34.26 11.72 41.27 11.72Z"  stroke="#000000" stroke-width="2" stroke-opacity="1" fill-opacity="0"></path>
<path d="M17.48 23.44C17.48 24.46 16.65 25.29 15.63 25.29C14.6 25.29 13.77 24.46 13.77 23.44C13.77 22.41 14.6 21.58 15.63 21.58C16.65 21.58 17.48 22.41 17.48 23.44Z"  fill="#4b87dd" fill-opacity="1"></path>
<path d="M23.73 23.44C23.73 24.46 22.9 25.29 21.88 25.29C20.85 25.29 20.02 24.46 20.02 23.44C20.02 22.41 20.85 21.58 21.88 21.58C22.9 21.58 23.73 22.41 23.73 23.44Z"  fill="#ef4545" fill-opacity="1"></path>
<path d="M29.98 23.44C29.98 24.46 29.15 25.29 28.13 25.29C27.1 25.29 26.27 24.46 26.27 23.44C26.27 22.41 27.1 21.58 28.13 21.58C29.15 21.58 29.98 22.41 29.98 23.44Z"  fill="#e1d50b" fill-opacity="1"></path>
<path d="M36.23 23.44C36.23 24.46 35.4 25.29 34.38 25.29C33.35 25.29 32.52 24.46 32.52 23.44C32.52 22.41 33.35 21.58 34.38 21.58C35.4 21.58 36.23 22.41 36.23 23.44Z"  fill="#42cf00" fill-opacity="1"></path>
<path d="M39.06 35.16C39.06 36.29 39.06 37 39.06 37.29C39.06 37.84 38.62 38.28 38.07 38.28C32.64 38.28 17.36 38.28 11.93 38.28C11.38 38.28 10.94 37.84 10.94 37.29C10.94 37 10.94 36.29 10.94 35.16"  stroke="#000000" stroke-width="2" stroke-opacity="1" fill-opacity="0"></path>
</g>
</svg>
