<svg xmlns="http://www.w3.org/2000/svg" viewBox="0 0 50 50" version="1.1">
<g>
<path d="M24.87 41.71C24.87 41.58 24.87 41.49 24.87 41.46C24.87 40.72 25.02 39.98 25.29 39.29C25.53 38.67 25.61 38.47 25.8 38C26.25 36.86 26.12 35.57 25.45 34.54C25.04 33.93 24.96 33.8 24.57 33.21C23.86 32.12 23.74 30.76 24.24 29.57C24.37 29.27 24.34 29.34 24.56 28.81C24.77 28.32 24.87 27.8 24.87 27.26C24.87 27.17 24.87 26.94 24.87 26.56"  stroke="#000000" stroke-width="2" stroke-opacity="1" fill-opacity="0"></path>
<path d="M30.63 41.71C30.63 41.58 30.63 41.49 30.63 41.46C30.63 40.72 30.77 39.98 31.05 39.29C31.29 38.67 31.37 38.47 31.56 38C32.01 36.86 31.88 35.57 31.2 34.54C30.8 33.93 30.72 33.8 30.33 33.21C29.62 32.12 29.5 30.76 30 29.57C30.13 29.27 30.09 29.34 30.32 28.81C30.53 28.32 30.63 27.8 30.63 27.26C30.63 27.17 30.63 26.94 30.63 26.56"  stroke="#000000" stroke-width="2" stroke-opacity="1" fill-opacity="0"></path>
<path d="M19.12 41.71C19.12 41.58 19.12 41.49 19.12 41.46C19.12 40.72 19.26 39.98 19.53 39.29C19.78 38.67 19.86 38.47 20.04 38C20.49 36.86 20.36 35.57 19.69 34.54C19.29 33.93 19.2 33.8 18.81 33.21C18.1 32.12 17.98 30.76 18.48 29.57C18.61 29.27 18.58 29.34 18.8 28.81C19.01 28.32 19.12 27.8 19.12 27.26C19.12 27.17 19.12 26.94 19.12 26.56"  stroke="#000000" stroke-width="2" stroke-opacity="1" fill-opacity="0"></path>
<path d=""  stroke="#000000" stroke-width="1" stroke-opacity="1" fill-opacity="0"></path>
<path d="M27.34 15.63C27.34 16.92 26.29 17.97 25 17.97C23.71 17.97 22.66 16.92 22.66 15.63C22.66 14.33 23.71 13.28 25 13.28C26.29 13.28 27.34 14.33 27.34 15.63Z"  stroke="#000000" stroke-width="2" stroke-opacity="1" fill-opacity="0"></path>
<path d="M22.48 15.63C15.05 15.63 10.41 15.63 8.55 15.63C8.12 15.63 7.74 15.33 7.63 14.91C7.45 14.17 6.99 12.33 6.25 9.38L43.75 9.38C43.04 12.21 42.6 13.98 42.42 14.69C42.28 15.24 41.79 15.63 41.22 15.63C39.36 15.63 34.73 15.63 27.31 15.63"  stroke="#000000" stroke-width="2" stroke-opacity="1" fill-opacity="0"></path>
<path d="M37.5 15.63C36.01 18.61 35.07 20.48 34.7 21.23C34.5 21.62 34.1 21.88 33.65 21.88C30.05 21.88 20.12 21.88 16.56 21.88C15.99 21.88 15.46 21.55 15.21 21.04C14.85 20.32 13.94 18.51 12.5 15.63"  stroke="#000000" stroke-width="2" stroke-opacity="1" fill-opacity="0"></path>
<path d="M25 18.06L25 21.88"  stroke="#000000" stroke-width="2" stroke-opacity="1" fill-opacity="0"></path>
<path d="M20.31 21.88L18.75 15.96"  stroke="#000000" stroke-width="2" stroke-opacity="1" fill-opacity="0"></path>
<path d="M31.25 15.63L29.69 21.88"  stroke="#000000" stroke-width="2" stroke-opacity="1" fill-opacity="0"></path>
</g>
</svg>
