<svg xmlns="http://www.w3.org/2000/svg" viewBox="0 0 50 50" version="1.1">
<g>
<path d="M35.81 6.51C36.74 6.51 37.5 7.27 37.5 8.2C37.5 15.31 37.5 34.95 37.5 42.06C37.5 42.99 36.74 43.75 35.81 43.75C31.15 43.75 18.85 43.75 14.19 43.75C13.26 43.75 12.5 42.99 12.5 42.06C12.5 34.95 12.5 15.31 12.5 8.2C12.5 7.27 13.26 6.51 14.19 6.51C18.85 6.51 31.15 6.51 35.81 6.51Z"  stroke="#000000" stroke-width="2" stroke-opacity="1" fill-opacity="0"></path>
<path d="M32.98 31.42C32.98 35.83 29.41 39.4 25 39.4C20.59 39.4 17.02 35.83 17.02 31.42C17.02 27.01 20.59 23.44 25 23.44C29.41 23.44 32.98 27.01 32.98 31.42Z"  stroke="#000000" stroke-width="2" stroke-opacity="1" fill-opacity="0"></path>
<path d="M27.52 14.67C27.52 16.06 26.39 17.19 25 17.19C23.61 17.19 22.48 16.06 22.48 14.67C22.48 13.28 23.61 12.15 25 12.15C26.39 12.15 27.52 13.28 27.52 14.67Z"  fill="#000000" fill-opacity="1"></path>
</g>
</svg>
