<svg xmlns="http://www.w3.org/2000/svg" viewBox="0 0 50 50" version="1.1">
<g>
<path d="M45.31 6.25L45.31 43.75L4.69 43.75L4.69 6.25L45.31 6.25Z"  stroke="#000000" stroke-width="2" stroke-opacity="1" fill-opacity="0"></path>
<path d="M21.88 17.19C21.88 20.64 19.07 23.44 15.63 23.44C12.18 23.44 9.38 20.64 9.38 17.19C9.38 13.74 12.18 10.94 15.63 10.94C19.07 10.94 21.88 13.74 21.88 17.19Z"  stroke="#000000" stroke-width="2" stroke-opacity="1" fill-opacity="0"></path>
<path d="M40.63 17.19C40.63 20.64 37.82 23.44 34.38 23.44C30.93 23.44 28.13 20.64 28.13 17.19C28.13 13.74 30.93 10.94 34.38 10.94C37.82 10.94 40.63 13.74 40.63 17.19Z"  stroke="#000000" stroke-width="2" stroke-opacity="1" fill-opacity="0"></path>
<path d="M21.88 32.81C21.88 36.26 19.07 39.06 15.63 39.06C12.18 39.06 9.38 36.26 9.38 32.81C9.38 29.36 12.18 26.56 15.63 26.56C19.07 26.56 21.88 29.36 21.88 32.81Z"  stroke="#000000" stroke-width="2" stroke-opacity="1" fill-opacity="0"></path>
<path d="M40.63 32.81C40.63 36.26 37.82 39.06 34.38 39.06C30.93 39.06 28.13 36.26 28.13 32.81C28.13 29.36 30.93 26.56 34.38 26.56C37.82 26.56 40.63 29.36 40.63 32.81Z"  stroke="#000000" stroke-width="2" stroke-opacity="1" fill-opacity="0"></path>
<path d="M18.75 17.19C18.75 18.91 17.35 20.31 15.63 20.31C13.9 20.31 12.5 18.91 12.5 17.19C12.5 15.46 13.9 14.06 15.63 14.06C17.35 14.06 18.75 15.46 18.75 17.19Z"  stroke="#000000" stroke-width="1" stroke-opacity="1" fill-opacity="0"></path>
</g>
</svg>
