<svg xmlns="http://www.w3.org/2000/svg" viewBox="0 0 50 50" version="1.1">
<g>
<path d="M11.7 10.45L23.39 10.45"  stroke="#000000" stroke-width="2" stroke-opacity="1" fill-opacity="0"></path>
<path d="M11.7 14.63L23.39 14.63"  stroke="#000000" stroke-width="2" stroke-opacity="1" fill-opacity="0"></path>
<path d="M11.7 22.98L23.39 22.98"  stroke="#000000" stroke-width="2" stroke-opacity="1" fill-opacity="0"></path>
<path d="M15.04 18.8L23.39 18.8"  stroke="#000000" stroke-width="2" stroke-opacity="1" fill-opacity="0"></path>
<path d="M15.04 31.33L23.39 31.33"  stroke="#000000" stroke-width="2" stroke-opacity="1" fill-opacity="0"></path>
<path d="M15.04 27.16L23.39 27.16"  stroke="#000000" stroke-width="2" stroke-opacity="1" fill-opacity="0"></path>
<path d="M28.13 6.91C28.57 6.51 29.11 6.22 29.69 6.08C29.89 6.03 29.61 6.1 29.81 6.05C30.38 5.9 30.99 5.9 31.56 6.05C31.74 6.1 31.45 6.02 31.64 6.07C32.19 6.21 32.7 6.48 33.13 6.85C33.28 6.98 33.08 6.81 33.24 6.95C33.65 7.31 33.97 7.77 34.16 8.29C34.22 8.44 34.1 8.13 34.16 8.29C34.35 8.8 34.44 9.34 34.44 9.89C34.45 13.08 34.45 21.07 34.46 33.84C34.63 34.02 34.74 34.13 34.78 34.17C35.02 34.42 35.24 34.68 35.43 34.96C35.54 35.11 35.33 34.81 35.38 34.88C35.77 35.43 36.06 36.06 36.24 36.71C36.31 36.97 36.19 36.51 36.24 36.71C36.48 37.57 36.52 38.47 36.37 39.35C36.33 39.57 36.41 39.08 36.37 39.35C36.24 40.09 35.95 40.8 35.54 41.42C35.4 41.63 35.59 41.34 35.45 41.56C35.05 42.15 34.53 42.66 33.92 43.05C33.72 43.18 34.01 42.99 33.8 43.13C33.21 43.5 32.56 43.78 31.89 43.94C31.65 43.99 32.09 43.89 31.89 43.94C31.11 44.12 30.3 44.12 29.52 43.94C29.23 43.87 29.43 43.92 29.11 43.84C28.42 43.68 27.78 43.37 27.23 42.94C27 42.76 27.12 42.85 26.88 42.67C26.38 42.27 25.95 41.77 25.63 41.21C25.54 41.05 25.73 41.38 25.63 41.21C25.32 40.67 25.11 40.08 24.99 39.46C24.94 39.19 25 39.51 24.96 39.29C24.81 38.51 24.83 37.71 25 36.94C25.04 36.74 24.95 37.17 25 36.93C25.14 36.3 25.4 35.7 25.77 35.16C25.88 35 25.88 35.01 26.04 34.76C26.24 34.48 26.47 34.22 26.73 33.99C26.76 33.97 26.83 33.91 26.94 33.81C26.93 21.01 26.93 13.01 26.93 9.81C26.93 9.31 27.01 8.82 27.17 8.35C27.23 8.19 27.12 8.5 27.17 8.35C27.36 7.8 27.68 7.31 28.11 6.92C28.25 6.8 27.99 7.03 28.13 6.91Z"  stroke="#000000" stroke-width="2" stroke-opacity="1" fill-opacity="0"></path>
<path d="M30.7 37.81L30.7 9.61"  stroke="#000000" stroke-width="1" stroke-opacity="1" fill-opacity="0"></path>
<path d="M32.88 38.43C32.88 39.63 31.9 40.61 30.7 40.61C29.5 40.61 28.53 39.63 28.53 38.43C28.53 37.24 29.5 36.26 30.7 36.26C31.9 36.26 32.88 37.24 32.88 38.43Z"  stroke="#000000" stroke-width="0" stroke-opacity="1" fill="#000000" fill-opacity="1"></path>
</g>
</svg>
