<svg xmlns="http://www.w3.org/2000/svg" viewBox="0 0 50 50" version="1.1">
<g>
<path d="M15.13 6.91C15.57 6.51 16.11 6.22 16.69 6.08C16.89 6.03 16.61 6.1 16.81 6.05C17.38 5.9 17.99 5.9 18.56 6.05C18.74 6.1 18.45 6.02 18.64 6.07C19.19 6.21 19.7 6.48 20.13 6.85C20.28 6.98 20.08 6.81 20.24 6.95C20.65 7.31 20.97 7.77 21.16 8.29C21.22 8.44 21.1 8.13 21.16 8.29C21.35 8.8 21.44 9.34 21.44 9.89C21.45 13.08 21.45 21.07 21.46 33.84C21.63 34.02 21.74 34.13 21.78 34.17C22.02 34.42 22.24 34.68 22.43 34.96C22.54 35.11 22.33 34.81 22.38 34.88C22.77 35.43 23.06 36.06 23.24 36.71C23.31 36.97 23.19 36.51 23.24 36.71C23.48 37.57 23.52 38.47 23.37 39.35C23.33 39.57 23.41 39.08 23.37 39.35C23.24 40.09 22.95 40.8 22.54 41.42C22.4 41.63 22.59 41.34 22.45 41.56C22.05 42.15 21.53 42.66 20.92 43.05C20.72 43.18 21.01 42.99 20.8 43.13C20.21 43.5 19.56 43.78 18.89 43.94C18.65 43.99 19.09 43.89 18.89 43.94C18.11 44.12 17.3 44.12 16.52 43.94C16.23 43.87 16.43 43.92 16.11 43.84C15.42 43.68 14.78 43.37 14.23 42.94C14 42.76 14.12 42.85 13.88 42.67C13.38 42.27 12.95 41.77 12.63 41.21C12.54 41.05 12.73 41.38 12.63 41.21C12.32 40.67 12.11 40.08 11.99 39.46C11.94 39.19 12 39.51 11.96 39.29C11.81 38.51 11.83 37.71 12 36.94C12.04 36.74 11.95 37.17 12 36.93C12.14 36.3 12.4 35.7 12.77 35.16C12.88 35 12.88 35.01 13.04 34.76C13.24 34.48 13.47 34.22 13.73 33.99C13.76 33.97 13.83 33.91 13.94 33.81C13.93 21.01 13.93 13.01 13.93 9.81C13.93 9.31 14.01 8.82 14.17 8.35C14.23 8.19 14.12 8.5 14.17 8.35C14.36 7.8 14.68 7.31 15.11 6.92C15.25 6.8 14.99 7.03 15.13 6.91Z"  stroke="#000000" stroke-width="2" stroke-opacity="1" fill-opacity="0"></path>
<path d="M17.7 37.81L17.7 9.61"  stroke="#000000" stroke-width="1" stroke-opacity="1" fill-opacity="0"></path>
<path d="M19.88 38.43C19.88 39.63 18.9 40.61 17.7 40.61C16.5 40.61 15.53 39.63 15.53 38.43C15.53 37.24 16.5 36.26 17.7 36.26C18.9 36.26 19.88 37.24 19.88 38.43Z"  stroke="#000000" stroke-width="0" stroke-opacity="1" fill="#000000" fill-opacity="1"></path>
<path d="M34.38 15.41L39.06 21.66L29.69 21.66L34.38 15.41Z"  stroke="#000000" stroke-width="2" stroke-opacity="1" fill="#000000" fill-opacity="1"></path>
<path d="M34.38 34.59L39.06 28.34L29.69 28.34L34.38 34.59Z"  stroke="#000000" stroke-width="2" stroke-opacity="1" fill="#000000" fill-opacity="1"></path>
</g>
</svg>
