<svg xmlns="http://www.w3.org/2000/svg" viewBox="0 0 50 50" version="1.1">
<g>
<path d="M35.94 40.63L39.84 40.63L39.84 43.75L44.53 43.75L44.53 4.69L39.84 4.69L39.84 7.81L10.16 7.81L10.16 4.69L5.47 4.69L5.47 43.75L10.16 43.75L10.16 40.63L20.31 40.63"  stroke="#000000" stroke-width="2" stroke-opacity="1" fill-opacity="0"></path>
<path d="M21.09 26.56L35.16 26.56L35.16 46.88L21.09 46.88L21.09 26.56Z"  stroke="#000000" stroke-width="2" stroke-opacity="1" fill-opacity="0"></path>
<path d="M39.84 12.5L39.84 17.19L10.16 17.19L10.16 12.5L39.84 12.5Z"  stroke="#000000" stroke-width="2" stroke-opacity="1" fill-opacity="0"></path>
<path d="M39.84 21.88L39.84 26.56L10.16 26.56L10.16 21.88L39.84 21.88Z"  stroke="#000000" stroke-width="2" stroke-opacity="1" fill-opacity="0"></path>
<path d="M20.31 35.94L10.16 35.94L10.16 31.25L20.31 31.25"  stroke="#000000" stroke-width="2" stroke-opacity="1" fill-opacity="0"></path>
<path d="M35.94 35.94L39.84 35.94L39.84 31.25L35.94 31.25"  stroke="#000000" stroke-width="2" stroke-opacity="1" fill-opacity="0"></path>
</g>
</svg>
