<svg xmlns="http://www.w3.org/2000/svg" viewBox="0 0 50 50" version="1.1">
<g>
<path d="M23.13 33.72C22.23 33.08 21.15 32.74 20.04 32.76C19.74 32.77 20.38 32.76 20.04 32.76C19.05 32.78 18.08 33.03 17.22 33.51C16.79 33.74 16.55 33.87 16.49 33.89C16.32 33.96 16.17 33.58 16.03 32.76L14.06 12L36.41 12C34.93 27.62 34 37.39 33.63 41.29C33.61 41.52 33.42 41.69 33.19 41.69C27.73 41.64 25 41.61 25.03 41.61C25.11 41.35 25.16 41.22 25.16 41.22C25.43 40.39 25.59 39.54 25.64 38.68C25.65 38.51 25.62 39.03 25.63 38.8C25.66 38.18 25.6 37.56 25.44 36.96C25.33 36.56 25.49 37.14 25.44 36.96C25.09 35.67 24.31 34.55 23.22 33.78C22.92 33.57 23.49 33.97 23.13 33.72Z"  stroke="#000000" stroke-width="2" stroke-opacity="1" fill-opacity="0"></path>
<path d="M23.15 38.48C23.15 40.21 21.75 41.61 20.03 41.61C18.3 41.61 16.9 40.21 16.9 38.48C16.9 36.76 18.3 35.36 20.03 35.36C21.75 35.36 23.15 36.76 23.15 38.48Z"  stroke="#000000" stroke-width="2" stroke-opacity="1" fill-opacity="0"></path>
<path d="M35.8 8.31C36.12 8.31 36.42 8.52 36.52 8.83C36.74 9.46 37.31 11.09 37.55 11.78C37.58 11.87 37.51 11.96 37.42 11.96C32.42 11.98 17.6 12.04 12.6 12.06C12.53 12.06 12.48 11.98 12.51 11.92C12.79 11.2 13.52 9.38 13.79 8.71C13.88 8.47 14.11 8.31 14.37 8.31C18.77 8.31 31.43 8.31 35.8 8.31Z"  stroke="#000000" stroke-width="2" stroke-opacity="1" fill-opacity="0"></path>
</g>
</svg>
