<svg xmlns="http://www.w3.org/2000/svg" viewBox="0 0 50 50" version="1.1">
<g>
<path d="M32.4 14.48C32.4 18.56 29.08 21.88 25 21.88C20.92 21.88 17.6 18.56 17.6 14.48C17.6 10.39 20.92 7.08 25 7.08C29.08 7.08 32.4 10.39 32.4 14.48Z"  stroke="#000000" stroke-width="2" stroke-opacity="1" fill-opacity="0"></path>
<path d="M37.37 41.44C38.35 41.33 39.05 40.44 38.91 39.46C38.62 37.5 38.62 37.44 38.48 36.49C37.88 32.29 35.03 28.76 31.07 27.27C29.85 26.82 32.24 27.71 30.92 27.22C27.1 25.79 22.9 25.79 19.08 27.22C17.76 27.71 20.2 26.8 19 27.25C15 28.75 12.16 32.34 11.63 36.58C11.51 37.51 11.47 37.8 11.22 39.83C11.12 40.61 11.68 41.32 12.45 41.4C14.98 41.68 13.39 41.51 13.98 41.57C21.37 42.39 28.83 42.39 36.22 41.57C36.81 41.51 34.91 41.72 37.37 41.44Z"  stroke="#000000" stroke-width="2" stroke-opacity="1" fill-opacity="0"></path>
</g>
</svg>
