<svg xmlns="http://www.w3.org/2000/svg" viewBox="0 0 50 50" version="1.1">
<g>
<path d="M44.92 25.39C44.92 36.39 36 45.31 25 45.31C14 45.31 5.08 36.39 5.08 25.39C5.08 14.4 14 5.47 25 5.47C36 5.47 44.92 14.4 44.92 25.39Z"  stroke="#000000" stroke-width="2" stroke-opacity="1" fill-opacity="0"></path>
<path d="M35.55 8.95C35.55 17.6 35.55 23.02 35.55 25.18C35.55 28.15 33.92 30.89 31.31 32.31C30.05 32.99 32.4 31.71 31.62 32.14C27.5 34.38 22.53 34.38 18.41 32.15C17.62 31.72 19.96 32.99 18.7 32.3C16.08 30.89 14.45 28.15 14.45 25.18C14.45 22.97 14.45 17.44 14.45 8.59"  stroke="#000000" stroke-width="2" stroke-opacity="1" fill-opacity="0"></path>
<path d="M9.65 2.78L11.67 8.18"  stroke="#000000" stroke-width="2" stroke-opacity="1" fill-opacity="0"></path>
<path d="M5.47 6.49L10.87 8.86"  stroke="#000000" stroke-width="2" stroke-opacity="1" fill-opacity="0"></path>
<path d="M33.59 43.59C33.59 41.94 33.59 40.91 33.59 40.5C33.59 40.14 33.3 39.84 32.93 39.84C29.63 39.87 20.37 39.94 17.07 39.96C16.7 39.96 16.41 40.26 16.41 40.63C16.41 41.04 16.41 42.06 16.41 43.71"  stroke="#000000" stroke-width="2" stroke-opacity="1" fill-opacity="0"></path>
<path d="M28.13 25C28.13 26.72 26.72 28.13 25 28.13C23.28 28.13 21.88 26.72 21.88 25C21.88 23.28 23.28 21.88 25 21.88C26.72 21.88 28.13 23.28 28.13 25Z"  stroke="#000000" stroke-width="1" stroke-opacity="1" fill-opacity="0"></path>
<path d="M5.08 11.72L11.67 9.03L14.45 2.59"  stroke="#000000" stroke-width="2" stroke-opacity="1" fill-opacity="0"></path>
<path d="M19.92 25C19.92 25.65 19.4 26.17 18.75 26.17C18.1 26.17 17.58 25.65 17.58 25C17.58 24.35 18.1 23.83 18.75 23.83C19.4 23.83 19.92 24.35 19.92 25Z"  fill="#000000" fill-opacity="1"></path>
<path d="M32.42 25C32.42 25.65 31.9 26.17 31.25 26.17C30.6 26.17 30.08 25.65 30.08 25C30.08 24.35 30.6 23.83 31.25 23.83C31.9 23.83 32.42 24.35 32.42 25Z"  fill="#000000" fill-opacity="1"></path>
</g>
</svg>
