<svg xmlns="http://www.w3.org/2000/svg" viewBox="0 0 50 50" version="1.1">
<g>
<path d="M12.5 19.74L20.31 11.93L20.31 38.49L12.5 30.68L7.81 30.68L7.81 19.74L12.5 19.74Z"  stroke="#000000" stroke-width="2" stroke-opacity="1" fill-opacity="0"></path>
<path d="M36.08 40.96C36.77 40.19 37.2 39.72 37.37 39.53C38.2 38.61 38.94 37.61 39.59 36.56C39.79 36.24 39.4 36.88 39.59 36.56C40.24 35.51 40.77 34.38 41.16 33.21C41.34 32.67 41.29 32.8 41.48 32.26C41.87 31.08 42.13 29.87 42.27 28.64C42.34 28.03 42.34 28.04 42.41 27.43C42.55 26.2 42.57 24.96 42.47 23.73C42.43 23.11 42.43 23.12 42.38 22.51C42.28 21.28 42.04 20.06 41.65 18.89C41.49 18.42 41.62 18.8 41.46 18.33C41.08 17.16 40.58 16.02 39.97 14.94C39.75 14.53 39.97 14.92 39.74 14.51C39.13 13.43 38.43 12.41 37.63 11.47C37.46 11.27 37.03 10.76 36.35 9.96"  stroke="#000000" stroke-width="2" stroke-opacity="0.3" fill-opacity="0"></path>
<path d="M31.52 35.94C32 35.41 32.3 35.08 32.42 34.94C32.99 34.31 33.5 33.62 33.96 32.89C34.09 32.67 33.82 33.11 33.96 32.89C34.41 32.16 34.77 31.38 35.04 30.57C35.17 30.19 35.14 30.28 35.26 29.9C35.53 29.09 35.72 28.25 35.82 27.4C35.86 26.97 35.86 26.98 35.91 26.56C36.01 25.7 36.02 24.84 35.96 23.99C35.92 23.56 35.92 23.57 35.89 23.14C35.82 22.29 35.65 21.45 35.38 20.63C35.28 20.31 35.36 20.57 35.25 20.25C34.99 19.43 34.64 18.64 34.22 17.89C34.06 17.61 34.22 17.88 34.06 17.6C33.64 16.85 33.15 16.14 32.6 15.49C32.48 15.35 32.18 15 31.71 14.44"  stroke="#000000" stroke-width="2" stroke-opacity="1" fill-opacity="0"></path>
<path d="M26.56 31.36C26.83 31.05 27 30.87 27.07 30.79C27.4 30.43 27.69 30.04 27.95 29.62C28.02 29.5 27.87 29.75 27.95 29.62C28.2 29.21 28.41 28.76 28.56 28.3C28.64 28.09 28.62 28.14 28.69 27.92C28.84 27.46 28.95 26.98 29 26.5C29.03 26.26 29.03 26.26 29.06 26.02C29.11 25.53 29.12 25.05 29.08 24.56C29.06 24.32 29.06 24.32 29.05 24.08C29.01 23.59 28.91 23.11 28.76 22.65C28.7 22.47 28.75 22.61 28.69 22.43C28.53 21.97 28.34 21.52 28.1 21.09C28.01 20.93 28.09 21.09 28 20.92C27.77 20.5 27.49 20.1 27.17 19.72C27.11 19.64 26.94 19.45 26.67 19.13"  stroke="#000000" stroke-width="2" stroke-opacity="1" fill-opacity="0"></path>
</g>
</svg>
