<svg xmlns="http://www.w3.org/2000/svg" viewBox="0 0 50 50" version="1.1">
<g>
<path d="M39.67 4.69C40.2 4.69 40.62 5.12 40.62 5.64C40.62 13.58 40.62 36.42 40.62 44.36C40.62 44.88 40.2 45.31 39.67 45.31C33.61 45.31 16.39 45.31 10.33 45.31C9.8 45.31 9.37 44.88 9.37 44.36C9.37 36.42 9.37 13.58 9.37 5.64C9.37 5.12 9.8 4.69 10.33 4.69C16.39 4.69 33.61 4.69 39.67 4.69Z"  stroke="#000000" stroke-width="2" stroke-opacity="1" fill-opacity="0"></path>
<path d="M36.33 27.34C36.33 33.81 31.25 39.06 25 39.06C18.75 39.06 13.67 33.81 13.67 27.34C13.67 20.88 18.75 15.62 25 15.62C31.25 15.62 36.33 20.88 36.33 27.34Z"  stroke="#000000" stroke-width="2" stroke-opacity="1" fill-opacity="0"></path>
<path d="M31.25 9.38L18.75 9.38"  stroke="#000000" stroke-width="2" stroke-opacity="1" fill-opacity="0"></path>
<path d="M36.33 28.13C35.41 28.26 34.59 27.99 33.87 27.34C33.16 26.69 32.54 26.04 32.03 25.39C31.69 25.98 31.23 26.63 30.65 27.34C30.54 27.47 30.42 27.6 30.29 27.72C29.29 28.61 27.78 28.57 26.83 27.63C26.73 27.54 26.65 27.45 26.56 27.34C25.98 26.63 25.46 25.98 25 25.39C24.54 25.98 24.02 26.63 23.44 27.34C23.35 27.45 23.25 27.56 23.16 27.65C22.21 28.58 20.71 28.63 19.71 27.77C19.55 27.63 19.4 27.49 19.27 27.34C18.62 26.63 18.05 25.98 17.58 25.39C17.15 26.04 16.6 26.69 15.95 27.34C15.3 27.99 14.58 28.26 13.8 28.13"  stroke="#000000" stroke-width="2" stroke-opacity="1" fill-opacity="0"></path>
</g>
</svg>
