<svg xmlns="http://www.w3.org/2000/svg" viewBox="0 0 50 50" version="1.1">
<g>
<path d="M18.23 19.92C20.26 20.31 22.37 19.81 24.01 18.54C24.38 18.25 23.62 18.84 24.17 18.42C25.23 17.6 25.87 16.33 25.89 14.99C25.9 14.32 25.89 15.28 25.89 14.82C25.93 12.89 24.79 11.13 23.02 10.37C22.37 10.09 23.58 10.61 22.98 10.35C20.98 9.49 18.68 9.76 16.93 11.06C16.15 11.63 17.49 10.64 16.93 11.06C14.41 12.92 12.59 15.56 11.74 18.57C11.61 19 11.31 20.08 10.82 21.81C12.59 21.07 13.69 20.6 14.13 20.42C15.5 19.85 17 19.69 18.45 19.97C19.05 20.08 17.83 19.85 18.23 19.92Z"  stroke="#000000" stroke-width="2" stroke-opacity="1" fill-opacity="0"></path>
<path d="M31.36 27.92C33.45 29.13 35.9 29.59 38.29 29.23C38.77 29.15 37.56 29.34 38.3 29.23C39.81 28.99 41.11 28.04 41.79 26.67C41.92 26.4 41.46 27.33 41.65 26.95C42.17 25.88 42.39 24.68 42.27 23.49C42.23 23.08 42.31 23.89 42.28 23.53C42.14 22.18 41.57 20.92 40.65 19.92C40.42 19.67 41.05 20.35 40.79 20.07C39.96 19.17 38.84 18.59 37.62 18.42C37.16 18.35 37.25 18.36 36.69 18.29C35.78 18.16 34.86 18.2 33.97 18.41C33 18.64 34.23 18.35 33.96 18.41C30.77 19.17 27.82 20.73 25.42 22.96C25.13 23.23 24.42 23.89 23.28 24.95C24.84 25.38 25.81 25.64 26.2 25.75C28 26.24 29.72 26.96 31.33 27.9C31.98 28.28 30.87 27.63 31.36 27.92Z"  stroke="#000000" stroke-width="2" stroke-opacity="1" fill-opacity="0"></path>
<path d="M21.41 35.98C22.29 37.53 23.58 38.81 25.13 39.68C25.45 39.85 24.24 39.18 24.62 39.39C25.96 40.14 27.53 40.34 29.02 39.96C29.36 39.87 28.04 40.21 28.37 40.12C29.83 39.75 30.94 38.57 31.23 37.1C31.33 36.63 31.14 37.56 31.24 37.08C31.53 35.63 31.03 34.14 29.94 33.15C29.67 32.91 30.44 33.61 30.13 33.32C29.13 32.43 27.93 31.79 26.63 31.48C25.97 31.32 25.88 31.3 25.2 31.13C23.95 30.83 22.68 30.65 21.39 30.57C21.06 30.55 20.21 30.5 18.87 30.42C19.35 31.67 19.66 32.46 19.78 32.77C20.06 33.47 20.38 34.16 20.76 34.82C21.16 35.52 21.17 35.55 21.41 35.98Z"  stroke="#000000" stroke-width="2" stroke-opacity="1" fill-opacity="0"></path>
</g>
</svg>
