<svg xmlns="http://www.w3.org/2000/svg" viewBox="0 0 50 50" version="1.1">
<g>
<path d="M38.94 4.69C39.87 4.69 40.63 5.44 40.63 6.37C40.63 13.22 40.63 32.09 40.63 38.94C40.63 39.87 39.87 40.63 38.94 40.63C33.34 40.63 18.22 40.63 12.62 40.63C11.69 40.63 10.94 39.87 10.94 38.94C10.94 32.09 10.94 13.22 10.94 6.37C10.94 5.44 11.69 4.69 12.62 4.69C18.22 4.69 33.34 4.69 38.94 4.69Z"  stroke="#000000" stroke-width="2" stroke-opacity="1" fill-opacity="0"></path>
<path d=""  fill-opacity="0"></path>
<path d="M21.88 40.63C21.88 42.83 21.88 44.2 21.88 44.75C21.88 45.06 21.62 45.31 21.31 45.31C20.76 45.31 19.39 45.31 17.19 45.31"  stroke="#000000" stroke-width="2" stroke-opacity="1" fill-opacity="0"></path>
<path d="M29.69 40.63C29.69 42.83 29.69 44.2 29.69 44.75C29.69 45.06 29.94 45.31 30.25 45.31C30.8 45.31 32.17 45.31 34.38 45.31"  stroke="#000000" stroke-width="2" stroke-opacity="1" fill-opacity="0"></path>
<path d="M32.81 28.91C32.81 32.79 29.66 35.94 25.78 35.94C21.9 35.94 18.75 32.79 18.75 28.91C18.75 25.03 21.9 21.88 25.78 21.88C29.66 21.88 32.81 25.03 32.81 28.91Z"  stroke="#000000" stroke-width="2" stroke-opacity="1" fill-opacity="0"></path>
<path d="M25.87 23.92L25.87 29.3"  fill-opacity="0"></path>
<path d="M32.81 10.94L18.75 10.94"  stroke="#000000" stroke-width="2" stroke-opacity="1" fill-opacity="0"></path>
</g>
</svg>
