<svg xmlns="http://www.w3.org/2000/svg" viewBox="0 0 50 50" version="1.1">
<g>
<path d="M29.69 32.46C31.39 32.46 32.45 32.46 32.87 32.46C34.11 32.46 35.34 32.31 36.55 32.03C36.86 31.95 36.25 32.1 36.62 32.01C37.59 31.78 38.51 31.39 39.35 30.86C39.93 30.49 39.29 30.9 39.59 30.7C41.29 29.63 42.42 27.85 42.68 25.85C42.76 25.24 42.63 26.27 42.72 25.58C42.95 23.8 42.5 21.99 41.46 20.52C41.16 20.1 41.79 20.98 41.46 20.52C40.48 19.14 39.11 18.07 37.52 17.47C37.06 17.29 38.51 17.85 38.15 17.71C36.24 16.98 34.17 16.84 32.18 17.3C32.01 17.33 31.6 17.43 30.94 17.58C30.88 16.67 30.84 16.1 30.83 15.87C30.74 14.61 30.27 13.41 29.48 12.43C29.15 12.02 29.81 12.84 29.59 12.57C28.43 11.13 26.87 10.08 25.11 9.55C24.56 9.38 26.07 9.84 25.64 9.71C23.5 9.06 21.2 9.17 19.13 10.02C18.6 10.24 19.77 9.76 19.13 10.02C17.42 10.73 15.97 11.93 14.97 13.47C14.67 13.94 15.61 12.5 15.38 12.85C14.14 14.76 13.63 17.05 13.94 19.31C13.97 19.51 14.04 20.02 14.15 20.83C13.48 20.8 13.07 20.78 12.9 20.78C10.83 20.69 8.89 21.77 7.88 23.58C7.73 23.86 8.28 22.88 7.96 23.44C7.41 24.43 7.15 25.57 7.24 26.71C7.29 27.45 7.22 26.43 7.24 26.79C7.4 29.01 8.74 30.98 10.74 31.95C10.95 32.05 9.63 31.41 10.17 31.67C11.23 32.19 12.4 32.46 13.58 32.46C14.34 32.46 16.25 32.46 19.29 32.46"  stroke="#000000" stroke-width="2" stroke-opacity="1" fill-opacity="0"></path>
<path d="M32.92 34.69L32.92 41.62"  stroke="#000000" stroke-width="1" stroke-opacity="1" fill-opacity="0"></path>
<path d="M35.92 36.42L29.92 39.89"  stroke="#000000" stroke-width="1" stroke-opacity="1" fill-opacity="0"></path>
<path d="M35.92 39.89L29.92 36.42"  stroke="#000000" stroke-width="1" stroke-opacity="1" fill-opacity="0"></path>
<path d="M14.3 34.69L14.3 41.62"  stroke="#000000" stroke-width="1" stroke-opacity="1" fill-opacity="0"></path>
<path d="M17.3 36.42L11.3 39.89"  stroke="#000000" stroke-width="1" stroke-opacity="1" fill-opacity="0"></path>
<path d="M17.3 39.89L11.3 36.42"  stroke="#000000" stroke-width="1" stroke-opacity="1" fill-opacity="0"></path>
<path d="M18.73 36.77L23.21 36.77L19.96 42.19L27.64 35L24.3 34.9L29.67 28.99L24.98 28.99L18.73 36.77Z"  stroke="#000000" stroke-width="0.5" stroke-opacity="1" fill="#f6e804" fill-opacity="1"></path>
</g>
</svg>
