<svg xmlns="http://www.w3.org/2000/svg" viewBox="0 0 50 50" version="1.1">
<g>
<path d="M21.22 16.07C21.5 16.76 18.8 19.48 18.8 20.27C18.8 22.46 19.13 22.76 18.78 23.95C18.44 25.14 16.71 24.89 15.5 24.89C12.11 24.89 9.35 22.14 9.35 18.75C9.35 15.35 12.11 12.6 15.5 12.6C18.1 12.6 20.32 13.79 21.22 16.07Z"  stroke="#000000" stroke-width="2" stroke-opacity="0" fill="#fcff00" fill-opacity="1"></path>
<path d="M15.9 24.96C15.36 24.88 15.03 24.84 14.89 24.82C13.2 24.58 11.66 23.71 10.58 22.38C10.25 21.97 10.91 22.78 10.57 22.37C9.5 21.05 9.02 19.36 9.23 17.68C9.3 17.1 9.17 18.15 9.24 17.62C9.46 15.82 10.44 14.21 11.93 13.19C12.32 12.92 11.49 13.49 11.97 13.16C13.2 12.32 14.68 11.94 16.16 12.11C16.78 12.18 15.78 12.07 16.26 12.12C18.15 12.33 19.84 13.39 20.86 15C20.94 15.13 21.15 15.47 21.49 16"  stroke="#000000" stroke-width="2" stroke-opacity="1" fill-opacity="0"></path>
<path d="M15.51 9.5L15.51 4.13"  stroke="#000000" stroke-width="2" stroke-opacity="1" fill-opacity="0"></path>
<path d="M1.1 18.41L6.48 18.41"  stroke="#000000" stroke-width="2" stroke-opacity="1" fill-opacity="0"></path>
<path d="M22.02 12.05L25.82 8.25"  stroke="#000000" stroke-width="2" stroke-opacity="1" fill-opacity="0"></path>
<path d="M5.17 28.9L8.97 25.1"  stroke="#000000" stroke-width="2" stroke-opacity="1" fill-opacity="0"></path>
<path d="M5.02 8.25L8.82 12.05"  stroke="#000000" stroke-width="2" stroke-opacity="1" fill-opacity="0"></path>
<path d="M34.91 36.15C36.61 36.15 37.67 36.15 38.1 36.15C39.34 36.15 40.57 36.01 41.77 35.72C42.08 35.65 41.47 35.79 41.85 35.7C42.82 35.47 43.74 35.08 44.57 34.55C45.16 34.18 44.52 34.59 44.82 34.4C46.52 33.32 47.65 31.54 47.91 29.55C47.99 28.94 47.86 29.96 47.94 29.27C48.18 27.49 47.73 25.68 46.69 24.22C46.39 23.79 47.01 24.67 46.69 24.22C45.7 22.83 44.33 21.76 42.74 21.16C42.28 20.99 43.74 21.54 43.38 21.4C41.47 20.68 39.39 20.53 37.4 20.99C37.24 21.03 36.83 21.12 36.17 21.27C36.11 20.36 36.07 19.79 36.05 19.56C35.97 18.31 35.5 17.1 34.71 16.12C34.37 15.71 35.04 16.53 34.82 16.26C33.66 14.83 32.1 13.78 30.34 13.24C29.78 13.07 31.3 13.53 30.86 13.4C28.72 12.75 26.42 12.87 24.35 13.72C23.83 13.93 24.99 13.45 24.35 13.72C22.65 14.42 21.2 15.62 20.2 17.17C19.89 17.63 20.83 16.19 20.6 16.54C19.37 18.45 18.85 20.74 19.16 23C19.19 23.2 19.26 23.71 19.37 24.52C18.71 24.49 18.29 24.48 18.12 24.47C16.06 24.38 14.12 25.47 13.11 27.27C12.95 27.55 13.5 26.57 13.19 27.13C12.63 28.13 12.38 29.27 12.46 30.41C12.52 31.14 12.44 30.12 12.47 30.49C12.63 32.71 13.96 34.67 15.97 35.64C16.18 35.75 14.86 35.11 15.39 35.37C16.46 35.88 17.63 36.15 18.81 36.15C19.57 36.15 21.47 36.15 24.51 36.15"  stroke="#000000" stroke-width="2" stroke-opacity="1" fill-opacity="0"></path>
<path d="M22.41 39.28L19.29 42.4"  stroke="#000000" stroke-width="2" stroke-opacity="1" fill-opacity="0"></path>
<path d="M38.04 39.28L34.91 42.4"  stroke="#000000" stroke-width="2" stroke-opacity="1" fill-opacity="0"></path>
<path d="M23.98 40.46L28.45 40.46L25.2 45.87L32.88 38.68L29.54 38.59L34.91 32.68L30.23 32.68L23.98 40.46Z"  stroke="#000000" stroke-width="0.5" stroke-opacity="1" fill="#f6e804" fill-opacity="1"></path>
</g>
</svg>
