<svg xmlns="http://www.w3.org/2000/svg" viewBox="0 0 50 50" version="1.1">
<g>
<path d="M21.12 15.74C21.4 16.44 18.7 19.15 18.7 19.95C18.7 22.14 19.03 22.43 18.69 23.62C18.34 24.81 16.61 24.57 15.41 24.57C12.01 24.57 9.26 21.81 9.26 18.42C9.26 15.03 12.01 12.27 15.41 12.27C18.01 12.27 20.22 13.46 21.12 15.74Z"  stroke="#000000" stroke-width="2" stroke-opacity="0" fill="#fcff00" fill-opacity="1"></path>
<path d="M15.81 24.63C15.27 24.56 14.93 24.51 14.8 24.49C13.1 24.25 11.56 23.38 10.49 22.05C10.15 21.64 10.81 22.46 10.47 22.04C9.41 20.72 8.92 19.03 9.13 17.35C9.2 16.77 9.07 17.83 9.14 17.29C9.36 15.5 10.34 13.88 11.83 12.86C12.22 12.59 11.4 13.16 11.87 12.83C13.1 11.99 14.59 11.62 16.06 11.78C16.68 11.85 15.68 11.74 16.16 11.79C18.05 12 19.75 13.06 20.76 14.67C20.85 14.81 21.06 15.14 21.39 15.68"  stroke="#000000" stroke-width="2" stroke-opacity="1" fill-opacity="0"></path>
<path d="M15.41 9.18L15.41 3.8"  stroke="#000000" stroke-width="2" stroke-opacity="1" fill-opacity="0"></path>
<path d="M1.01 18.08L6.38 18.08"  stroke="#000000" stroke-width="2" stroke-opacity="1" fill-opacity="0"></path>
<path d="M21.92 11.73L25.72 7.93"  stroke="#000000" stroke-width="2" stroke-opacity="1" fill-opacity="0"></path>
<path d="M5.08 28.58L8.88 24.78"  stroke="#000000" stroke-width="2" stroke-opacity="1" fill-opacity="0"></path>
<path d="M4.92 7.93L8.72 11.73"  stroke="#000000" stroke-width="2" stroke-opacity="1" fill-opacity="0"></path>
<path d="M35.44 35.82L23.88 35.82"  stroke="#000000" stroke-width="2" stroke-opacity="1" fill-opacity="0"></path>
<path d="M34.82 35.82C36.51 35.82 37.58 35.82 38 35.82C39.24 35.82 40.47 35.68 41.68 35.39C41.98 35.32 41.38 35.46 41.75 35.38C42.72 35.15 43.64 34.76 44.48 34.23C45.06 33.85 44.42 34.26 44.72 34.07C46.42 32.99 47.55 31.22 47.81 29.22C47.89 28.61 47.76 29.63 47.85 28.95C48.08 27.16 47.63 25.36 46.59 23.89C46.29 23.46 46.91 24.35 46.59 23.89C45.61 22.5 44.23 21.44 42.65 20.83C42.19 20.66 43.64 21.21 43.28 21.08C41.37 20.35 39.3 20.21 37.31 20.66C37.14 20.7 36.73 20.8 36.07 20.95C36.01 20.04 35.97 19.47 35.96 19.24C35.87 17.98 35.4 16.78 34.61 15.8C34.28 15.38 34.94 16.21 34.72 15.93C33.56 14.5 32 13.45 30.24 12.92C29.68 12.75 31.2 13.21 30.77 13.08C28.62 12.43 26.32 12.54 24.25 13.39C23.73 13.61 24.89 13.13 24.25 13.39C22.55 14.09 21.1 15.3 20.1 16.84C19.8 17.31 20.73 15.86 20.51 16.21C19.27 18.12 18.76 20.42 19.07 22.67C19.1 22.88 19.16 23.38 19.28 24.2C18.61 24.17 18.19 24.15 18.03 24.14C15.96 24.06 14.02 25.14 13.01 26.95C12.86 27.22 13.41 26.24 13.09 26.8C12.54 27.8 12.28 28.94 12.37 30.08C12.42 30.81 12.35 29.79 12.37 30.16C12.53 32.38 13.87 34.35 15.87 35.32C16.08 35.42 14.76 34.78 15.3 35.04C16.36 35.56 17.53 35.82 18.71 35.82C19.47 35.82 21.38 35.82 24.42 35.82"  stroke="#000000" stroke-width="2" stroke-opacity="1" fill-opacity="0"></path>
<path d="M26 43.07L22.88 46.2"  stroke="#000000" stroke-width="2" stroke-opacity="1" fill-opacity="0"></path>
<path d="M22.32 38.95L19.19 42.07"  stroke="#000000" stroke-width="2" stroke-opacity="1" fill-opacity="0"></path>
<path d="M37.94 38.95L34.82 42.07"  stroke="#000000" stroke-width="2" stroke-opacity="1" fill-opacity="0"></path>
<path d="M30.13 38.95L27 42.07"  stroke="#000000" stroke-width="2" stroke-opacity="1" fill-opacity="0"></path>
<path d="M33.82 43.07L30.69 46.2"  stroke="#000000" stroke-width="2" stroke-opacity="1" fill-opacity="0"></path>
<path d="M18.19 43.07L15.07 46.2"  stroke="#000000" stroke-width="2" stroke-opacity="1" fill-opacity="0"></path>
</g>
</svg>
