<svg xmlns="http://www.w3.org/2000/svg" viewBox="0 0 50 50" version="1.1">
<g>
<path d="M29.69 30.98C31.39 30.98 32.45 30.98 32.87 30.98C34.11 30.98 35.34 30.83 36.55 30.55C36.86 30.47 36.25 30.62 36.62 30.53C37.59 30.3 38.51 29.91 39.35 29.38C39.93 29.01 39.29 29.42 39.59 29.22C41.29 28.15 42.42 26.37 42.68 24.37C42.76 23.76 42.63 24.78 42.72 24.1C42.95 22.32 42.5 20.51 41.46 19.04C41.16 18.62 41.79 19.5 41.46 19.04C40.48 17.65 39.11 16.59 37.52 15.99C37.06 15.81 38.51 16.37 38.15 16.23C36.24 15.5 34.17 15.36 32.18 15.82C32.01 15.85 31.6 15.95 30.94 16.1C30.88 15.19 30.84 14.62 30.83 14.39C30.74 13.13 30.27 11.93 29.48 10.95C29.15 10.54 29.81 11.36 29.59 11.08C28.43 9.65 26.87 8.6 25.11 8.07C24.56 7.9 26.07 8.36 25.64 8.23C23.5 7.58 21.2 7.69 19.13 8.54C18.6 8.76 19.77 8.28 19.13 8.54C17.42 9.25 15.97 10.45 14.97 11.99C14.67 12.46 15.61 11.02 15.38 11.37C14.14 13.28 13.63 15.57 13.94 17.82C13.97 18.03 14.04 18.54 14.15 19.35C13.48 19.32 13.07 19.3 12.9 19.3C10.83 19.21 8.89 20.29 7.88 22.1C7.73 22.38 8.28 21.39 7.96 21.95C7.41 22.95 7.15 24.09 7.24 25.23C7.29 25.97 7.22 24.95 7.24 25.31C7.4 27.53 8.74 29.5 10.74 30.47C10.95 30.57 9.63 29.93 10.17 30.19C11.23 30.71 12.4 30.98 13.58 30.98C14.34 30.98 16.25 30.98 19.29 30.98"  stroke="#000000" stroke-width="2" stroke-opacity="1" fill-opacity="0"></path>
<path d="M28.99 36.17L28.99 43.1"  stroke="#000000" stroke-width="1" stroke-opacity="1" fill-opacity="0"></path>
<path d="M31.99 37.9L25.99 41.37"  stroke="#000000" stroke-width="1" stroke-opacity="1" fill-opacity="0"></path>
<path d="M31.99 41.37L25.99 37.9"  stroke="#000000" stroke-width="1" stroke-opacity="1" fill-opacity="0"></path>
<path d="M18.72 35.28L23.2 35.28L19.95 40.7L27.63 33.51L24.28 33.41L29.66 27.5L24.97 27.5L18.72 35.28Z"  stroke="#000000" stroke-width="0.5" stroke-opacity="1" fill="#f6e804" fill-opacity="1"></path>
</g>
</svg>
