<svg xmlns="http://www.w3.org/2000/svg" viewBox="0 0 50 50" version="1.1">
<g>
<path d="M24.3 35.02C28.87 35.02 31.73 35.02 32.87 35.02C34.11 35.02 35.34 34.88 36.55 34.59C36.86 34.52 36.25 34.66 36.62 34.57C37.59 34.34 38.51 33.95 39.35 33.42C39.93 33.05 39.29 33.46 39.59 33.27C41.29 32.19 42.42 30.41 42.68 28.42C42.76 27.81 42.63 28.83 42.72 28.14C42.95 26.36 42.5 24.55 41.46 23.08C41.16 22.66 41.79 23.54 41.46 23.08C40.48 21.7 39.11 20.63 37.52 20.03C37.06 19.86 38.51 20.41 38.15 20.27C36.24 19.55 34.17 19.4 32.18 19.86C32.01 19.9 31.6 19.99 30.94 20.14C30.88 19.23 30.84 18.66 30.83 18.43C30.74 17.18 30.27 15.97 29.48 14.99C29.15 14.58 29.81 15.4 29.59 15.13C28.43 13.7 26.87 12.65 25.11 12.11C24.56 11.94 26.07 12.4 25.64 12.27C23.5 11.62 21.2 11.73 19.13 12.59C18.6 12.8 19.77 12.32 19.13 12.59C17.42 13.29 15.97 14.49 14.97 16.04C14.67 16.5 15.61 15.06 15.38 15.41C14.14 17.32 13.63 19.61 13.94 21.87C13.97 22.07 14.04 22.58 14.15 23.39C13.48 23.36 13.07 23.35 12.9 23.34C10.83 23.25 8.89 24.34 7.88 26.14C7.73 26.42 8.28 25.44 7.96 26C7.41 27 7.15 28.14 7.24 29.28C7.29 30.01 7.22 28.99 7.24 29.36C7.4 31.58 8.74 33.54 10.74 34.51C10.95 34.61 9.63 33.98 10.17 34.24C11.23 34.75 12.4 35.02 13.58 35.02C15.03 35.02 18.64 35.02 24.41 35.02"  stroke="#000000" stroke-width="2" stroke-opacity="1" fill-opacity="0"></path>
</g>
</svg>
