<svg xmlns="http://www.w3.org/2000/svg" viewBox="0 0 50 50" version="1.1">
<g>
<path d="M29.69 29.69C31.39 29.69 32.45 29.69 32.87 29.69C34.11 29.69 35.34 29.54 36.55 29.26C36.86 29.18 36.25 29.33 36.62 29.24C37.59 29.01 38.51 28.62 39.35 28.09C39.93 27.72 39.29 28.13 39.59 27.93C41.29 26.86 42.42 25.08 42.68 23.08C42.76 22.48 42.63 23.5 42.72 22.81C42.95 21.03 42.5 19.22 41.46 17.75C41.16 17.33 41.79 18.21 41.46 17.75C40.48 16.37 39.11 15.3 37.52 14.7C37.06 14.52 38.51 15.08 38.15 14.94C36.24 14.21 34.17 14.07 32.18 14.53C32.01 14.56 31.6 14.66 30.94 14.81C30.88 13.9 30.84 13.33 30.83 13.1C30.74 11.84 30.27 10.64 29.48 9.66C29.15 9.25 29.81 10.07 29.59 9.8C28.43 8.36 26.87 7.31 25.11 6.78C24.56 6.61 26.07 7.07 25.64 6.94C23.5 6.29 21.2 6.4 19.13 7.26C18.6 7.47 19.77 6.99 19.13 7.26C17.42 7.96 15.97 9.16 14.97 10.7C14.67 11.17 15.61 9.73 15.38 10.08C14.14 11.99 13.63 14.28 13.94 16.54C13.97 16.74 14.04 17.25 14.15 18.06C13.48 18.03 13.07 18.01 12.9 18.01C10.83 17.92 8.89 19 7.88 20.81C7.73 21.09 8.28 20.11 7.96 20.67C7.41 21.66 7.15 22.8 7.24 23.94C7.29 24.68 7.22 23.66 7.24 24.02C7.4 26.24 8.74 28.21 10.74 29.18C10.95 29.28 9.63 28.64 10.17 28.9C11.23 29.42 12.4 29.69 13.58 29.69C14.34 29.69 16.25 29.69 19.29 29.69"  stroke="#000000" stroke-width="2" stroke-opacity="1" fill-opacity="0"></path>
<path d="M17.99 39.65L14.87 42.77"  stroke="#000000" stroke-width="2" stroke-opacity="1" fill-opacity="0"></path>
<path d="M32.05 39.65L28.92 42.77"  stroke="#000000" stroke-width="2" stroke-opacity="1" fill-opacity="0"></path>
<path d="M32.95 31.95L32.95 38.87"  stroke="#000000" stroke-width="1" stroke-opacity="1" fill-opacity="0"></path>
<path d="M35.95 33.68L29.95 37.14"  stroke="#000000" stroke-width="1" stroke-opacity="1" fill-opacity="0"></path>
<path d="M35.95 37.14L29.95 33.68"  stroke="#000000" stroke-width="1" stroke-opacity="1" fill-opacity="0"></path>
<path d="M14.33 31.95L14.33 38.87"  stroke="#000000" stroke-width="1" stroke-opacity="1" fill-opacity="0"></path>
<path d="M17.33 33.68L11.33 37.14"  stroke="#000000" stroke-width="1" stroke-opacity="1" fill-opacity="0"></path>
<path d="M17.33 37.14L11.33 33.68"  stroke="#000000" stroke-width="1" stroke-opacity="1" fill-opacity="0"></path>
<path d="M18.75 33.99L23.23 33.99L19.98 39.41L27.66 32.22L24.31 32.12L29.69 26.22L25 26.22L18.75 33.99Z"  stroke="#000000" stroke-width="0.5" stroke-opacity="1" fill="#f6e804" fill-opacity="1"></path>
</g>
</svg>
