<svg xmlns="http://www.w3.org/2000/svg" viewBox="0 0 50 50" version="1.1">
<g>
<path d="M21.12 12.27C21.4 12.97 18.7 15.68 18.7 16.48C18.7 18.67 19.03 18.97 18.69 20.16C18.34 21.34 16.61 21.1 15.41 21.1C12.01 21.1 9.26 18.35 9.26 14.96C9.26 11.56 12.01 8.81 15.41 8.81C18.01 8.81 20.22 10 21.12 12.27Z"  stroke="#000000" stroke-width="2" stroke-opacity="0" fill="#fcff00" fill-opacity="1"></path>
<path d="M15.81 21.17C15.27 21.09 14.93 21.05 14.8 21.03C13.1 20.79 11.56 19.92 10.49 18.59C10.15 18.17 10.81 18.99 10.47 18.57C9.41 17.26 8.92 15.57 9.13 13.89C9.2 13.31 9.07 14.36 9.14 13.83C9.36 12.03 10.34 10.42 11.83 9.39C12.22 9.13 11.4 9.7 11.87 9.37C13.1 8.53 14.59 8.15 16.06 8.32C16.68 8.39 15.68 8.27 16.16 8.33C18.05 8.54 19.75 9.6 20.76 11.21C20.85 11.34 21.06 11.68 21.39 12.21"  stroke="#000000" stroke-width="2" stroke-opacity="1" fill-opacity="0"></path>
<path d="M15.41 5.71L15.41 0.34"  stroke="#000000" stroke-width="2" stroke-opacity="1" fill-opacity="0"></path>
<path d="M1.01 14.62L6.38 14.62"  stroke="#000000" stroke-width="2" stroke-opacity="1" fill-opacity="0"></path>
<path d="M21.92 8.26L25.72 4.46"  stroke="#000000" stroke-width="2" stroke-opacity="1" fill-opacity="0"></path>
<path d="M5.08 25.11L8.88 21.31"  stroke="#000000" stroke-width="2" stroke-opacity="1" fill-opacity="0"></path>
<path d="M4.92 4.46L8.72 8.26"  stroke="#000000" stroke-width="2" stroke-opacity="1" fill-opacity="0"></path>
<path d="M35.44 32.36L23.88 32.36"  stroke="#000000" stroke-width="2" stroke-opacity="1" fill-opacity="0"></path>
<path d="M34.82 32.36C36.51 32.36 37.58 32.36 38 32.36C39.24 32.36 40.47 32.21 41.68 31.93C41.98 31.86 41.38 32 41.75 31.91C42.72 31.68 43.64 31.29 44.48 30.76C45.06 30.39 44.42 30.8 44.72 30.61C46.42 29.53 47.55 27.75 47.81 25.76C47.89 25.15 47.76 26.17 47.85 25.48C48.08 23.7 47.63 21.89 46.59 20.42C46.29 20 46.91 20.88 46.59 20.42C45.61 19.04 44.23 17.97 42.65 17.37C42.19 17.19 43.64 17.75 43.28 17.61C41.37 16.89 39.3 16.74 37.31 17.2C37.14 17.24 36.73 17.33 36.07 17.48C36.01 16.57 35.97 16 35.96 15.77C35.87 14.51 35.4 13.31 34.61 12.33C34.28 11.92 34.94 12.74 34.72 12.47C33.56 11.04 32 9.99 30.24 9.45C29.68 9.28 31.2 9.74 30.77 9.61C28.62 8.96 26.32 9.07 24.25 9.93C23.73 10.14 24.89 9.66 24.25 9.93C22.55 10.63 21.1 11.83 20.1 13.38C19.8 13.84 20.73 12.4 20.51 12.75C19.27 14.66 18.76 16.95 19.07 19.21C19.1 19.41 19.16 19.92 19.28 20.73C18.61 20.7 18.19 20.69 18.03 20.68C15.96 20.59 14.02 21.68 13.01 23.48C12.86 23.76 13.41 22.78 13.09 23.34C12.54 24.34 12.28 25.48 12.37 26.62C12.42 27.35 12.35 26.33 12.37 26.69C12.53 28.92 13.87 30.88 15.87 31.85C16.08 31.95 14.76 31.32 15.3 31.57C16.36 32.09 17.53 32.36 18.71 32.36C19.47 32.36 21.38 32.36 24.42 32.36"  stroke="#000000" stroke-width="2" stroke-opacity="1" fill-opacity="0"></path>
<path d="M38.07 34.59L38.07 41.51"  stroke="#000000" stroke-width="1" stroke-opacity="1" fill-opacity="0"></path>
<path d="M41.07 36.32L35.07 39.78"  stroke="#000000" stroke-width="1" stroke-opacity="1" fill-opacity="0"></path>
<path d="M41.07 39.78L35.07 36.32"  stroke="#000000" stroke-width="1" stroke-opacity="1" fill-opacity="0"></path>
<path d="M19.44 34.59L19.44 41.51"  stroke="#000000" stroke-width="1" stroke-opacity="1" fill-opacity="0"></path>
<path d="M22.44 36.32L16.44 39.78"  stroke="#000000" stroke-width="1" stroke-opacity="1" fill-opacity="0"></path>
<path d="M22.44 39.78L16.44 36.32"  stroke="#000000" stroke-width="1" stroke-opacity="1" fill-opacity="0"></path>
<path d="M28.76 34.59L28.76 41.51"  stroke="#000000" stroke-width="1" stroke-opacity="1" fill-opacity="0"></path>
<path d="M31.76 36.32L25.76 39.78"  stroke="#000000" stroke-width="1" stroke-opacity="1" fill-opacity="0"></path>
<path d="M31.76 39.78L25.76 36.32"  stroke="#000000" stroke-width="1" stroke-opacity="1" fill-opacity="0"></path>
<path d="M24 42.74L24 49.66"  stroke="#000000" stroke-width="1" stroke-opacity="1" fill-opacity="0"></path>
<path d="M27 44.47L21.01 47.93"  stroke="#000000" stroke-width="1" stroke-opacity="1" fill-opacity="0"></path>
<path d="M27 47.93L21.01 44.47"  stroke="#000000" stroke-width="1" stroke-opacity="1" fill-opacity="0"></path>
<path d="M33.51 42.74L33.51 49.66"  stroke="#000000" stroke-width="1" stroke-opacity="1" fill-opacity="0"></path>
<path d="M36.5 44.47L30.51 47.93"  stroke="#000000" stroke-width="1" stroke-opacity="1" fill-opacity="0"></path>
<path d="M36.5 47.93L30.51 44.47"  stroke="#000000" stroke-width="1" stroke-opacity="1" fill-opacity="0"></path>
</g>
</svg>
