<svg xmlns="http://www.w3.org/2000/svg" viewBox="0 0 50 50" version="1.1">
<g>
<path d="M26.4 8.13C26.72 7.36 26.93 6.89 27.01 6.7C28.09 4.14 30.3 2.24 32.99 1.56C32.99 1.56 32.99 1.56 32.99 1.56C33.06 2.04 33.11 2.34 33.12 2.46C33.79 7.05 37.63 10.51 42.27 10.7C42.46 10.71 42.95 10.73 43.73 10.76C43.73 10.81 43.74 10.84 43.74 10.85C43.88 13.23 42.82 15.52 40.9 16.94C40.86 16.98 40.75 17.06 40.58 17.18"  stroke="#000000" stroke-width="2" stroke-opacity="1" fill-opacity="0"></path>
<path d="M28.83 32.61C30.52 32.61 31.58 32.61 32.01 32.61C33.25 32.61 34.48 32.46 35.69 32.18C35.99 32.1 35.38 32.25 35.76 32.16C36.73 31.93 37.65 31.54 38.49 31.01C39.07 30.64 38.43 31.05 38.73 30.85C40.43 29.78 41.56 28 41.82 26C41.9 25.4 41.77 26.42 41.86 25.73C42.09 23.95 41.64 22.14 40.6 20.67C40.3 20.25 40.92 21.13 40.6 20.67C39.62 19.29 38.24 18.22 36.65 17.62C36.2 17.44 37.65 18 37.29 17.86C35.38 17.13 33.3 16.99 31.32 17.45C31.15 17.48 30.74 17.58 30.08 17.73C30.02 16.82 29.98 16.25 29.97 16.02C29.88 14.76 29.41 13.56 28.62 12.58C28.29 12.17 28.95 12.99 28.73 12.72C27.57 11.28 26.01 10.23 24.25 9.7C23.69 9.53 25.21 9.99 24.78 9.86C22.63 9.21 20.33 9.32 18.26 10.18C17.74 10.39 18.9 9.91 18.26 10.18C16.56 10.88 15.11 12.08 14.11 13.62C13.81 14.09 14.74 12.65 14.52 13C13.28 14.91 12.77 17.2 13.08 19.46C13.1 19.66 13.17 20.17 13.29 20.98C12.62 20.95 12.2 20.93 12.04 20.93C9.97 20.84 8.03 21.92 7.02 23.73C6.87 24.01 7.41 23.03 7.1 23.59C6.54 24.58 6.29 25.72 6.38 26.86C6.43 27.6 6.35 26.58 6.38 26.94C6.54 29.16 7.88 31.13 9.88 32.1C10.09 32.2 8.77 31.56 9.31 31.82C10.37 32.34 11.54 32.61 12.72 32.61C13.48 32.61 15.38 32.61 18.43 32.61"  stroke="#000000" stroke-width="2" stroke-opacity="1" fill-opacity="0"></path>
<path d="M32.08 34.83L32.08 41.76"  stroke="#000000" stroke-width="1" stroke-opacity="1" fill-opacity="0"></path>
<path d="M35.08 36.57L29.08 40.03"  stroke="#000000" stroke-width="1" stroke-opacity="1" fill-opacity="0"></path>
<path d="M35.08 40.03L29.08 36.57"  stroke="#000000" stroke-width="1" stroke-opacity="1" fill-opacity="0"></path>
<path d="M13.45 34.83L13.45 41.76"  stroke="#000000" stroke-width="1" stroke-opacity="1" fill-opacity="0"></path>
<path d="M16.45 36.57L10.45 40.03"  stroke="#000000" stroke-width="1" stroke-opacity="1" fill-opacity="0"></path>
<path d="M16.45 40.03L10.45 36.57"  stroke="#000000" stroke-width="1" stroke-opacity="1" fill-opacity="0"></path>
<path d="M18.01 42.99L18.01 49.91"  stroke="#000000" stroke-width="1" stroke-opacity="1" fill-opacity="0"></path>
<path d="M21.01 44.72L15.01 48.18"  stroke="#000000" stroke-width="1" stroke-opacity="1" fill-opacity="0"></path>
<path d="M21.01 48.18L15.01 44.72"  stroke="#000000" stroke-width="1" stroke-opacity="1" fill-opacity="0"></path>
<path d="M27.51 42.99L27.51 49.91"  stroke="#000000" stroke-width="1" stroke-opacity="1" fill-opacity="0"></path>
<path d="M30.51 44.72L24.51 48.18"  stroke="#000000" stroke-width="1" stroke-opacity="1" fill-opacity="0"></path>
<path d="M30.51 48.18L24.51 44.72"  stroke="#000000" stroke-width="1" stroke-opacity="1" fill-opacity="0"></path>
<path d="M17.97 36.77L22.45 36.77L19.2 42.19L26.88 35L23.53 34.9L28.91 28.99L24.22 28.99L17.97 36.77Z"  stroke="#000000" stroke-width="0.5" stroke-opacity="1" fill="#f6e804" fill-opacity="1"></path>
</g>
</svg>
