<svg xmlns="http://www.w3.org/2000/svg" viewBox="0 0 50 50" version="1.1">
<g>
<path d="M26.4 9.12C26.72 8.36 26.93 7.88 27.01 7.69C28.09 5.14 30.3 3.24 32.99 2.56C32.99 2.56 32.99 2.56 32.99 2.56C33.06 3.04 33.11 3.34 33.12 3.45C33.79 8.04 37.63 11.5 42.27 11.7C42.46 11.71 42.95 11.73 43.73 11.76C43.73 11.8 43.74 11.83 43.74 11.84C43.88 14.22 42.82 16.52 40.9 17.94C40.86 17.97 40.75 18.05 40.58 18.18"  stroke="#000000" stroke-width="2" stroke-opacity="1" fill-opacity="0"></path>
<path d="M29.45 33.6L17.89 33.6"  stroke="#000000" stroke-width="2" stroke-opacity="1" fill-opacity="0"></path>
<path d="M28.83 33.6C30.52 33.6 31.58 33.6 32.01 33.6C33.25 33.6 34.48 33.46 35.69 33.17C35.99 33.1 35.38 33.24 35.76 33.15C36.73 32.92 37.65 32.54 38.49 32C39.07 31.63 38.43 32.04 38.73 31.85C40.43 30.77 41.56 28.99 41.82 27C41.9 26.39 41.77 27.41 41.86 26.73C42.09 24.94 41.64 23.13 40.6 21.67C40.3 21.24 40.92 22.12 40.6 21.67C39.62 20.28 38.24 19.22 36.65 18.61C36.2 18.44 37.65 18.99 37.29 18.85C35.38 18.13 33.3 17.98 31.32 18.44C31.15 18.48 30.74 18.57 30.08 18.73C30.02 17.81 29.98 17.24 29.97 17.02C29.88 15.76 29.41 14.56 28.62 13.57C28.29 13.16 28.95 13.98 28.73 13.71C27.57 12.28 26.01 11.23 24.25 10.7C23.69 10.53 25.21 10.99 24.78 10.85C22.63 10.21 20.33 10.32 18.26 11.17C17.74 11.38 18.9 10.91 18.26 11.17C16.56 11.87 15.11 13.07 14.11 14.62C13.81 15.09 14.74 13.64 14.52 13.99C13.28 15.9 12.77 18.19 13.08 20.45C13.1 20.65 13.17 21.16 13.29 21.98C12.62 21.95 12.2 21.93 12.04 21.92C9.97 21.83 8.03 22.92 7.02 24.73C6.87 25 7.41 24.02 7.1 24.58C6.54 25.58 6.29 26.72 6.38 27.86C6.43 28.59 6.35 27.57 6.38 27.94C6.54 30.16 7.88 32.12 9.88 33.1C10.09 33.2 8.77 32.56 9.31 32.82C10.37 33.33 11.54 33.6 12.72 33.6C13.48 33.6 15.38 33.6 18.43 33.6"  stroke="#000000" stroke-width="2" stroke-opacity="1" fill-opacity="0"></path>
<path d="M32.08 35.83L32.08 42.76"  stroke="#000000" stroke-width="1" stroke-opacity="1" fill-opacity="0"></path>
<path d="M35.08 37.56L29.08 41.02"  stroke="#000000" stroke-width="1" stroke-opacity="1" fill-opacity="0"></path>
<path d="M35.08 41.02L29.08 37.56"  stroke="#000000" stroke-width="1" stroke-opacity="1" fill-opacity="0"></path>
<path d="M13.45 35.83L13.45 42.76"  stroke="#000000" stroke-width="1" stroke-opacity="1" fill-opacity="0"></path>
<path d="M16.45 37.56L10.45 41.02"  stroke="#000000" stroke-width="1" stroke-opacity="1" fill-opacity="0"></path>
<path d="M16.45 41.02L10.45 37.56"  stroke="#000000" stroke-width="1" stroke-opacity="1" fill-opacity="0"></path>
<path d="M22.77 40.52L22.77 47.44"  stroke="#000000" stroke-width="1" stroke-opacity="1" fill-opacity="0"></path>
<path d="M25.77 42.25L19.77 45.71"  stroke="#000000" stroke-width="1" stroke-opacity="1" fill-opacity="0"></path>
<path d="M25.77 45.71L19.77 42.25"  stroke="#000000" stroke-width="1" stroke-opacity="1" fill-opacity="0"></path>
</g>
</svg>
