<svg xmlns="http://www.w3.org/2000/svg" viewBox="0 0 50 50" version="1.1">
<g>
<path d="M21.22 14.87C21.5 15.57 18.8 18.28 18.8 19.07C18.8 21.26 19.13 21.56 18.78 22.75C18.44 23.94 16.71 23.7 15.5 23.7C12.11 23.7 9.35 20.94 9.35 17.55C9.35 14.15 12.11 11.4 15.5 11.4C18.1 11.4 20.32 12.59 21.22 14.87Z"  stroke="#000000" stroke-width="2" stroke-opacity="0" fill="#fcff00" fill-opacity="1"></path>
<path d="M15.9 23.76C15.36 23.69 15.03 23.64 14.89 23.62C13.2 23.38 11.66 22.51 10.58 21.18C10.25 20.77 10.91 21.58 10.57 21.17C9.5 19.85 9.02 18.16 9.23 16.48C9.3 15.9 9.17 16.96 9.24 16.42C9.46 14.62 10.44 13.01 11.93 11.99C12.32 11.72 11.49 12.29 11.97 11.96C13.2 11.12 14.68 10.75 16.16 10.91C16.78 10.98 15.78 10.87 16.26 10.92C18.15 11.13 19.84 12.19 20.86 13.8C20.94 13.94 21.15 14.27 21.49 14.8"  stroke="#000000" stroke-width="2" stroke-opacity="1" fill-opacity="0"></path>
<path d="M15.51 8.3L15.51 2.93"  stroke="#000000" stroke-width="2" stroke-opacity="1" fill-opacity="0"></path>
<path d="M1.1 17.21L6.48 17.21"  stroke="#000000" stroke-width="2" stroke-opacity="1" fill-opacity="0"></path>
<path d="M22.02 10.85L25.82 7.05"  stroke="#000000" stroke-width="2" stroke-opacity="1" fill-opacity="0"></path>
<path d="M5.17 27.7L8.97 23.9"  stroke="#000000" stroke-width="2" stroke-opacity="1" fill-opacity="0"></path>
<path d="M5.02 7.05L8.82 10.85"  stroke="#000000" stroke-width="2" stroke-opacity="1" fill-opacity="0"></path>
<path d="M34.91 34.95C36.61 34.95 37.67 34.95 38.1 34.95C39.34 34.95 40.57 34.81 41.77 34.52C42.08 34.45 41.47 34.59 41.85 34.5C42.82 34.27 43.74 33.88 44.57 33.35C45.16 32.98 44.52 33.39 44.82 33.2C46.52 32.12 47.65 30.34 47.91 28.35C47.99 27.74 47.86 28.76 47.94 28.07C48.18 26.29 47.73 24.48 46.69 23.02C46.39 22.59 47.01 23.47 46.69 23.02C45.7 21.63 44.33 20.57 42.74 19.96C42.28 19.79 43.74 20.34 43.38 20.2C41.47 19.48 39.39 19.33 37.4 19.79C37.24 19.83 36.83 19.92 36.17 20.07C36.11 19.16 36.07 18.59 36.05 18.37C35.97 17.11 35.5 15.9 34.71 14.92C34.37 14.51 35.04 15.33 34.82 15.06C33.66 13.63 32.1 12.58 30.34 12.04C29.78 11.88 31.3 12.33 30.86 12.2C28.72 11.55 26.42 11.67 24.35 12.52C23.83 12.73 24.99 12.26 24.35 12.52C22.65 13.22 21.2 14.42 20.2 15.97C19.89 16.44 20.83 14.99 20.6 15.34C19.37 17.25 18.85 19.54 19.16 21.8C19.19 22 19.26 22.51 19.37 23.32C18.71 23.3 18.29 23.28 18.12 23.27C16.06 23.18 14.12 24.27 13.11 26.07C12.95 26.35 13.5 25.37 13.19 25.93C12.63 26.93 12.38 28.07 12.46 29.21C12.52 29.94 12.44 28.92 12.47 29.29C12.63 31.51 13.96 33.47 15.97 34.45C16.18 34.55 14.86 33.91 15.39 34.17C16.46 34.68 17.63 34.95 18.81 34.95C19.57 34.95 21.47 34.95 24.51 34.95"  stroke="#000000" stroke-width="2" stroke-opacity="1" fill-opacity="0"></path>
<path d="M34.21 40.14L34.21 47.07"  stroke="#000000" stroke-width="1" stroke-opacity="1" fill-opacity="0"></path>
<path d="M37.21 41.88L31.22 45.34"  stroke="#000000" stroke-width="1" stroke-opacity="1" fill-opacity="0"></path>
<path d="M37.21 45.34L31.22 41.88"  stroke="#000000" stroke-width="1" stroke-opacity="1" fill-opacity="0"></path>
<path d="M23.95 39.26L28.43 39.26L25.18 44.67L32.86 37.49L29.51 37.39L34.89 31.48L30.2 31.48L23.95 39.26Z"  stroke="#000000" stroke-width="0.5" stroke-opacity="1" fill="#f6e804" fill-opacity="1"></path>
</g>
</svg>
