<svg xmlns="http://www.w3.org/2000/svg" viewBox="0 0 50 50" version="1.1">
<g>
<path d="M29.69 28.3C31.39 28.3 32.45 28.3 32.87 28.3C34.11 28.3 35.34 28.15 36.55 27.86C36.86 27.79 36.25 27.94 36.62 27.85C37.59 27.62 38.51 27.23 39.35 26.7C39.93 26.33 39.29 26.73 39.59 26.54C41.29 25.46 42.42 23.69 42.68 21.69C42.76 21.08 42.63 22.1 42.72 21.42C42.95 19.63 42.5 17.83 41.46 16.36C41.16 15.93 41.79 16.82 41.46 16.36C40.48 14.97 39.11 13.91 37.52 13.31C37.06 13.13 38.51 13.68 38.15 13.55C36.24 12.82 34.17 12.68 32.18 13.13C32.01 13.17 31.6 13.27 30.94 13.42C30.88 12.51 30.84 11.94 30.83 11.71C30.74 10.45 30.27 9.25 29.48 8.27C29.15 7.85 29.81 8.68 29.59 8.4C28.43 6.97 26.87 5.92 25.11 5.39C24.56 5.22 26.07 5.68 25.64 5.55C23.5 4.9 21.2 5.01 19.13 5.86C18.6 6.08 19.77 5.6 19.13 5.86C17.42 6.56 15.97 7.77 14.97 9.31C14.67 9.78 15.61 8.34 15.38 8.69C14.14 10.6 13.63 12.89 13.94 15.14C13.97 15.35 14.04 15.85 14.15 16.67C13.48 16.64 13.07 16.62 12.9 16.62C10.83 16.53 8.89 17.61 7.88 19.42C7.73 19.7 8.28 18.71 7.96 19.27C7.41 20.27 7.15 21.41 7.24 22.55C7.29 23.29 7.22 22.27 7.24 22.63C7.4 24.85 8.74 26.82 10.74 27.79C10.95 27.89 9.63 27.25 10.17 27.51C11.23 28.03 12.4 28.3 13.58 28.3C14.34 28.3 16.25 28.3 19.29 28.3"  stroke="#000000" stroke-width="2" stroke-opacity="1" fill-opacity="0"></path>
<path d="M32.94 30.52L32.94 37.45"  stroke="#000000" stroke-width="1" stroke-opacity="1" fill-opacity="0"></path>
<path d="M35.94 32.25L29.94 35.72"  stroke="#000000" stroke-width="1" stroke-opacity="1" fill-opacity="0"></path>
<path d="M35.94 35.72L29.94 32.25"  stroke="#000000" stroke-width="1" stroke-opacity="1" fill-opacity="0"></path>
<path d="M14.31 30.52L14.31 37.45"  stroke="#000000" stroke-width="1" stroke-opacity="1" fill-opacity="0"></path>
<path d="M17.31 32.25L11.31 35.72"  stroke="#000000" stroke-width="1" stroke-opacity="1" fill-opacity="0"></path>
<path d="M17.31 35.72L11.31 32.25"  stroke="#000000" stroke-width="1" stroke-opacity="1" fill-opacity="0"></path>
<path d="M18.88 38.67L18.88 45.6"  stroke="#000000" stroke-width="1" stroke-opacity="1" fill-opacity="0"></path>
<path d="M21.87 40.4L15.88 43.87"  stroke="#000000" stroke-width="1" stroke-opacity="1" fill-opacity="0"></path>
<path d="M21.87 43.87L15.88 40.4"  stroke="#000000" stroke-width="1" stroke-opacity="1" fill-opacity="0"></path>
<path d="M28.38 38.67L28.38 45.6"  stroke="#000000" stroke-width="1" stroke-opacity="1" fill-opacity="0"></path>
<path d="M31.38 40.4L25.38 43.87"  stroke="#000000" stroke-width="1" stroke-opacity="1" fill-opacity="0"></path>
<path d="M31.38 43.87L25.38 40.4"  stroke="#000000" stroke-width="1" stroke-opacity="1" fill-opacity="0"></path>
<path d="M18.75 32.6L23.23 32.6L19.98 38.02L27.66 30.83L24.31 30.73L29.69 24.82L25 24.82L18.75 32.6Z"  stroke="#000000" stroke-width="0.5" stroke-opacity="1" fill="#f6e804" fill-opacity="1"></path>
</g>
</svg>
