<svg xmlns="http://www.w3.org/2000/svg" viewBox="0 0 50 50" version="1.1">
<g>
<path d="M26.4 11.25C26.72 10.49 26.93 10.01 27.01 9.82C28.09 7.27 30.3 5.37 32.99 4.69C32.99 4.69 32.99 4.69 32.99 4.69C33.06 5.17 33.11 5.47 33.12 5.59C33.79 10.17 37.63 13.63 42.27 13.83C42.46 13.84 42.95 13.86 43.73 13.89C43.73 13.94 43.74 13.96 43.74 13.98C43.88 16.35 42.82 18.65 40.9 20.07C40.86 20.1 40.75 20.18 40.58 20.31"  stroke="#000000" stroke-width="2" stroke-opacity="1" fill-opacity="0"></path>
<path d="M28.83 35.73C30.52 35.73 31.58 35.73 32.01 35.73C33.25 35.73 34.48 35.59 35.69 35.3C35.99 35.23 35.38 35.37 35.76 35.28C36.73 35.05 37.65 34.67 38.49 34.13C39.07 33.76 38.43 34.17 38.73 33.98C40.43 32.9 41.56 31.13 41.82 29.13C41.9 28.52 41.77 29.54 41.86 28.86C42.09 27.07 41.64 25.27 40.6 23.8C40.3 23.37 40.92 24.25 40.6 23.8C39.62 22.41 38.24 21.35 36.65 20.74C36.2 20.57 37.65 21.12 37.29 20.98C35.38 20.26 33.3 20.12 31.32 20.57C31.15 20.61 30.74 20.7 30.08 20.86C30.02 19.94 29.98 19.38 29.97 19.15C29.88 17.89 29.41 16.69 28.62 15.7C28.29 15.29 28.95 16.12 28.73 15.84C27.57 14.41 26.01 13.36 24.25 12.83C23.69 12.66 25.21 13.12 24.78 12.98C22.63 12.34 20.33 12.45 18.26 13.3C17.74 13.52 18.9 13.04 18.26 13.3C16.56 14 15.11 15.2 14.11 16.75C13.81 17.22 14.74 15.77 14.52 16.12C13.28 18.03 12.77 20.32 13.08 22.58C13.1 22.78 13.17 23.29 13.29 24.11C12.62 24.08 12.2 24.06 12.04 24.05C9.97 23.96 8.03 25.05 7.02 26.86C6.87 27.13 7.41 26.15 7.1 26.71C6.54 27.71 6.29 28.85 6.38 29.99C6.43 30.72 6.35 29.7 6.38 30.07C6.54 32.29 7.88 34.26 9.88 35.23C10.09 35.33 8.77 34.69 9.31 34.95C10.37 35.46 11.54 35.73 12.72 35.73C13.48 35.73 15.38 35.73 18.43 35.73"  stroke="#000000" stroke-width="2" stroke-opacity="1" fill-opacity="0"></path>
<path d="M32.06 37.97L32.06 44.89"  stroke="#000000" stroke-width="1" stroke-opacity="1" fill-opacity="0"></path>
<path d="M35.06 39.7L29.06 43.16"  stroke="#000000" stroke-width="1" stroke-opacity="1" fill-opacity="0"></path>
<path d="M35.06 43.16L29.06 39.7"  stroke="#000000" stroke-width="1" stroke-opacity="1" fill-opacity="0"></path>
<path d="M13.44 37.97L13.44 44.89"  stroke="#000000" stroke-width="1" stroke-opacity="1" fill-opacity="0"></path>
<path d="M16.44 39.7L10.44 43.16"  stroke="#000000" stroke-width="1" stroke-opacity="1" fill-opacity="0"></path>
<path d="M16.44 43.16L10.44 39.7"  stroke="#000000" stroke-width="1" stroke-opacity="1" fill-opacity="0"></path>
<path d="M17.87 40.05L22.35 40.05L19.1 45.46L26.78 38.27L23.43 38.18L28.81 32.27L24.12 32.27L17.87 40.05Z"  stroke="#000000" stroke-width="0.5" stroke-opacity="1" fill="#f6e804" fill-opacity="1"></path>
</g>
</svg>
