<svg xmlns="http://www.w3.org/2000/svg" viewBox="0 0 50 50" version="1.1">
<g>
<path d="M21.32 15.74C21.59 16.44 18.9 19.15 18.9 19.95C18.9 22.14 19.23 22.43 18.88 23.62C18.53 24.81 16.81 24.57 15.6 24.57C12.21 24.57 9.45 21.81 9.45 18.42C9.45 15.03 12.21 12.27 15.6 12.27C18.2 12.27 20.42 13.46 21.32 15.74Z"  stroke="#000000" stroke-width="2" stroke-opacity="0" fill="#fcff00" fill-opacity="1"></path>
<path d="M16 24.63C15.46 24.56 15.13 24.51 14.99 24.49C13.3 24.25 11.76 23.38 10.68 22.05C10.34 21.64 11 22.46 10.67 22.04C9.6 20.72 9.12 19.03 9.33 17.35C9.4 16.77 9.27 17.83 9.33 17.29C9.56 15.5 10.54 13.88 12.03 12.86C12.42 12.59 11.59 13.16 12.07 12.83C13.29 11.99 14.78 11.62 16.26 11.78C16.88 11.85 15.88 11.74 16.35 11.79C18.25 12 19.94 13.06 20.96 14.67C21.04 14.81 21.25 15.14 21.59 15.68"  stroke="#000000" stroke-width="2" stroke-opacity="1" fill-opacity="0"></path>
<path d="M15.61 9.18L15.61 3.8"  stroke="#000000" stroke-width="2" stroke-opacity="1" fill-opacity="0"></path>
<path d="M1.2 18.08L6.58 18.08"  stroke="#000000" stroke-width="2" stroke-opacity="1" fill-opacity="0"></path>
<path d="M22.11 11.73L25.91 7.93"  stroke="#000000" stroke-width="2" stroke-opacity="1" fill-opacity="0"></path>
<path d="M5.27 28.58L9.07 24.78"  stroke="#000000" stroke-width="2" stroke-opacity="1" fill-opacity="0"></path>
<path d="M5.11 7.93L8.91 11.73"  stroke="#000000" stroke-width="2" stroke-opacity="1" fill-opacity="0"></path>
<path d="M35.01 35.82C36.71 35.82 37.77 35.82 38.19 35.82C39.43 35.82 40.67 35.68 41.87 35.39C42.18 35.32 41.57 35.46 41.95 35.38C42.91 35.15 43.83 34.76 44.67 34.23C45.26 33.85 44.61 34.26 44.91 34.07C46.61 32.99 47.75 31.22 48.01 29.22C48.08 28.61 47.95 29.63 48.04 28.95C48.27 27.16 47.82 25.36 46.78 23.89C46.48 23.46 47.11 24.35 46.78 23.89C45.8 22.5 44.43 21.44 42.84 20.83C42.38 20.66 43.83 21.21 43.47 21.08C41.57 20.35 39.49 20.21 37.5 20.66C37.34 20.7 36.92 20.8 36.26 20.95C36.2 20.04 36.16 19.47 36.15 19.24C36.07 17.98 35.6 16.78 34.8 15.8C34.47 15.38 35.13 16.21 34.91 15.93C33.76 14.5 32.2 13.45 30.44 12.92C29.88 12.75 31.4 13.21 30.96 13.08C28.82 12.43 26.52 12.54 24.45 13.39C23.93 13.61 25.09 13.13 24.45 13.39C22.75 14.09 21.3 15.3 20.29 16.84C19.99 17.31 20.93 15.86 20.7 16.21C19.46 18.12 18.95 20.42 19.26 22.67C19.29 22.88 19.36 23.38 19.47 24.2C18.8 24.17 18.39 24.15 18.22 24.14C16.15 24.06 14.21 25.14 13.21 26.95C13.05 27.22 13.6 26.24 13.29 26.8C12.73 27.8 12.48 28.94 12.56 30.08C12.61 30.81 12.54 29.79 12.57 30.16C12.73 32.38 14.06 34.35 16.06 35.32C16.27 35.42 14.96 34.78 15.49 35.04C16.56 35.56 17.72 35.82 18.91 35.82C19.67 35.82 21.57 35.82 24.61 35.82"  stroke="#000000" stroke-width="2" stroke-opacity="1" fill-opacity="0"></path>
<path d="M22.51 38.95L19.39 42.07"  stroke="#000000" stroke-width="2" stroke-opacity="1" fill-opacity="0"></path>
<path d="M38.14 38.95L35.01 42.07"  stroke="#000000" stroke-width="2" stroke-opacity="1" fill-opacity="0"></path>
<path d="M18.39 43.07L15.26 46.2"  stroke="#000000" stroke-width="2" stroke-opacity="1" fill-opacity="0"></path>
<path d="M34.01 43.07L30.89 46.2"  stroke="#000000" stroke-width="2" stroke-opacity="1" fill-opacity="0"></path>
<path d="M24.07 40.13L28.55 40.13L25.3 45.55L32.98 38.36L29.63 38.26L35.01 32.35L30.32 32.35L24.07 40.13Z"  stroke="#000000" stroke-width="0.5" stroke-opacity="1" fill="#f6e804" fill-opacity="1"></path>
</g>
</svg>
