<svg xmlns="http://www.w3.org/2000/svg" viewBox="0 0 50 50" version="1.1">
<g>
<path d="M26.4 14.48C26.72 13.72 26.93 13.24 27.01 13.05C28.09 10.5 30.3 8.6 32.99 7.92C32.99 7.92 32.99 7.92 32.99 7.92C33.06 8.39 33.11 8.69 33.12 8.81C33.79 13.4 37.63 16.86 42.27 17.06C42.46 17.06 42.95 17.08 43.73 17.12C43.73 17.16 43.74 17.19 43.74 17.2C43.88 19.58 42.82 21.87 40.9 23.3C40.86 23.33 40.75 23.41 40.58 23.54"  stroke="#000000" stroke-width="2" stroke-opacity="1" fill-opacity="0"></path>
<path d="M29.45 38.96L17.89 38.96"  stroke="#000000" stroke-width="2" stroke-opacity="1" fill-opacity="0"></path>
<path d="M28.83 38.96C30.52 38.96 31.58 38.96 32.01 38.96C33.25 38.96 34.48 38.82 35.69 38.53C35.99 38.46 35.38 38.6 35.76 38.51C36.73 38.28 37.65 37.89 38.49 37.36C39.07 36.99 38.43 37.4 38.73 37.21C40.43 36.13 41.56 34.35 41.82 32.36C41.9 31.75 41.77 32.77 41.86 32.08C42.09 30.3 41.64 28.49 40.6 27.03C40.3 26.6 40.92 27.48 40.6 27.03C39.62 25.64 38.24 24.57 36.65 23.97C36.2 23.8 37.65 24.35 37.29 24.21C35.38 23.49 33.3 23.34 31.32 23.8C31.15 23.84 30.74 23.93 30.08 24.08C30.02 23.17 29.98 22.6 29.97 22.37C29.88 21.12 29.41 19.91 28.62 18.93C28.29 18.52 28.95 19.34 28.73 19.07C27.57 17.64 26.01 16.59 24.25 16.05C23.69 15.88 25.21 16.34 24.78 16.21C22.63 15.56 20.33 15.68 18.26 16.53C17.74 16.74 18.9 16.26 18.26 16.53C16.56 17.23 15.11 18.43 14.11 19.98C13.81 20.44 14.74 19 14.52 19.35C13.28 21.26 12.77 23.55 13.08 25.81C13.1 26.01 13.17 26.52 13.29 27.33C12.62 27.3 12.2 27.29 12.04 27.28C9.97 27.19 8.03 28.28 7.02 30.08C6.87 30.36 7.41 29.38 7.1 29.94C6.54 30.94 6.29 32.08 6.38 33.22C6.43 33.95 6.35 32.93 6.38 33.3C6.54 35.52 7.88 37.48 9.88 38.45C10.09 38.56 8.77 37.92 9.31 38.18C10.37 38.69 11.54 38.96 12.72 38.96C13.48 38.96 15.38 38.96 18.43 38.96"  stroke="#000000" stroke-width="2" stroke-opacity="1" fill-opacity="0"></path>
</g>
</svg>
