<svg xmlns="http://www.w3.org/2000/svg" viewBox="0 0 50 50" version="1.1">
<g>
<path d="M21.02 13.7C21.3 14.4 18.6 17.11 18.6 17.91C18.6 20.1 18.93 20.4 18.58 21.59C18.24 22.77 16.51 22.53 15.3 22.53C11.91 22.53 9.15 19.78 9.15 16.38C9.15 12.99 11.91 10.24 15.3 10.24C17.9 10.24 20.12 11.43 21.02 13.7Z"  stroke="#000000" stroke-width="2" stroke-opacity="0" fill="#fcff00" fill-opacity="1"></path>
<path d="M15.7 22.6C15.16 22.52 14.83 22.47 14.69 22.46C13 22.22 11.46 21.35 10.38 20.02C10.04 19.6 10.71 20.42 10.37 20C9.3 18.69 8.82 16.99 9.03 15.31C9.1 14.74 8.97 15.79 9.04 15.25C9.26 13.46 10.24 11.85 11.73 10.82C12.12 10.56 11.29 11.12 11.77 10.8C12.99 9.95 14.48 9.58 15.96 9.75C16.58 9.81 15.58 9.7 16.06 9.76C17.95 9.97 19.64 11.03 20.66 12.64C20.74 12.77 20.95 13.11 21.29 13.64"  stroke="#000000" stroke-width="2" stroke-opacity="1" fill-opacity="0"></path>
<path d="M15.31 7.14L15.31 1.77"  stroke="#000000" stroke-width="2" stroke-opacity="1" fill-opacity="0"></path>
<path d="M0.9 16.05L6.28 16.05"  stroke="#000000" stroke-width="2" stroke-opacity="1" fill-opacity="0"></path>
<path d="M21.82 9.69L25.62 5.89"  stroke="#000000" stroke-width="2" stroke-opacity="1" fill-opacity="0"></path>
<path d="M4.97 26.54L8.77 22.74"  stroke="#000000" stroke-width="2" stroke-opacity="1" fill-opacity="0"></path>
<path d="M4.82 5.89L8.62 9.69"  stroke="#000000" stroke-width="2" stroke-opacity="1" fill-opacity="0"></path>
<path d="M34.71 33.79C36.41 33.79 37.47 33.79 37.9 33.79C39.13 33.79 40.37 33.64 41.57 33.36C41.88 33.28 41.27 33.43 41.65 33.34C42.61 33.11 43.54 32.72 44.37 32.19C44.96 31.82 44.31 32.23 44.62 32.03C46.32 30.96 47.45 29.18 47.71 27.19C47.79 26.58 47.65 27.6 47.74 26.91C47.98 25.13 47.53 23.32 46.49 21.85C46.19 21.43 46.81 22.31 46.49 21.85C45.5 20.47 44.13 19.4 42.54 18.8C42.08 18.62 43.54 19.18 43.18 19.04C41.27 18.31 39.19 18.17 37.2 18.63C37.04 18.66 36.63 18.76 35.97 18.91C35.91 18 35.87 17.43 35.85 17.2C35.77 15.94 35.3 14.74 34.5 13.76C34.17 13.35 34.84 14.17 34.61 13.9C33.46 12.46 31.9 11.41 30.14 10.88C29.58 10.71 31.1 11.17 30.66 11.04C28.52 10.39 26.22 10.5 24.15 11.36C23.63 11.57 24.79 11.09 24.15 11.36C22.45 12.06 21 13.26 20 14.8C19.69 15.27 20.63 13.83 20.4 14.18C19.16 16.09 18.65 18.38 18.96 20.64C18.99 20.84 19.06 21.35 19.17 22.16C18.51 22.13 18.09 22.11 17.92 22.11C15.86 22.02 13.92 23.1 12.91 24.91C12.75 25.19 13.3 24.21 12.99 24.77C12.43 25.76 12.18 26.9 12.26 28.04C12.32 28.78 12.24 27.76 12.27 28.12C12.43 30.34 13.76 32.31 15.77 33.28C15.98 33.38 14.66 32.75 15.19 33C16.26 33.52 17.43 33.79 18.61 33.79C19.37 33.79 21.27 33.79 24.31 33.79"  stroke="#000000" stroke-width="2" stroke-opacity="1" fill-opacity="0"></path>
<path d="M23.02 43.75L19.89 46.88"  stroke="#000000" stroke-width="2" stroke-opacity="1" fill-opacity="0"></path>
<path d="M37.07 43.75L33.95 46.87"  stroke="#000000" stroke-width="2" stroke-opacity="1" fill-opacity="0"></path>
<path d="M37.98 36.05L37.98 42.97"  stroke="#000000" stroke-width="1" stroke-opacity="1" fill-opacity="0"></path>
<path d="M40.98 37.78L34.98 41.24"  stroke="#000000" stroke-width="1" stroke-opacity="1" fill-opacity="0"></path>
<path d="M40.98 41.24L34.98 37.78"  stroke="#000000" stroke-width="1" stroke-opacity="1" fill-opacity="0"></path>
<path d="M19.35 36.05L19.35 42.97"  stroke="#000000" stroke-width="1" stroke-opacity="1" fill-opacity="0"></path>
<path d="M22.35 37.78L16.35 41.24"  stroke="#000000" stroke-width="1" stroke-opacity="1" fill-opacity="0"></path>
<path d="M22.35 41.24L16.35 37.78"  stroke="#000000" stroke-width="1" stroke-opacity="1" fill-opacity="0"></path>
<path d="M23.78 38.09L28.25 38.09L25 43.51L32.68 36.32L29.34 36.22L34.71 30.32L30.03 30.32L23.78 38.09Z"  stroke="#000000" stroke-width="0.5" stroke-opacity="1" fill="#f6e804" fill-opacity="1"></path>
</g>
</svg>
