<svg xmlns="http://www.w3.org/2000/svg" viewBox="0 0 50 50" version="1.1">
<g>
<path d="M26.4 10.85C26.72 10.09 26.93 9.61 27.01 9.42C28.09 6.87 30.3 4.97 32.99 4.29C32.99 4.29 32.99 4.29 32.99 4.29C33.06 4.77 33.11 5.07 33.12 5.19C33.79 9.78 37.63 13.24 42.27 13.43C42.46 13.44 42.95 13.46 43.73 13.49C43.73 13.54 43.74 13.57 43.74 13.58C43.88 15.96 42.82 18.25 40.9 19.67C40.86 19.7 40.75 19.78 40.58 19.91"  stroke="#000000" stroke-width="2" stroke-opacity="1" fill-opacity="0"></path>
<path d="M28.83 35.33C30.52 35.33 31.58 35.33 32.01 35.33C33.25 35.33 34.48 35.19 35.69 34.9C35.99 34.83 35.38 34.98 35.76 34.89C36.73 34.66 37.65 34.27 38.49 33.74C39.07 33.37 38.43 33.77 38.73 33.58C40.43 32.5 41.56 30.73 41.82 28.73C41.9 28.12 41.77 29.14 41.86 28.46C42.09 26.67 41.64 24.87 40.6 23.4C40.3 22.97 40.92 23.86 40.6 23.4C39.62 22.01 38.24 20.95 36.65 20.35C36.2 20.17 37.65 20.72 37.29 20.59C35.38 19.86 33.3 19.72 31.32 20.17C31.15 20.21 30.74 20.31 30.08 20.46C30.02 19.55 29.98 18.98 29.97 18.75C29.88 17.49 29.41 16.29 28.62 15.31C28.29 14.89 28.95 15.72 28.73 15.44C27.57 14.01 26.01 12.96 24.25 12.43C23.69 12.26 25.21 12.72 24.78 12.59C22.63 11.94 20.33 12.05 18.26 12.9C17.74 13.12 18.9 12.64 18.26 12.9C16.56 13.6 15.11 14.81 14.11 16.35C13.81 16.82 14.74 15.38 14.52 15.72C13.28 17.64 12.77 19.93 13.08 22.18C13.1 22.39 13.17 22.89 13.29 23.71C12.62 23.68 12.2 23.66 12.04 23.65C9.97 23.57 8.03 24.65 7.02 26.46C6.87 26.74 7.41 25.75 7.1 26.31C6.54 27.31 6.29 28.45 6.38 29.59C6.43 30.33 6.35 29.31 6.38 29.67C6.54 31.89 7.88 33.86 9.88 34.83C10.09 34.93 8.77 34.29 9.31 34.55C10.37 35.07 11.54 35.33 12.72 35.33C13.48 35.33 15.38 35.33 18.43 35.33"  stroke="#000000" stroke-width="2" stroke-opacity="1" fill-opacity="0"></path>
<path d="M16.33 38.46L13.2 41.58"  stroke="#000000" stroke-width="2" stroke-opacity="1" fill-opacity="0"></path>
<path d="M31.95 38.46L28.83 41.58"  stroke="#000000" stroke-width="2" stroke-opacity="1" fill-opacity="0"></path>
<path d="M12.2 42.58L9.08 45.71"  stroke="#000000" stroke-width="2" stroke-opacity="1" fill-opacity="0"></path>
<path d="M27.83 42.58L24.7 45.71"  stroke="#000000" stroke-width="2" stroke-opacity="1" fill-opacity="0"></path>
<path d="M17.89 39.64L22.37 39.64L19.12 45.06L26.8 37.87L23.45 37.77L28.83 31.86L24.14 31.86L17.89 39.64Z"  stroke="#000000" stroke-width="0.5" stroke-opacity="1" fill="#f6e804" fill-opacity="1"></path>
</g>
</svg>
