<svg xmlns="http://www.w3.org/2000/svg" viewBox="0 0 50 50" version="1.1">
<g>
<path d="M21.22 16.36C21.5 17.06 18.8 19.77 18.8 20.57C18.8 22.76 19.13 23.06 18.78 24.25C18.44 25.43 16.71 25.19 15.5 25.19C12.11 25.19 9.35 22.44 9.35 19.04C9.35 15.65 12.11 12.9 15.5 12.9C18.1 12.9 20.32 14.09 21.22 16.36Z"  stroke="#000000" stroke-width="2" stroke-opacity="0" fill="#fcff00" fill-opacity="1"></path>
<path d="M15.9 25.26C15.36 25.18 15.03 25.13 14.89 25.12C13.2 24.88 11.66 24.01 10.58 22.68C10.25 22.26 10.91 23.08 10.57 22.66C9.5 21.35 9.02 19.65 9.23 17.97C9.3 17.4 9.17 18.45 9.24 17.91C9.46 16.12 10.44 14.51 11.93 13.48C12.32 13.22 11.49 13.78 11.97 13.46C13.2 12.61 14.68 12.24 16.16 12.41C16.78 12.47 15.78 12.36 16.26 12.42C18.15 12.63 19.84 13.69 20.86 15.3C20.94 15.43 21.15 15.77 21.49 16.3"  stroke="#000000" stroke-width="2" stroke-opacity="1" fill-opacity="0"></path>
<path d="M15.51 9.8L15.51 4.42"  stroke="#000000" stroke-width="2" stroke-opacity="1" fill-opacity="0"></path>
<path d="M1.1 18.71L6.48 18.71"  stroke="#000000" stroke-width="2" stroke-opacity="1" fill-opacity="0"></path>
<path d="M22.02 12.35L25.82 8.55"  stroke="#000000" stroke-width="2" stroke-opacity="1" fill-opacity="0"></path>
<path d="M5.17 29.2L8.97 25.4"  stroke="#000000" stroke-width="2" stroke-opacity="1" fill-opacity="0"></path>
<path d="M5.02 8.55L8.82 12.35"  stroke="#000000" stroke-width="2" stroke-opacity="1" fill-opacity="0"></path>
<path d="M35.54 36.45L23.98 36.45"  stroke="#000000" stroke-width="2" stroke-opacity="1" fill-opacity="0"></path>
<path d="M34.91 36.45C36.61 36.45 37.67 36.45 38.1 36.45C39.34 36.45 40.57 36.3 41.77 36.02C42.08 35.94 41.47 36.09 41.85 36C42.82 35.77 43.74 35.38 44.57 34.85C45.16 34.48 44.52 34.89 44.82 34.69C46.52 33.62 47.65 31.84 47.91 29.85C47.99 29.24 47.86 30.26 47.94 29.57C48.18 27.79 47.73 25.98 46.69 24.51C46.39 24.09 47.01 24.97 46.69 24.51C45.7 23.13 44.33 22.06 42.74 21.46C42.28 21.28 43.74 21.84 43.38 21.7C41.47 20.97 39.39 20.83 37.4 21.29C37.24 21.32 36.83 21.42 36.17 21.57C36.11 20.66 36.07 20.09 36.05 19.86C35.97 18.6 35.5 17.4 34.71 16.42C34.37 16.01 35.04 16.83 34.82 16.56C33.66 15.12 32.1 14.07 30.34 13.54C29.78 13.37 31.3 13.83 30.86 13.7C28.72 13.05 26.42 13.16 24.35 14.02C23.83 14.23 24.99 13.75 24.35 14.02C22.65 14.72 21.2 15.92 20.2 17.46C19.89 17.93 20.83 16.49 20.6 16.84C19.37 18.75 18.85 21.04 19.16 23.3C19.19 23.5 19.26 24.01 19.37 24.82C18.71 24.79 18.29 24.77 18.12 24.77C16.06 24.68 14.12 25.76 13.11 27.57C12.95 27.85 13.5 26.87 13.19 27.43C12.63 28.42 12.38 29.56 12.46 30.7C12.52 31.44 12.44 30.42 12.47 30.78C12.63 33 13.96 34.97 15.97 35.94C16.18 36.04 14.86 35.41 15.39 35.66C16.46 36.18 17.63 36.45 18.81 36.45C19.57 36.45 21.47 36.45 24.51 36.45"  stroke="#000000" stroke-width="2" stroke-opacity="1" fill-opacity="0"></path>
<path d="M28.86 38.65L28.86 45.58"  stroke="#000000" stroke-width="1" stroke-opacity="1" fill-opacity="0"></path>
<path d="M31.86 40.38L25.86 43.84"  stroke="#000000" stroke-width="1" stroke-opacity="1" fill-opacity="0"></path>
<path d="M31.86 43.84L25.86 40.38"  stroke="#000000" stroke-width="1" stroke-opacity="1" fill-opacity="0"></path>
</g>
</svg>
