<svg xmlns="http://www.w3.org/2000/svg" viewBox="0 0 50 50" version="1.1">
<g>
<path d="M30.31 27.85L18.75 27.85"  stroke="#000000" stroke-width="2" stroke-opacity="1" fill-opacity="0"></path>
<path d="M29.69 27.85C31.39 27.85 32.45 27.85 32.87 27.85C34.11 27.85 35.34 27.71 36.55 27.42C36.86 27.35 36.25 27.49 36.62 27.4C37.59 27.17 38.51 26.78 39.35 26.25C39.93 25.88 39.29 26.29 39.59 26.1C41.29 25.02 42.42 23.24 42.68 21.25C42.76 20.64 42.63 21.66 42.72 20.98C42.95 19.19 42.5 17.38 41.46 15.92C41.16 15.49 41.79 16.37 41.46 15.92C40.48 14.53 39.11 13.47 37.52 12.86C37.06 12.69 38.51 13.24 38.15 13.1C36.24 12.38 34.17 12.23 32.18 12.69C32.01 12.73 31.6 12.82 30.94 12.98C30.88 12.06 30.84 11.49 30.83 11.27C30.74 10.01 30.27 8.81 29.48 7.82C29.15 7.41 29.81 8.23 29.59 7.96C28.43 6.53 26.87 5.48 25.11 4.95C24.56 4.78 26.07 5.24 25.64 5.1C23.5 4.46 21.2 4.57 19.13 5.42C18.6 5.63 19.77 5.16 19.13 5.42C17.42 6.12 15.97 7.32 14.97 8.87C14.67 9.34 15.61 7.89 15.38 8.24C14.14 10.15 13.63 12.44 13.94 14.7C13.97 14.9 14.04 15.41 14.15 16.22C13.48 16.2 13.07 16.18 12.9 16.17C10.83 16.08 8.89 17.17 7.88 18.98C7.73 19.25 8.28 18.27 7.96 18.83C7.41 19.83 7.15 20.97 7.24 22.11C7.29 22.84 7.22 21.82 7.24 22.19C7.4 24.41 8.74 26.37 10.74 27.35C10.95 27.45 9.63 26.81 10.17 27.07C11.23 27.58 12.4 27.85 13.58 27.85C14.34 27.85 16.25 27.85 19.29 27.85"  stroke="#000000" stroke-width="2" stroke-opacity="1" fill-opacity="0"></path>
<path d="M32.94 30.08L32.94 37.01"  stroke="#000000" stroke-width="1" stroke-opacity="1" fill-opacity="0"></path>
<path d="M35.94 31.81L29.94 35.27"  stroke="#000000" stroke-width="1" stroke-opacity="1" fill-opacity="0"></path>
<path d="M35.94 35.27L29.94 31.81"  stroke="#000000" stroke-width="1" stroke-opacity="1" fill-opacity="0"></path>
<path d="M14.31 30.08L14.31 37.01"  stroke="#000000" stroke-width="1" stroke-opacity="1" fill-opacity="0"></path>
<path d="M17.31 31.81L11.31 35.27"  stroke="#000000" stroke-width="1" stroke-opacity="1" fill-opacity="0"></path>
<path d="M17.31 35.27L11.31 31.81"  stroke="#000000" stroke-width="1" stroke-opacity="1" fill-opacity="0"></path>
<path d="M23.63 30.08L23.63 37.01"  stroke="#000000" stroke-width="1" stroke-opacity="1" fill-opacity="0"></path>
<path d="M26.63 31.81L20.63 35.27"  stroke="#000000" stroke-width="1" stroke-opacity="1" fill-opacity="0"></path>
<path d="M26.63 35.27L20.63 31.81"  stroke="#000000" stroke-width="1" stroke-opacity="1" fill-opacity="0"></path>
<path d="M18.88 38.23L18.88 45.16"  stroke="#000000" stroke-width="1" stroke-opacity="1" fill-opacity="0"></path>
<path d="M21.87 39.96L15.88 43.42"  stroke="#000000" stroke-width="1" stroke-opacity="1" fill-opacity="0"></path>
<path d="M21.87 43.42L15.88 39.96"  stroke="#000000" stroke-width="1" stroke-opacity="1" fill-opacity="0"></path>
<path d="M28.38 38.23L28.38 45.16"  stroke="#000000" stroke-width="1" stroke-opacity="1" fill-opacity="0"></path>
<path d="M31.38 39.96L25.38 43.42"  stroke="#000000" stroke-width="1" stroke-opacity="1" fill-opacity="0"></path>
<path d="M31.38 43.42L25.38 39.96"  stroke="#000000" stroke-width="1" stroke-opacity="1" fill-opacity="0"></path>
</g>
</svg>
