<svg xmlns="http://www.w3.org/2000/svg" viewBox="0 0 50 50" version="1.1">
<g>
<path d="M27 8.21C27.32 7.45 27.52 6.98 27.6 6.78C28.69 4.23 30.9 2.33 33.59 1.65C33.59 1.65 33.59 1.65 33.59 1.65C33.66 2.13 33.7 2.43 33.72 2.55C34.39 7.14 38.23 10.6 42.86 10.79C43.06 10.8 43.55 10.82 44.33 10.85C44.33 10.9 44.33 10.93 44.33 10.94C44.48 13.32 43.41 15.61 41.5 17.03C41.46 17.06 41.35 17.14 41.18 17.27"  stroke="#000000" stroke-width="2" stroke-opacity="1" fill-opacity="0"></path>
<path d="M29.42 32.7C31.12 32.7 32.18 32.7 32.61 32.7C33.84 32.7 35.08 32.55 36.28 32.26C36.59 32.19 35.98 32.34 36.36 32.25C37.33 32.02 38.25 31.63 39.08 31.1C39.67 30.73 39.03 31.13 39.33 30.94C41.03 29.86 42.16 28.09 42.42 26.09C42.5 25.48 42.36 26.5 42.45 25.82C42.69 24.03 42.24 22.23 41.2 20.76C40.9 20.33 41.52 21.22 41.2 20.76C40.21 19.37 38.84 18.31 37.25 17.71C36.79 17.53 38.25 18.08 37.89 17.95C35.98 17.22 33.9 17.08 31.91 17.53C31.75 17.57 31.34 17.67 30.68 17.82C30.62 16.91 30.58 16.34 30.56 16.11C30.48 14.85 30.01 13.65 29.22 12.67C28.88 12.26 29.55 13.08 29.33 12.8C28.17 11.37 26.61 10.32 24.85 9.79C24.29 9.62 25.81 10.08 25.37 9.95C23.23 9.3 20.93 9.41 18.86 10.26C18.34 10.48 19.5 10 18.86 10.26C17.16 10.96 15.71 12.17 14.71 13.71C14.4 14.18 15.34 12.74 15.11 13.09C13.88 15 13.36 17.29 13.67 19.54C13.7 19.75 13.77 20.26 13.88 21.07C13.22 21.04 12.8 21.02 12.63 21.02C10.57 20.93 8.63 22.01 7.62 23.82C7.46 24.1 8.01 23.11 7.7 23.67C7.14 24.67 6.89 25.81 6.97 26.95C7.03 27.69 6.95 26.67 6.98 27.03C7.14 29.25 8.47 31.22 10.48 32.19C10.69 32.29 9.37 31.65 9.9 31.91C10.97 32.43 12.14 32.7 13.32 32.7C14.08 32.7 15.98 32.7 19.02 32.7"  stroke="#000000" stroke-width="2" stroke-opacity="1" fill-opacity="0"></path>
<path d="M17.73 42.66L14.6 45.78"  stroke="#000000" stroke-width="2" stroke-opacity="1" fill-opacity="0"></path>
<path d="M31.78 42.66L28.66 45.78"  stroke="#000000" stroke-width="2" stroke-opacity="1" fill-opacity="0"></path>
<path d="M32.69 34.95L32.69 41.88"  stroke="#000000" stroke-width="1" stroke-opacity="1" fill-opacity="0"></path>
<path d="M35.69 36.69L29.69 40.15"  stroke="#000000" stroke-width="1" stroke-opacity="1" fill-opacity="0"></path>
<path d="M35.69 40.15L29.69 36.69"  stroke="#000000" stroke-width="1" stroke-opacity="1" fill-opacity="0"></path>
<path d="M14.06 34.95L14.06 41.88"  stroke="#000000" stroke-width="1" stroke-opacity="1" fill-opacity="0"></path>
<path d="M17.06 36.69L11.06 40.15"  stroke="#000000" stroke-width="1" stroke-opacity="1" fill-opacity="0"></path>
<path d="M17.06 40.15L11.06 36.69"  stroke="#000000" stroke-width="1" stroke-opacity="1" fill-opacity="0"></path>
<path d="M18.49 37L22.96 37L19.71 42.42L27.39 35.23L24.05 35.13L29.42 29.22L24.74 29.22L18.49 37Z"  stroke="#000000" stroke-width="0.5" stroke-opacity="1" fill="#f6e804" fill-opacity="1"></path>
</g>
</svg>
