<svg xmlns="http://www.w3.org/2000/svg" viewBox="0 0 50 50" version="1.1">
<g>
<path d="M30.31 31.5L18.75 31.5"  stroke="#000000" stroke-width="2" stroke-opacity="1" fill-opacity="0"></path>
<path d="M29.69 31.5C31.39 31.5 32.45 31.5 32.87 31.5C34.11 31.5 35.34 31.36 36.55 31.07C36.86 31 36.25 31.15 36.62 31.06C37.59 30.83 38.51 30.44 39.35 29.91C39.93 29.53 39.29 29.94 39.59 29.75C41.29 28.67 42.42 26.9 42.68 24.9C42.76 24.29 42.63 25.31 42.72 24.63C42.95 22.84 42.5 21.04 41.46 19.57C41.16 19.14 41.79 20.03 41.46 19.57C40.48 18.18 39.11 17.12 37.52 16.51C37.06 16.34 38.51 16.89 38.15 16.76C36.24 16.03 34.17 15.89 32.18 16.34C32.01 16.38 31.6 16.48 30.94 16.63C30.88 15.72 30.84 15.15 30.83 14.92C30.74 13.66 30.27 12.46 29.48 11.48C29.15 11.06 29.81 11.89 29.59 11.61C28.43 10.18 26.87 9.13 25.11 8.6C24.56 8.43 26.07 8.89 25.64 8.76C23.5 8.11 21.2 8.22 19.13 9.07C18.6 9.29 19.77 8.81 19.13 9.07C17.42 9.77 15.97 10.98 14.97 12.52C14.67 12.99 15.61 11.54 15.38 11.89C14.14 13.8 13.63 16.1 13.94 18.35C13.97 18.56 14.04 19.06 14.15 19.88C13.48 19.85 13.07 19.83 12.9 19.82C10.83 19.74 8.89 20.82 7.88 22.63C7.73 22.9 8.28 21.92 7.96 22.48C7.41 23.48 7.15 24.62 7.24 25.76C7.29 26.49 7.22 25.47 7.24 25.84C7.4 28.06 8.74 30.03 10.74 31C10.95 31.1 9.63 30.46 10.17 30.72C11.23 31.24 12.4 31.5 13.58 31.5C14.34 31.5 16.25 31.5 19.29 31.5"  stroke="#000000" stroke-width="2" stroke-opacity="1" fill-opacity="0"></path>
<path d="M25 34.63L17.97 41.66"  stroke="#000000" stroke-width="2" stroke-opacity="1" fill-opacity="0"></path>
<path d="M32.81 34.63L25.78 41.66"  stroke="#000000" stroke-width="2" stroke-opacity="1" fill-opacity="0"></path>
<path d="M17.19 34.63L10.16 41.66"  stroke="#000000" stroke-width="2" stroke-opacity="1" fill-opacity="0"></path>
</g>
</svg>
