<svg xmlns="http://www.w3.org/2000/svg" viewBox="0 0 50 50" version="1.1">
<g>
<path d="M26.4 11.7C26.72 10.94 26.93 10.46 27.01 10.27C28.09 7.72 30.3 5.82 32.99 5.14C32.99 5.14 32.99 5.14 32.99 5.14C33.06 5.62 33.11 5.92 33.12 6.04C33.79 10.63 37.63 14.09 42.27 14.28C42.46 14.29 42.95 14.31 43.73 14.34C43.73 14.39 43.74 14.42 43.74 14.43C43.88 16.81 42.82 19.1 40.9 20.52C40.86 20.55 40.75 20.63 40.58 20.76"  stroke="#000000" stroke-width="2" stroke-opacity="1" fill-opacity="0"></path>
<path d="M29.45 36.19L17.89 36.19"  stroke="#000000" stroke-width="2" stroke-opacity="1" fill-opacity="0"></path>
<path d="M28.83 36.19C30.52 36.19 31.58 36.19 32.01 36.19C33.25 36.19 34.48 36.04 35.69 35.75C35.99 35.68 35.38 35.83 35.76 35.74C36.73 35.51 37.65 35.12 38.49 34.59C39.07 34.22 38.43 34.62 38.73 34.43C40.43 33.35 41.56 31.58 41.82 29.58C41.9 28.97 41.77 29.99 41.86 29.31C42.09 27.52 41.64 25.72 40.6 24.25C40.3 23.82 40.92 24.71 40.6 24.25C39.62 22.86 38.24 21.8 36.65 21.2C36.2 21.02 37.65 21.57 37.29 21.44C35.38 20.71 33.3 20.57 31.32 21.02C31.15 21.06 30.74 21.16 30.08 21.31C30.02 20.4 29.98 19.83 29.97 19.6C29.88 18.34 29.41 17.14 28.62 16.16C28.29 15.74 28.95 16.57 28.73 16.29C27.57 14.86 26.01 13.81 24.25 13.28C23.69 13.11 25.21 13.57 24.78 13.44C22.63 12.79 20.33 12.9 18.26 13.75C17.74 13.97 18.9 13.49 18.26 13.75C16.56 14.45 15.11 15.66 14.11 17.2C13.81 17.67 14.74 16.23 14.52 16.57C13.28 18.49 12.77 20.78 13.08 23.03C13.1 23.24 13.17 23.74 13.29 24.56C12.62 24.53 12.2 24.51 12.04 24.51C9.97 24.42 8.03 25.5 7.02 27.31C6.87 27.59 7.41 26.6 7.1 27.16C6.54 28.16 6.29 29.3 6.38 30.44C6.43 31.18 6.35 30.16 6.38 30.52C6.54 32.74 7.88 34.71 9.88 35.68C10.09 35.78 8.77 35.14 9.31 35.4C10.37 35.92 11.54 36.19 12.72 36.19C13.48 36.19 15.38 36.19 18.43 36.19"  stroke="#000000" stroke-width="2" stroke-opacity="1" fill-opacity="0"></path>
<path d="M22.77 38.39L22.77 45.31"  stroke="#000000" stroke-width="1" stroke-opacity="1" fill-opacity="0"></path>
<path d="M25.77 40.12L19.77 43.58"  stroke="#000000" stroke-width="1" stroke-opacity="1" fill-opacity="0"></path>
<path d="M25.77 43.58L19.77 40.12"  stroke="#000000" stroke-width="1" stroke-opacity="1" fill-opacity="0"></path>
</g>
</svg>
