<svg xmlns="http://www.w3.org/2000/svg" viewBox="0 0 50 50" version="1.1">
<g>
<path d="M21.22 14.01C21.5 14.71 18.8 17.42 18.8 18.21C18.8 20.4 19.13 20.7 18.78 21.89C18.44 23.08 16.71 22.84 15.5 22.84C12.11 22.84 9.35 20.08 9.35 16.69C9.35 13.29 12.11 10.54 15.5 10.54C18.1 10.54 20.32 11.73 21.22 14.01Z"  stroke="#000000" stroke-width="2" stroke-opacity="0" fill="#fcff00" fill-opacity="1"></path>
<path d="M15.9 22.9C15.36 22.82 15.03 22.78 14.89 22.76C13.2 22.52 11.66 21.65 10.58 20.32C10.25 19.91 10.91 20.72 10.57 20.31C9.5 18.99 9.02 17.3 9.23 15.62C9.3 15.04 9.17 16.1 9.24 15.56C9.46 13.76 10.44 12.15 11.93 11.13C12.32 10.86 11.49 11.43 11.97 11.1C13.2 10.26 14.68 9.88 16.16 10.05C16.78 10.12 15.78 10.01 16.26 10.06C18.15 10.27 19.84 11.33 20.86 12.94C20.94 13.08 21.15 13.41 21.49 13.94"  stroke="#000000" stroke-width="2" stroke-opacity="1" fill-opacity="0"></path>
<path d="M15.51 7.44L15.51 2.07"  stroke="#000000" stroke-width="2" stroke-opacity="1" fill-opacity="0"></path>
<path d="M1.1 16.35L6.48 16.35"  stroke="#000000" stroke-width="2" stroke-opacity="1" fill-opacity="0"></path>
<path d="M22.02 9.99L25.82 6.19"  stroke="#000000" stroke-width="2" stroke-opacity="1" fill-opacity="0"></path>
<path d="M5.17 26.84L8.97 23.04"  stroke="#000000" stroke-width="2" stroke-opacity="1" fill-opacity="0"></path>
<path d="M5.02 6.19L8.82 9.99"  stroke="#000000" stroke-width="2" stroke-opacity="1" fill-opacity="0"></path>
<path d="M35.54 34.09L23.98 34.09"  stroke="#000000" stroke-width="2" stroke-opacity="1" fill-opacity="0"></path>
<path d="M34.91 34.09C36.61 34.09 37.67 34.09 38.1 34.09C39.34 34.09 40.57 33.95 41.77 33.66C42.08 33.59 41.47 33.73 41.85 33.64C42.82 33.41 43.74 33.02 44.57 32.49C45.16 32.12 44.52 32.53 44.82 32.34C46.52 31.26 47.65 29.48 47.91 27.49C47.99 26.88 47.86 27.9 47.94 27.21C48.18 25.43 47.73 23.62 46.69 22.16C46.39 21.73 47.01 22.61 46.69 22.16C45.7 20.77 44.33 19.71 42.74 19.1C42.28 18.93 43.74 19.48 43.38 19.34C41.47 18.62 39.39 18.47 37.4 18.93C37.24 18.97 36.83 19.06 36.17 19.21C36.11 18.3 36.07 17.73 36.05 17.51C35.97 16.25 35.5 15.04 34.71 14.06C34.37 13.65 35.04 14.47 34.82 14.2C33.66 12.77 32.1 11.72 30.34 11.18C29.78 11.02 31.3 11.47 30.86 11.34C28.72 10.69 26.42 10.81 24.35 11.66C23.83 11.87 24.99 11.39 24.35 11.66C22.65 12.36 21.2 13.56 20.2 15.11C19.89 15.57 20.83 14.13 20.6 14.48C19.37 16.39 18.85 18.68 19.16 20.94C19.19 21.14 19.26 21.65 19.37 22.46C18.71 22.44 18.29 22.42 18.12 22.41C16.06 22.32 14.12 23.41 13.11 25.21C12.95 25.49 13.5 24.51 13.19 25.07C12.63 26.07 12.38 27.21 12.46 28.35C12.52 29.08 12.44 28.06 12.47 28.43C12.63 30.65 13.96 32.61 15.97 33.58C16.18 33.69 14.86 33.05 15.39 33.31C16.46 33.82 17.63 34.09 18.81 34.09C19.57 34.09 21.47 34.09 24.51 34.09"  stroke="#000000" stroke-width="2" stroke-opacity="1" fill-opacity="0"></path>
<path d="M38.16 36.32L38.16 43.24"  stroke="#000000" stroke-width="1" stroke-opacity="1" fill-opacity="0"></path>
<path d="M41.16 38.05L35.16 41.51"  stroke="#000000" stroke-width="1" stroke-opacity="1" fill-opacity="0"></path>
<path d="M41.16 41.51L35.16 38.05"  stroke="#000000" stroke-width="1" stroke-opacity="1" fill-opacity="0"></path>
<path d="M19.54 36.32L19.54 43.24"  stroke="#000000" stroke-width="1" stroke-opacity="1" fill-opacity="0"></path>
<path d="M22.54 38.05L16.54 41.51"  stroke="#000000" stroke-width="1" stroke-opacity="1" fill-opacity="0"></path>
<path d="M22.54 41.51L16.54 38.05"  stroke="#000000" stroke-width="1" stroke-opacity="1" fill-opacity="0"></path>
<path d="M28.86 41.01L28.86 47.93"  stroke="#000000" stroke-width="1" stroke-opacity="1" fill-opacity="0"></path>
<path d="M31.86 42.74L25.86 46.2"  stroke="#000000" stroke-width="1" stroke-opacity="1" fill-opacity="0"></path>
<path d="M31.86 46.2L25.86 42.74"  stroke="#000000" stroke-width="1" stroke-opacity="1" fill-opacity="0"></path>
</g>
</svg>
