<svg xmlns="http://www.w3.org/2000/svg" viewBox="0 0 50 50" version="1.1">
<g>
<path d="M30.31 30.36L18.75 30.36"  stroke="#000000" stroke-width="2" stroke-opacity="1" fill-opacity="0"></path>
<path d="M29.69 30.36C31.39 30.36 32.45 30.36 32.87 30.36C34.11 30.36 35.34 30.22 36.55 29.93C36.86 29.86 36.25 30.01 36.62 29.92C37.59 29.69 38.51 29.3 39.35 28.77C39.93 28.4 39.29 28.8 39.59 28.61C41.29 27.53 42.42 25.76 42.68 23.76C42.76 23.15 42.63 24.17 42.72 23.49C42.95 21.7 42.5 19.9 41.46 18.43C41.16 18 41.79 18.89 41.46 18.43C40.48 17.04 39.11 15.98 37.52 15.38C37.06 15.2 38.51 15.75 38.15 15.62C36.24 14.89 34.17 14.75 32.18 15.2C32.01 15.24 31.6 15.34 30.94 15.49C30.88 14.58 30.84 14.01 30.83 13.78C30.74 12.52 30.27 11.32 29.48 10.34C29.15 9.92 29.81 10.75 29.59 10.47C28.43 9.04 26.87 7.99 25.11 7.46C24.56 7.29 26.07 7.75 25.64 7.62C23.5 6.97 21.2 7.08 19.13 7.93C18.6 8.15 19.77 7.67 19.13 7.93C17.42 8.63 15.97 9.84 14.97 11.38C14.67 11.85 15.61 10.41 15.38 10.75C14.14 12.67 13.63 14.96 13.94 17.21C13.97 17.42 14.04 17.92 14.15 18.74C13.48 18.71 13.07 18.69 12.9 18.68C10.83 18.6 8.89 19.68 7.88 21.49C7.73 21.77 8.28 20.78 7.96 21.34C7.41 22.34 7.15 23.48 7.24 24.62C7.29 25.36 7.22 24.34 7.24 24.7C7.4 26.92 8.74 28.89 10.74 29.86C10.95 29.96 9.63 29.32 10.17 29.58C11.23 30.1 12.4 30.36 13.58 30.36C14.34 30.36 16.25 30.36 19.29 30.36"  stroke="#000000" stroke-width="2" stroke-opacity="1" fill-opacity="0"></path>
<path d="M32.94 32.59L32.94 39.52"  stroke="#000000" stroke-width="1" stroke-opacity="1" fill-opacity="0"></path>
<path d="M35.94 34.32L29.94 37.79"  stroke="#000000" stroke-width="1" stroke-opacity="1" fill-opacity="0"></path>
<path d="M35.94 37.79L29.94 34.32"  stroke="#000000" stroke-width="1" stroke-opacity="1" fill-opacity="0"></path>
<path d="M14.31 32.59L14.31 39.52"  stroke="#000000" stroke-width="1" stroke-opacity="1" fill-opacity="0"></path>
<path d="M17.31 34.32L11.31 37.79"  stroke="#000000" stroke-width="1" stroke-opacity="1" fill-opacity="0"></path>
<path d="M17.31 37.79L11.31 34.32"  stroke="#000000" stroke-width="1" stroke-opacity="1" fill-opacity="0"></path>
<path d="M23.63 37.28L23.63 44.21"  stroke="#000000" stroke-width="1" stroke-opacity="1" fill-opacity="0"></path>
<path d="M26.63 39.01L20.63 42.47"  stroke="#000000" stroke-width="1" stroke-opacity="1" fill-opacity="0"></path>
<path d="M26.63 42.47L20.63 39.01"  stroke="#000000" stroke-width="1" stroke-opacity="1" fill-opacity="0"></path>
</g>
</svg>
