<svg xmlns="http://www.w3.org/2000/svg" viewBox="0 0 50 50" version="1.1">
<g>
<path d="M21.32 15.6C21.59 16.3 18.9 19.01 18.9 19.81C18.9 22 19.23 22.3 18.88 23.49C18.53 24.67 16.81 24.43 15.6 24.43C12.21 24.43 9.45 21.68 9.45 18.28C9.45 14.89 12.21 12.14 15.6 12.14C18.2 12.14 20.42 13.33 21.32 15.6Z"  stroke="#000000" stroke-width="2" stroke-opacity="0" fill="#fcff00" fill-opacity="1"></path>
<path d="M16 24.5C15.46 24.42 15.13 24.37 14.99 24.36C13.3 24.12 11.76 23.25 10.68 21.92C10.34 21.5 11 22.32 10.67 21.9C9.6 20.59 9.12 18.89 9.33 17.21C9.4 16.64 9.27 17.69 9.33 17.15C9.56 15.36 10.54 13.75 12.03 12.72C12.42 12.46 11.59 13.02 12.07 12.7C13.29 11.85 14.78 11.48 16.26 11.65C16.88 11.71 15.88 11.6 16.35 11.66C18.25 11.87 19.94 12.93 20.96 14.54C21.04 14.67 21.25 15.01 21.59 15.54"  stroke="#000000" stroke-width="2" stroke-opacity="1" fill-opacity="0"></path>
<path d="M15.61 9.04L15.61 3.66"  stroke="#000000" stroke-width="2" stroke-opacity="1" fill-opacity="0"></path>
<path d="M1.2 17.95L6.58 17.95"  stroke="#000000" stroke-width="2" stroke-opacity="1" fill-opacity="0"></path>
<path d="M22.11 11.59L25.91 7.79"  stroke="#000000" stroke-width="2" stroke-opacity="1" fill-opacity="0"></path>
<path d="M5.27 28.44L9.07 24.64"  stroke="#000000" stroke-width="2" stroke-opacity="1" fill-opacity="0"></path>
<path d="M5.11 7.79L8.91 11.59"  stroke="#000000" stroke-width="2" stroke-opacity="1" fill-opacity="0"></path>
<path d="M35.01 35.69C36.71 35.69 37.77 35.69 38.19 35.69C39.43 35.69 40.67 35.54 41.87 35.26C42.18 35.18 41.57 35.33 41.95 35.24C42.91 35.01 43.83 34.62 44.67 34.09C45.26 33.72 44.61 34.13 44.91 33.93C46.61 32.86 47.75 31.08 48.01 29.08C48.08 28.48 47.95 29.5 48.04 28.81C48.27 27.03 47.82 25.22 46.78 23.75C46.48 23.33 47.11 24.21 46.78 23.75C45.8 22.37 44.43 21.3 42.84 20.7C42.38 20.52 43.83 21.08 43.47 20.94C41.57 20.21 39.49 20.07 37.5 20.53C37.34 20.56 36.92 20.66 36.26 20.81C36.2 19.9 36.16 19.33 36.15 19.1C36.07 17.84 35.6 16.64 34.8 15.66C34.47 15.25 35.13 16.07 34.91 15.8C33.76 14.36 32.2 13.31 30.44 12.78C29.88 12.61 31.4 13.07 30.96 12.94C28.82 12.29 26.52 12.4 24.45 13.26C23.93 13.47 25.09 12.99 24.45 13.26C22.75 13.96 21.3 15.16 20.29 16.7C19.99 17.17 20.93 15.73 20.7 16.08C19.46 17.99 18.95 20.28 19.26 22.54C19.29 22.74 19.36 23.25 19.47 24.06C18.8 24.03 18.39 24.01 18.22 24.01C16.15 23.92 14.21 25 13.21 26.81C13.05 27.09 13.6 26.11 13.29 26.67C12.73 27.66 12.48 28.8 12.56 29.94C12.61 30.68 12.54 29.66 12.57 30.02C12.73 32.24 14.06 34.21 16.06 35.18C16.27 35.28 14.96 34.64 15.49 34.9C16.56 35.42 17.72 35.69 18.91 35.69C19.67 35.69 21.57 35.69 24.61 35.69"  stroke="#000000" stroke-width="2" stroke-opacity="1" fill-opacity="0"></path>
<path d="M38.14 38.81L31.1 45.84"  stroke="#000000" stroke-width="2" stroke-opacity="1" fill-opacity="0"></path>
<path d="M22.51 38.81L15.48 45.84"  stroke="#000000" stroke-width="2" stroke-opacity="1" fill-opacity="0"></path>
<path d="M24.22 39.9L28.7 39.9L25.45 45.31L33.13 38.12L29.78 38.03L35.16 32.12L30.47 32.12L24.22 39.9Z"  stroke="#000000" stroke-width="0.5" stroke-opacity="1" fill="#f6e804" fill-opacity="1"></path>
</g>
</svg>
