<svg xmlns="http://www.w3.org/2000/svg" viewBox="0 0 50 50" version="1.1">
<g>
<path d="M26.4 11.88C26.72 11.12 26.93 10.64 27.01 10.45C28.09 7.9 30.3 6 32.99 5.32C32.99 5.32 32.99 5.32 32.99 5.32C33.06 5.8 33.11 6.1 33.12 6.22C33.79 10.81 37.63 14.27 42.27 14.46C42.46 14.47 42.95 14.49 43.73 14.52C43.73 14.57 43.74 14.6 43.74 14.61C43.88 16.99 42.82 19.28 40.9 20.7C40.86 20.73 40.75 20.81 40.58 20.94"  stroke="#000000" stroke-width="2" stroke-opacity="1" fill-opacity="0"></path>
<path d="M28.83 36.36C30.52 36.36 31.58 36.36 32.01 36.36C33.25 36.36 34.48 36.22 35.69 35.93C35.99 35.86 35.38 36.01 35.76 35.92C36.73 35.69 37.65 35.3 38.49 34.77C39.07 34.4 38.43 34.8 38.73 34.61C40.43 33.53 41.56 31.76 41.82 29.76C41.9 29.15 41.77 30.17 41.86 29.49C42.09 27.7 41.64 25.9 40.6 24.43C40.3 24 40.92 24.89 40.6 24.43C39.62 23.04 38.24 21.98 36.65 21.38C36.2 21.2 37.65 21.75 37.29 21.62C35.38 20.89 33.3 20.75 31.32 21.2C31.15 21.24 30.74 21.34 30.08 21.49C30.02 20.58 29.98 20.01 29.97 19.78C29.88 18.52 29.41 17.32 28.62 16.34C28.29 15.92 28.95 16.75 28.73 16.47C27.57 15.04 26.01 13.99 24.25 13.46C23.69 13.29 25.21 13.75 24.78 13.62C22.63 12.97 20.33 13.08 18.26 13.93C17.74 14.15 18.9 13.67 18.26 13.93C16.56 14.63 15.11 15.84 14.11 17.38C13.81 17.85 14.74 16.41 14.52 16.75C13.28 18.67 12.77 20.96 13.08 23.21C13.1 23.42 13.17 23.92 13.29 24.74C12.62 24.71 12.2 24.69 12.04 24.68C9.97 24.6 8.03 25.68 7.02 27.49C6.87 27.77 7.41 26.78 7.1 27.34C6.54 28.34 6.29 29.48 6.38 30.62C6.43 31.36 6.35 30.34 6.38 30.7C6.54 32.92 7.88 34.89 9.88 35.86C10.09 35.96 8.77 35.32 9.31 35.58C10.37 36.1 11.54 36.36 12.72 36.36C13.48 36.36 15.38 36.36 18.43 36.36"  stroke="#000000" stroke-width="2" stroke-opacity="1" fill-opacity="0"></path>
<path d="M16.33 39.49L13.2 42.61"  stroke="#000000" stroke-width="2" stroke-opacity="1" fill-opacity="0"></path>
<path d="M31.95 39.49L28.83 42.61"  stroke="#000000" stroke-width="2" stroke-opacity="1" fill-opacity="0"></path>
<path d="M17.97 40.59L22.45 40.59L19.2 46.01L26.88 38.82L23.53 38.72L28.91 32.81L24.22 32.81L17.97 40.59Z"  stroke="#000000" stroke-width="0.5" stroke-opacity="1" fill="#f6e804" fill-opacity="1"></path>
</g>
</svg>
