<svg xmlns="http://www.w3.org/2000/svg" viewBox="0 0 50 50" version="1.1">
<g>
<path d="M29.69 31.39C31.39 31.39 32.45 31.39 32.87 31.39C34.11 31.39 35.34 31.25 36.55 30.96C36.86 30.89 36.25 31.04 36.62 30.95C37.59 30.72 38.51 30.33 39.35 29.8C39.93 29.42 39.29 29.83 39.59 29.64C41.29 28.56 42.42 26.79 42.68 24.79C42.76 24.18 42.63 25.2 42.72 24.52C42.95 22.73 42.5 20.93 41.46 19.46C41.16 19.03 41.79 19.92 41.46 19.46C40.48 18.07 39.11 17.01 37.52 16.4C37.06 16.23 38.51 16.78 38.15 16.65C36.24 15.92 34.17 15.78 32.18 16.23C32.01 16.27 31.6 16.37 30.94 16.52C30.88 15.61 30.84 15.04 30.83 14.81C30.74 13.55 30.27 12.35 29.48 11.37C29.15 10.95 29.81 11.78 29.59 11.5C28.43 10.07 26.87 9.02 25.11 8.49C24.56 8.32 26.07 8.78 25.64 8.65C23.5 8 21.2 8.11 19.13 8.96C18.6 9.18 19.77 8.7 19.13 8.96C17.42 9.66 15.97 10.87 14.97 12.41C14.67 12.88 15.61 11.44 15.38 11.78C14.14 13.69 13.63 15.99 13.94 18.24C13.97 18.45 14.04 18.95 14.15 19.77C13.48 19.74 13.07 19.72 12.9 19.71C10.83 19.63 8.89 20.71 7.88 22.52C7.73 22.8 8.28 21.81 7.96 22.37C7.41 23.37 7.15 24.51 7.24 25.65C7.29 26.39 7.22 25.36 7.24 25.73C7.4 27.95 8.74 29.92 10.74 30.89C10.95 30.99 9.63 30.35 10.17 30.61C11.23 31.13 12.4 31.39 13.58 31.39C14.34 31.39 16.25 31.39 19.29 31.39"  stroke="#000000" stroke-width="2" stroke-opacity="1" fill-opacity="0"></path>
<path d="M17.19 34.52L14.06 37.64"  stroke="#000000" stroke-width="2" stroke-opacity="1" fill-opacity="0"></path>
<path d="M32.81 34.52L29.69 37.64"  stroke="#000000" stroke-width="2" stroke-opacity="1" fill-opacity="0"></path>
<path d="M13.06 38.64L9.94 41.77"  stroke="#000000" stroke-width="2" stroke-opacity="1" fill-opacity="0"></path>
<path d="M28.69 38.64L25.56 41.77"  stroke="#000000" stroke-width="2" stroke-opacity="1" fill-opacity="0"></path>
<path d="M18.75 35.7L23.23 35.7L19.98 41.12L27.66 33.93L24.31 33.83L29.69 27.92L25 27.92L18.75 35.7Z"  stroke="#000000" stroke-width="0.5" stroke-opacity="1" fill="#f6e804" fill-opacity="1"></path>
</g>
</svg>
