<svg xmlns="http://www.w3.org/2000/svg" viewBox="0 0 50 50" version="1.1">
<g>
<path d="M21.12 16.32C21.4 17.02 18.7 19.74 18.7 20.53C18.7 22.72 19.03 23.02 18.69 24.21C18.34 25.4 16.61 25.15 15.41 25.15C12.01 25.15 9.26 22.4 9.26 19.01C9.26 15.61 12.01 12.86 15.41 12.86C18.01 12.86 20.22 14.05 21.12 16.32Z"  fill="#fcff00" fill-opacity="1"></path>
<path d="M15.81 25.22C15.27 25.14 14.93 25.1 14.8 25.08C13.1 24.84 11.56 23.97 10.49 22.64C10.15 22.23 10.81 23.04 10.47 22.63C9.41 21.31 8.92 19.62 9.13 17.94C9.2 17.36 9.07 18.41 9.14 17.88C9.36 16.08 10.34 14.47 11.83 13.45C12.22 13.18 11.4 13.75 11.87 13.42C13.1 12.58 14.59 12.2 16.06 12.37C16.68 12.44 15.68 12.33 16.16 12.38C18.05 12.59 19.75 13.65 20.76 15.26C20.85 15.39 21.06 15.73 21.39 16.26"  stroke="#000000" stroke-width="2" stroke-opacity="1" fill-opacity="0"></path>
<path d="M15.41 9.76L15.41 4.39"  stroke="#000000" stroke-width="2" stroke-opacity="1" fill-opacity="0"></path>
<path d="M1.01 18.67L6.38 18.67"  stroke="#000000" stroke-width="2" stroke-opacity="1" fill-opacity="0"></path>
<path d="M21.92 12.31L25.72 8.51"  stroke="#000000" stroke-width="2" stroke-opacity="1" fill-opacity="0"></path>
<path d="M5.08 29.16L8.88 25.36"  stroke="#000000" stroke-width="2" stroke-opacity="1" fill-opacity="0"></path>
<path d="M4.92 8.51L8.72 12.31"  stroke="#000000" stroke-width="2" stroke-opacity="1" fill-opacity="0"></path>
<path d="M35.44 36.41L23.88 36.41"  stroke="#000000" stroke-width="2" stroke-opacity="1" fill-opacity="0"></path>
<path d="M34.82 36.41C36.51 36.41 37.58 36.41 38 36.41C39.24 36.41 40.47 36.27 41.68 35.98C41.98 35.91 41.38 36.05 41.75 35.96C42.72 35.73 43.64 35.34 44.48 34.81C45.06 34.44 44.42 34.85 44.72 34.66C46.42 33.58 47.55 31.8 47.81 29.81C47.89 29.2 47.76 30.22 47.85 29.53C48.08 27.75 47.63 25.94 46.59 24.47C46.29 24.05 46.91 24.93 46.59 24.47C45.61 23.09 44.23 22.02 42.65 21.42C42.19 21.25 43.64 21.8 43.28 21.66C41.37 20.94 39.3 20.79 37.31 21.25C37.14 21.29 36.73 21.38 36.07 21.53C36.01 20.62 35.97 20.05 35.96 19.82C35.87 18.57 35.4 17.36 34.61 16.38C34.28 15.97 34.94 16.79 34.72 16.52C33.56 15.09 32 14.04 30.24 13.5C29.68 13.33 31.2 13.79 30.77 13.66C28.62 13.01 26.32 13.13 24.25 13.98C23.73 14.19 24.89 13.71 24.25 13.98C22.55 14.68 21.1 15.88 20.1 17.43C19.8 17.89 20.73 16.45 20.51 16.8C19.27 18.71 18.76 21 19.07 23.26C19.1 23.46 19.16 23.97 19.28 24.78C18.61 24.75 18.19 24.74 18.03 24.73C15.96 24.64 14.02 25.73 13.01 27.53C12.86 27.81 13.41 26.83 13.09 27.39C12.54 28.39 12.28 29.53 12.37 30.67C12.42 31.4 12.35 30.38 12.37 30.75C12.53 32.97 13.87 34.93 15.87 35.9C16.08 36 14.76 35.37 15.3 35.63C16.36 36.14 17.53 36.41 18.71 36.41C19.47 36.41 21.38 36.41 24.42 36.41"  stroke="#000000" stroke-width="2" stroke-opacity="1" fill-opacity="0"></path>
<path d="M29.74 42.49L26.61 45.61"  stroke="#000000" stroke-width="2" stroke-opacity="1" fill-opacity="0"></path>
<path d="M22.32 39.53L19.19 42.66"  stroke="#000000" stroke-width="2" stroke-opacity="1" fill-opacity="0"></path>
<path d="M37.94 39.53L34.82 42.66"  stroke="#000000" stroke-width="2" stroke-opacity="1" fill-opacity="0"></path>
</g>
</svg>
