<svg xmlns="http://www.w3.org/2000/svg" viewBox="0 0 50 50" version="1.1">
<g>
<path d="M30.31 31.98L18.75 31.98"  stroke="#000000" stroke-width="2" stroke-opacity="1" fill-opacity="0"></path>
<path d="M29.69 31.98C31.39 31.98 32.45 31.98 32.87 31.98C34.11 31.98 35.34 31.84 36.55 31.55C36.86 31.48 36.25 31.62 36.62 31.53C37.59 31.3 38.51 30.91 39.35 30.38C39.93 30.01 39.29 30.42 39.59 30.23C41.29 29.15 42.42 27.37 42.68 25.38C42.76 24.77 42.63 25.79 42.72 25.1C42.95 23.32 42.5 21.51 41.46 20.05C41.16 19.62 41.79 20.5 41.46 20.05C40.48 18.66 39.11 17.6 37.52 16.99C37.06 16.82 38.51 17.37 38.15 17.23C36.24 16.51 34.17 16.36 32.18 16.82C32.01 16.86 31.6 16.95 30.94 17.1C30.88 16.19 30.84 15.62 30.83 15.4C30.74 14.14 30.27 12.93 29.48 11.95C29.15 11.54 29.81 12.36 29.59 12.09C28.43 10.66 26.87 9.61 25.11 9.07C24.56 8.91 26.07 9.36 25.64 9.23C23.5 8.58 21.2 8.7 19.13 9.55C18.6 9.76 19.77 9.28 19.13 9.55C17.42 10.25 15.97 11.45 14.97 13C14.67 13.46 15.61 12.02 15.38 12.37C14.14 14.28 13.63 16.57 13.94 18.83C13.97 19.03 14.04 19.54 14.15 20.35C13.48 20.33 13.07 20.31 12.9 20.3C10.83 20.21 8.89 21.3 7.88 23.1C7.73 23.38 8.28 22.4 7.96 22.96C7.41 23.96 7.15 25.1 7.24 26.24C7.29 26.97 7.22 25.95 7.24 26.32C7.4 28.54 8.74 30.5 10.74 31.47C10.95 31.58 9.63 30.94 10.17 31.2C11.23 31.71 12.4 31.98 13.58 31.98C14.34 31.98 16.25 31.98 19.29 31.98"  stroke="#000000" stroke-width="2" stroke-opacity="1" fill-opacity="0"></path>
<path d="M24.61 38.06L21.48 41.18"  stroke="#000000" stroke-width="2" stroke-opacity="1" fill-opacity="0"></path>
<path d="M17.19 35.11L14.06 38.23"  stroke="#000000" stroke-width="2" stroke-opacity="1" fill-opacity="0"></path>
<path d="M32.81 35.11L29.69 38.23"  stroke="#000000" stroke-width="2" stroke-opacity="1" fill-opacity="0"></path>
</g>
</svg>
