<svg xmlns="http://www.w3.org/2000/svg" viewBox="0 0 50 50" version="1.1">
<g>
<path d="M26.4 10.27C26.72 9.51 26.93 9.03 27.01 8.84C28.09 6.29 30.3 4.39 32.99 3.71C32.99 3.71 32.99 3.71 32.99 3.71C33.06 4.19 33.11 4.49 33.12 4.61C33.79 9.2 37.63 12.66 42.27 12.85C42.46 12.86 42.95 12.88 43.73 12.91C43.73 12.96 43.74 12.99 43.74 13C43.88 15.38 42.82 17.67 40.9 19.09C40.86 19.12 40.75 19.2 40.58 19.33"  stroke="#000000" stroke-width="2" stroke-opacity="1" fill-opacity="0"></path>
<path d="M28.83 34.75C30.52 34.75 31.58 34.75 32.01 34.75C33.25 34.75 34.48 34.61 35.69 34.32C35.99 34.25 35.38 34.4 35.76 34.31C36.73 34.08 37.65 33.69 38.49 33.16C39.07 32.78 38.43 33.19 38.73 33C40.43 31.92 41.56 30.15 41.82 28.15C41.9 27.54 41.77 28.56 41.86 27.88C42.09 26.09 41.64 24.29 40.6 22.82C40.3 22.39 40.92 23.28 40.6 22.82C39.62 21.43 38.24 20.37 36.65 19.76C36.2 19.59 37.65 20.14 37.29 20.01C35.38 19.28 33.3 19.14 31.32 19.59C31.15 19.63 30.74 19.73 30.08 19.88C30.02 18.97 29.98 18.4 29.97 18.17C29.88 16.91 29.41 15.71 28.62 14.73C28.29 14.31 28.95 15.14 28.73 14.86C27.57 13.43 26.01 12.38 24.25 11.85C23.69 11.68 25.21 12.14 24.78 12.01C22.63 11.36 20.33 11.47 18.26 12.32C17.74 12.54 18.9 12.06 18.26 12.32C16.56 13.02 15.11 14.23 14.11 15.77C13.81 16.24 14.74 14.8 14.52 15.14C13.28 17.06 12.77 19.35 13.08 21.6C13.1 21.81 13.17 22.31 13.29 23.13C12.62 23.1 12.2 23.08 12.04 23.07C9.97 22.99 8.03 24.07 7.02 25.88C6.87 26.16 7.41 25.17 7.1 25.73C6.54 26.73 6.29 27.87 6.38 29.01C6.43 29.75 6.35 28.72 6.38 29.09C6.54 31.31 7.88 33.28 9.88 34.25C10.09 34.35 8.77 33.71 9.31 33.97C10.37 34.49 11.54 34.75 12.72 34.75C13.48 34.75 15.38 34.75 18.43 34.75"  stroke="#000000" stroke-width="2" stroke-opacity="1" fill-opacity="0"></path>
<path d="M28.13 39.95L28.13 46.88"  stroke="#000000" stroke-width="1" stroke-opacity="1" fill-opacity="0"></path>
<path d="M31.13 41.68L25.13 45.14"  stroke="#000000" stroke-width="1" stroke-opacity="1" fill-opacity="0"></path>
<path d="M31.13 45.14L25.13 41.68"  stroke="#000000" stroke-width="1" stroke-opacity="1" fill-opacity="0"></path>
<path d="M17.86 39.06L22.34 39.06L19.09 44.48L26.77 37.29L23.42 37.19L28.8 31.28L24.11 31.28L17.86 39.06Z"  stroke="#000000" stroke-width="0.5" stroke-opacity="1" fill="#f6e804" fill-opacity="1"></path>
</g>
</svg>
