<svg xmlns="http://www.w3.org/2000/svg" viewBox="0 0 50 50" version="1.1">
<g>
<path d="M30.31 32.54L18.75 32.54"  stroke="#000000" stroke-width="2" stroke-opacity="1" fill-opacity="0"></path>
<path d="M29.69 32.54C31.39 32.54 32.45 32.54 32.87 32.54C34.11 32.54 35.34 32.39 36.55 32.11C36.86 32.04 36.25 32.18 36.62 32.09C37.59 31.86 38.51 31.47 39.35 30.94C39.93 30.57 39.29 30.98 39.59 30.79C41.29 29.71 42.42 27.93 42.68 25.94C42.76 25.33 42.63 26.35 42.72 25.66C42.95 23.88 42.5 22.07 41.46 20.6C41.16 20.18 41.79 21.06 41.46 20.6C40.48 19.22 39.11 18.15 37.52 17.55C37.06 17.38 38.51 17.93 38.15 17.79C36.24 17.07 34.17 16.92 32.18 17.38C32.01 17.42 31.6 17.51 30.94 17.66C30.88 16.75 30.84 16.18 30.83 15.95C30.74 14.7 30.27 13.49 29.48 12.51C29.15 12.1 29.81 12.92 29.59 12.65C28.43 11.22 26.87 10.17 25.11 9.63C24.56 9.46 26.07 9.92 25.64 9.79C23.5 9.14 21.2 9.25 19.13 10.11C18.6 10.32 19.77 9.84 19.13 10.11C17.42 10.81 15.97 12.01 14.97 13.56C14.67 14.02 15.61 12.58 15.38 12.93C14.14 14.84 13.63 17.13 13.94 19.39C13.97 19.59 14.04 20.1 14.15 20.91C13.48 20.88 13.07 20.87 12.9 20.86C10.83 20.77 8.89 21.86 7.88 23.66C7.73 23.94 8.28 22.96 7.96 23.52C7.41 24.52 7.15 25.66 7.24 26.8C7.29 27.53 7.22 26.51 7.24 26.87C7.4 29.1 8.74 31.06 10.74 32.03C10.95 32.13 9.63 31.5 10.17 31.75C11.23 32.27 12.4 32.54 13.58 32.54C14.34 32.54 16.25 32.54 19.29 32.54"  stroke="#000000" stroke-width="2" stroke-opacity="1" fill-opacity="0"></path>
<path d="M23.63 34.74L23.63 41.67"  stroke="#000000" stroke-width="1" stroke-opacity="1" fill-opacity="0"></path>
<path d="M26.63 36.47L20.63 39.94"  stroke="#000000" stroke-width="1" stroke-opacity="1" fill-opacity="0"></path>
<path d="M26.63 39.94L20.63 36.47"  stroke="#000000" stroke-width="1" stroke-opacity="1" fill-opacity="0"></path>
</g>
</svg>
