<svg xmlns="http://www.w3.org/2000/svg" viewBox="0 0 50 50" version="1.1">
<g>
<path d="M30.31 30.04L18.75 30.04"  stroke="#000000" stroke-width="2" stroke-opacity="1" fill-opacity="0"></path>
<path d="M29.69 30.04C31.39 30.04 32.45 30.04 32.87 30.04C34.11 30.04 35.34 29.9 36.55 29.61C36.86 29.54 36.25 29.69 36.62 29.6C37.59 29.37 38.51 28.98 39.35 28.45C39.93 28.07 39.29 28.48 39.59 28.29C41.29 27.21 42.42 25.44 42.68 23.44C42.76 22.83 42.63 23.85 42.72 23.17C42.95 21.38 42.5 19.58 41.46 18.11C41.16 17.68 41.79 18.57 41.46 18.11C40.48 16.72 39.11 15.66 37.52 15.05C37.06 14.88 38.51 15.43 38.15 15.3C36.24 14.57 34.17 14.43 32.18 14.88C32.01 14.92 31.6 15.02 30.94 15.17C30.88 14.26 30.84 13.69 30.83 13.46C30.74 12.2 30.27 11 29.48 10.02C29.15 9.6 29.81 10.43 29.59 10.15C28.43 8.72 26.87 7.67 25.11 7.14C24.56 6.97 26.07 7.43 25.64 7.3C23.5 6.65 21.2 6.76 19.13 7.61C18.6 7.83 19.77 7.35 19.13 7.61C17.42 8.31 15.97 9.52 14.97 11.06C14.67 11.53 15.61 10.09 15.38 10.43C14.14 12.34 13.63 14.64 13.94 16.89C13.97 17.1 14.04 17.6 14.15 18.42C13.48 18.39 13.07 18.37 12.9 18.36C10.83 18.28 8.89 19.36 7.88 21.17C7.73 21.45 8.28 20.46 7.96 21.02C7.41 22.02 7.15 23.16 7.24 24.3C7.29 25.04 7.22 24.01 7.24 24.38C7.4 26.6 8.74 28.57 10.74 29.54C10.95 29.64 9.63 29 10.17 29.26C11.23 29.78 12.4 30.04 13.58 30.04C14.34 30.04 16.25 30.04 19.29 30.04"  stroke="#000000" stroke-width="2" stroke-opacity="1" fill-opacity="0"></path>
<path d="M17.98 39.99L14.86 43.12"  stroke="#000000" stroke-width="2" stroke-opacity="1" fill-opacity="0"></path>
<path d="M32.03 39.99L28.91 43.12"  stroke="#000000" stroke-width="2" stroke-opacity="1" fill-opacity="0"></path>
<path d="M32.94 32.29L32.94 39.22"  stroke="#000000" stroke-width="1" stroke-opacity="1" fill-opacity="0"></path>
<path d="M35.94 34.02L29.94 37.49"  stroke="#000000" stroke-width="1" stroke-opacity="1" fill-opacity="0"></path>
<path d="M35.94 37.49L29.94 34.02"  stroke="#000000" stroke-width="1" stroke-opacity="1" fill-opacity="0"></path>
<path d="M14.31 32.29L14.31 39.22"  stroke="#000000" stroke-width="1" stroke-opacity="1" fill-opacity="0"></path>
<path d="M17.31 34.02L11.31 37.49"  stroke="#000000" stroke-width="1" stroke-opacity="1" fill-opacity="0"></path>
<path d="M17.31 37.49L11.31 34.02"  stroke="#000000" stroke-width="1" stroke-opacity="1" fill-opacity="0"></path>
<path d="M23.63 34.93L23.63 41.86"  stroke="#000000" stroke-width="1" stroke-opacity="1" fill-opacity="0"></path>
<path d="M26.63 36.66L20.63 40.13"  stroke="#000000" stroke-width="1" stroke-opacity="1" fill-opacity="0"></path>
<path d="M26.63 40.13L20.63 36.66"  stroke="#000000" stroke-width="1" stroke-opacity="1" fill-opacity="0"></path>
</g>
</svg>
