<svg xmlns="http://www.w3.org/2000/svg" viewBox="0 0 50 50" version="1.1">
<g>
<path d="M26.4 10.96C26.72 10.2 26.93 9.72 27.01 9.53C28.09 6.98 30.3 5.08 32.99 4.4C32.99 4.4 32.99 4.4 32.99 4.4C33.06 4.88 33.11 5.18 33.12 5.3C33.79 9.88 37.63 13.35 42.27 13.54C42.46 13.55 42.95 13.57 43.73 13.6C43.73 13.65 43.74 13.68 43.74 13.69C43.88 16.07 42.82 18.36 40.9 19.78C40.86 19.81 40.75 19.89 40.58 20.02"  stroke="#000000" stroke-width="2" stroke-opacity="1" fill-opacity="0"></path>
<path d="M29.45 35.44L17.89 35.44"  stroke="#000000" stroke-width="2" stroke-opacity="1" fill-opacity="0"></path>
<path d="M28.83 35.44C30.52 35.44 31.58 35.44 32.01 35.44C33.25 35.44 34.48 35.3 35.69 35.01C35.99 34.94 35.38 35.09 35.76 35C36.73 34.77 37.65 34.38 38.49 33.85C39.07 33.47 38.43 33.88 38.73 33.69C40.43 32.61 41.56 30.84 41.82 28.84C41.9 28.23 41.77 29.25 41.86 28.57C42.09 26.78 41.64 24.98 40.6 23.51C40.3 23.08 40.92 23.97 40.6 23.51C39.62 22.12 38.24 21.06 36.65 20.45C36.2 20.28 37.65 20.83 37.29 20.7C35.38 19.97 33.3 19.83 31.32 20.28C31.15 20.32 30.74 20.42 30.08 20.57C30.02 19.66 29.98 19.09 29.97 18.86C29.88 17.6 29.41 16.4 28.62 15.42C28.29 15 28.95 15.83 28.73 15.55C27.57 14.12 26.01 13.07 24.25 12.54C23.69 12.37 25.21 12.83 24.78 12.7C22.63 12.05 20.33 12.16 18.26 13.01C17.74 13.23 18.9 12.75 18.26 13.01C16.56 13.71 15.11 14.92 14.11 16.46C13.81 16.93 14.74 15.49 14.52 15.83C13.28 17.74 12.77 20.04 13.08 22.29C13.1 22.5 13.17 23 13.29 23.82C12.62 23.79 12.2 23.77 12.04 23.76C9.97 23.68 8.03 24.76 7.02 26.57C6.87 26.84 7.41 25.86 7.1 26.42C6.54 27.42 6.29 28.56 6.38 29.7C6.43 30.43 6.35 29.41 6.38 29.78C6.54 32 7.88 33.97 9.88 34.94C10.09 35.04 8.77 34.4 9.31 34.66C10.37 35.18 11.54 35.44 12.72 35.44C13.48 35.44 15.38 35.44 18.43 35.44"  stroke="#000000" stroke-width="2" stroke-opacity="1" fill-opacity="0"></path>
<path d="M24.14 38.57L17.11 45.6"  stroke="#000000" stroke-width="2" stroke-opacity="1" fill-opacity="0"></path>
<path d="M31.95 38.57L24.92 45.6"  stroke="#000000" stroke-width="2" stroke-opacity="1" fill-opacity="0"></path>
<path d="M16.33 38.57L9.29 45.6"  stroke="#000000" stroke-width="2" stroke-opacity="1" fill-opacity="0"></path>
</g>
</svg>
