<svg xmlns="http://www.w3.org/2000/svg" viewBox="0 0 50 50" version="1.1">
<g>
<path d="M29.69 31.72C31.39 31.72 32.45 31.72 32.87 31.72C34.11 31.72 35.34 31.58 36.55 31.29C36.86 31.22 36.25 31.36 36.62 31.27C37.59 31.04 38.51 30.65 39.35 30.12C39.93 29.75 39.29 30.16 39.59 29.97C41.29 28.89 42.42 27.11 42.68 25.12C42.76 24.51 42.63 25.53 42.72 24.84C42.95 23.06 42.5 21.25 41.46 19.79C41.16 19.36 41.79 20.24 41.46 19.79C40.48 18.4 39.11 17.34 37.52 16.73C37.06 16.56 38.51 17.11 38.15 16.97C36.24 16.25 34.17 16.1 32.18 16.56C32.01 16.6 31.6 16.69 30.94 16.84C30.88 15.93 30.84 15.36 30.83 15.14C30.74 13.88 30.27 12.67 29.48 11.69C29.15 11.28 29.81 12.1 29.59 11.83C28.43 10.4 26.87 9.35 25.11 8.81C24.56 8.65 26.07 9.1 25.64 8.97C23.5 8.32 21.2 8.44 19.13 9.29C18.6 9.5 19.77 9.03 19.13 9.29C17.42 9.99 15.97 11.19 14.97 12.74C14.67 13.21 15.61 11.76 15.38 12.11C14.14 14.02 13.63 16.31 13.94 18.57C13.97 18.77 14.04 19.28 14.15 20.09C13.48 20.07 13.07 20.05 12.9 20.04C10.83 19.95 8.89 21.04 7.88 22.84C7.73 23.12 8.28 22.14 7.96 22.7C7.41 23.7 7.15 24.84 7.24 25.98C7.29 26.71 7.22 25.69 7.24 26.06C7.4 28.28 8.74 30.24 10.74 31.21C10.95 31.32 9.63 30.68 10.17 30.94C11.23 31.45 12.4 31.72 13.58 31.72C14.34 31.72 16.25 31.72 19.29 31.72"  stroke="#000000" stroke-width="2" stroke-opacity="1" fill-opacity="0"></path>
<path d="M17.19 34.85L14.06 37.97"  stroke="#000000" stroke-width="2" stroke-opacity="1" fill-opacity="0"></path>
<path d="M32.81 34.85L29.69 37.97"  stroke="#000000" stroke-width="2" stroke-opacity="1" fill-opacity="0"></path>
<path d="M18.75 36.03L23.23 36.03L19.98 41.44L27.66 34.26L24.31 34.16L29.69 28.25L25 28.25L18.75 36.03Z"  stroke="#000000" stroke-width="0.5" stroke-opacity="1" fill="#f6e804" fill-opacity="1"></path>
</g>
</svg>
