<svg xmlns="http://www.w3.org/2000/svg" viewBox="0 0 50 50" version="1.1">
<g>
<path d="M23.68 17.29C23.96 17.99 21.26 20.7 21.26 21.5C21.26 23.68 21.59 23.98 21.24 25.17C20.9 26.36 19.17 26.12 17.96 26.12C14.57 26.12 11.81 23.36 11.81 19.97C11.81 16.58 14.57 13.82 17.96 13.82C20.56 13.82 22.78 15.01 23.68 17.29Z"  stroke="#000000" stroke-width="0" stroke-opacity="0" fill="#fcff00" fill-opacity="1"></path>
<path d="M18.36 26.08C17.82 26.01 17.49 25.96 17.35 25.94C15.66 25.7 14.12 24.83 13.04 23.5C12.7 23.09 13.37 23.9 13.03 23.49C11.96 22.17 11.48 20.48 11.69 18.8C11.76 18.22 11.63 19.28 11.69 18.74C11.92 16.94 12.9 15.33 14.39 14.31C14.78 14.04 13.95 14.61 14.43 14.28C15.65 13.44 17.14 13.07 18.62 13.23C19.24 13.3 18.24 13.19 18.71 13.24C20.61 13.45 22.3 14.51 23.32 16.12C23.4 16.26 23.61 16.59 23.95 17.12"  stroke="#000000" stroke-width="2" stroke-opacity="1" fill-opacity="0"></path>
<path d="M17.97 10.63L17.97 5.25"  stroke="#000000" stroke-width="2" stroke-opacity="1" fill-opacity="0"></path>
<path d="M3.56 19.53L8.94 19.53"  stroke="#000000" stroke-width="2" stroke-opacity="1" fill-opacity="0"></path>
<path d="M24.47 13.18L28.28 9.38"  stroke="#000000" stroke-width="2" stroke-opacity="1" fill-opacity="0"></path>
<path d="M7.63 30.03L11.43 26.22"  stroke="#000000" stroke-width="2" stroke-opacity="1" fill-opacity="0"></path>
<path d="M7.47 9.38L11.28 13.18"  stroke="#000000" stroke-width="2" stroke-opacity="1" fill-opacity="0"></path>
<path d="M30.21 35.95C34.17 35.95 36.65 35.95 37.64 35.95C38.71 35.95 39.78 35.82 40.83 35.57C41.09 35.51 40.57 35.63 40.89 35.56C41.73 35.36 42.53 35.02 43.26 34.56C43.76 34.24 43.2 34.59 43.47 34.43C44.94 33.49 45.92 31.95 46.15 30.22C46.21 29.69 46.1 30.58 46.18 29.98C46.38 28.44 45.99 26.87 45.09 25.6C44.83 25.23 45.37 26 45.09 25.6C44.24 24.4 43.04 23.48 41.67 22.95C41.27 22.8 42.53 23.28 42.22 23.16C40.57 22.53 38.76 22.41 37.04 22.8C36.9 22.84 36.54 22.92 35.97 23.05C35.92 22.26 35.88 21.77 35.87 21.57C35.8 20.48 35.39 19.44 34.7 18.58C34.41 18.23 34.99 18.94 34.8 18.7C33.79 17.46 32.44 16.55 30.92 16.09C30.43 15.94 31.75 16.34 31.37 16.23C29.51 15.67 27.52 15.76 25.73 16.5C25.27 16.69 26.28 16.27 25.73 16.5C24.25 17.11 22.99 18.15 22.13 19.49C21.86 19.9 22.67 18.64 22.48 18.95C21.4 20.6 20.96 22.59 21.23 24.55C21.25 24.72 21.31 25.16 21.41 25.87C20.83 25.84 20.47 25.83 20.33 25.82C18.54 25.74 16.85 26.68 15.98 28.25C15.85 28.49 16.32 27.64 16.05 28.13C15.57 28.99 15.35 29.98 15.42 30.97C15.47 31.6 15.4 30.72 15.43 31.04C15.57 32.96 16.72 34.66 18.46 35.51C18.64 35.59 17.5 35.04 17.96 35.27C18.88 35.71 19.9 35.95 20.92 35.95C22.18 35.95 25.34 35.95 30.38 35.95"  stroke="#000000" stroke-width="2" stroke-opacity="1" fill-opacity="0"></path>
</g>
</svg>
