<svg xmlns="http://www.w3.org/2000/svg" viewBox="0 0 50 50" version="1.1">
<g>
<path d="M21.22 15.85C21.5 16.55 18.8 19.26 18.8 20.06C18.8 22.24 19.13 22.54 18.78 23.73C18.44 24.92 16.71 24.68 15.5 24.68C12.11 24.68 9.35 21.92 9.35 18.53C9.35 15.14 12.11 12.38 15.5 12.38C18.1 12.38 20.32 13.57 21.22 15.85Z"  stroke="#000000" stroke-width="2" stroke-opacity="0" fill="#fcff00" fill-opacity="1"></path>
<path d="M15.9 24.74C15.36 24.67 15.03 24.62 14.89 24.6C13.2 24.36 11.66 23.49 10.58 22.16C10.25 21.75 10.91 22.57 10.57 22.15C9.5 20.83 9.02 19.14 9.23 17.46C9.3 16.88 9.17 17.94 9.24 17.4C9.46 15.61 10.44 13.99 11.93 12.97C12.32 12.7 11.49 13.27 11.97 12.94C13.2 12.1 14.68 11.73 16.16 11.89C16.78 11.96 15.78 11.85 16.26 11.9C18.15 12.11 19.84 13.17 20.86 14.78C20.94 14.92 21.15 15.25 21.49 15.79"  stroke="#000000" stroke-width="2" stroke-opacity="1" fill-opacity="0"></path>
<path d="M15.51 9.29L15.51 3.91"  stroke="#000000" stroke-width="2" stroke-opacity="1" fill-opacity="0"></path>
<path d="M1.1 18.19L6.48 18.19"  stroke="#000000" stroke-width="2" stroke-opacity="1" fill-opacity="0"></path>
<path d="M22.02 11.84L25.82 8.04"  stroke="#000000" stroke-width="2" stroke-opacity="1" fill-opacity="0"></path>
<path d="M5.17 28.69L8.97 24.89"  stroke="#000000" stroke-width="2" stroke-opacity="1" fill-opacity="0"></path>
<path d="M5.02 8.04L8.82 11.84"  stroke="#000000" stroke-width="2" stroke-opacity="1" fill-opacity="0"></path>
<path d="M35.54 35.93L23.98 35.93"  stroke="#000000" stroke-width="2" stroke-opacity="1" fill-opacity="0"></path>
<path d="M34.91 35.93C36.61 35.93 37.67 35.93 38.1 35.93C39.34 35.93 40.57 35.79 41.77 35.5C42.08 35.43 41.47 35.57 41.85 35.48C42.82 35.26 43.74 34.87 44.57 34.33C45.16 33.96 44.52 34.37 44.82 34.18C46.52 33.1 47.65 31.33 47.91 29.33C47.99 28.72 47.86 29.74 47.94 29.06C48.18 27.27 47.73 25.47 46.69 24C46.39 23.57 47.01 24.45 46.69 24C45.7 22.61 44.33 21.55 42.74 20.94C42.28 20.77 43.74 21.32 43.38 21.18C41.47 20.46 39.39 20.32 37.4 20.77C37.24 20.81 36.83 20.91 36.17 21.06C36.11 20.15 36.07 19.58 36.05 19.35C35.97 18.09 35.5 16.89 34.71 15.91C34.37 15.49 35.04 16.32 34.82 16.04C33.66 14.61 32.1 13.56 30.34 13.03C29.78 12.86 31.3 13.32 30.86 13.19C28.72 12.54 26.42 12.65 24.35 13.5C23.83 13.72 24.99 13.24 24.35 13.5C22.65 14.2 21.2 15.41 20.2 16.95C19.89 17.42 20.83 15.97 20.6 16.32C19.37 18.23 18.85 20.53 19.16 22.78C19.19 22.98 19.26 23.49 19.37 24.31C18.71 24.28 18.29 24.26 18.12 24.25C16.06 24.17 14.12 25.25 13.11 27.06C12.95 27.33 13.5 26.35 13.19 26.91C12.63 27.91 12.38 29.05 12.46 30.19C12.52 30.92 12.44 29.9 12.47 30.27C12.63 32.49 13.96 34.46 15.97 35.43C16.18 35.53 14.86 34.89 15.39 35.15C16.46 35.66 17.63 35.93 18.81 35.93C19.57 35.93 21.47 35.93 24.51 35.93"  stroke="#000000" stroke-width="2" stroke-opacity="1" fill-opacity="0"></path>
<path d="M30.23 39.06L23.19 46.09"  stroke="#000000" stroke-width="2" stroke-opacity="1" fill-opacity="0"></path>
<path d="M38.04 39.06L31.01 46.09"  stroke="#000000" stroke-width="2" stroke-opacity="1" fill-opacity="0"></path>
<path d="M22.41 39.06L15.38 46.09"  stroke="#000000" stroke-width="2" stroke-opacity="1" fill-opacity="0"></path>
</g>
</svg>
