<svg xmlns="http://www.w3.org/2000/svg" viewBox="0 0 50 50" version="1.1">
<g>
<path d="M21.32 16.06C21.59 16.76 18.9 19.47 18.9 20.27C18.9 22.46 19.23 22.76 18.88 23.94C18.53 25.13 16.81 24.89 15.6 24.89C12.21 24.89 9.45 22.14 9.45 18.74C9.45 15.35 12.21 12.6 15.6 12.6C18.2 12.6 20.42 13.78 21.32 16.06Z"  stroke="#000000" stroke-width="2" stroke-opacity="0" fill="#fcff00" fill-opacity="1"></path>
<path d="M16 24.96C15.46 24.88 15.13 24.83 14.99 24.81C13.3 24.58 11.76 23.71 10.68 22.38C10.34 21.96 11 22.78 10.67 22.36C9.6 21.05 9.12 19.35 9.33 17.67C9.4 17.1 9.27 18.15 9.33 17.61C9.56 15.82 10.54 14.21 12.03 13.18C12.42 12.92 11.59 13.48 12.07 13.15C13.29 12.31 14.78 11.94 16.26 12.1C16.88 12.17 15.88 12.06 16.35 12.12C18.25 12.33 19.94 13.39 20.96 15C21.04 15.13 21.25 15.46 21.59 16"  stroke="#000000" stroke-width="2" stroke-opacity="1" fill-opacity="0"></path>
<path d="M15.61 9.5L15.61 4.12"  stroke="#000000" stroke-width="2" stroke-opacity="1" fill-opacity="0"></path>
<path d="M1.2 18.4L6.58 18.4"  stroke="#000000" stroke-width="2" stroke-opacity="1" fill-opacity="0"></path>
<path d="M22.11 12.05L25.91 8.25"  stroke="#000000" stroke-width="2" stroke-opacity="1" fill-opacity="0"></path>
<path d="M5.27 28.9L9.07 25.1"  stroke="#000000" stroke-width="2" stroke-opacity="1" fill-opacity="0"></path>
<path d="M5.11 8.25L8.91 12.05"  stroke="#000000" stroke-width="2" stroke-opacity="1" fill-opacity="0"></path>
<path d="M35.01 36.15C36.71 36.15 37.77 36.15 38.19 36.15C39.43 36.15 40.67 36 41.87 35.72C42.18 35.64 41.57 35.79 41.95 35.7C42.91 35.47 43.83 35.08 44.67 34.55C45.26 34.18 44.61 34.59 44.91 34.39C46.61 33.32 47.75 31.54 48.01 29.54C48.08 28.93 47.95 29.95 48.04 29.27C48.27 27.49 47.82 25.68 46.78 24.21C46.48 23.79 47.11 24.67 46.78 24.21C45.8 22.82 44.43 21.76 42.84 21.16C42.38 20.98 43.83 21.53 43.47 21.4C41.57 20.67 39.49 20.53 37.5 20.99C37.34 21.02 36.92 21.12 36.26 21.27C36.2 20.36 36.16 19.79 36.15 19.56C36.07 18.3 35.6 17.1 34.8 16.12C34.47 15.71 35.13 16.53 34.91 16.25C33.76 14.82 32.2 13.77 30.44 13.24C29.88 13.07 31.4 13.53 30.96 13.4C28.82 12.75 26.52 12.86 24.45 13.71C23.93 13.93 25.09 13.45 24.45 13.71C22.75 14.42 21.3 15.62 20.29 17.16C19.99 17.63 20.93 16.19 20.7 16.54C19.46 18.45 18.95 20.74 19.26 22.99C19.29 23.2 19.36 23.71 19.47 24.52C18.8 24.49 18.39 24.47 18.22 24.47C16.15 24.38 14.21 25.46 13.21 27.27C13.05 27.55 13.6 26.56 13.29 27.12C12.73 28.12 12.48 29.26 12.56 30.4C12.61 31.14 12.54 30.12 12.57 30.48C12.73 32.7 14.06 34.67 16.06 35.64C16.27 35.74 14.96 35.1 15.49 35.36C16.56 35.88 17.72 36.15 18.91 36.15C19.67 36.15 21.57 36.15 24.61 36.15"  stroke="#000000" stroke-width="2" stroke-opacity="1" fill-opacity="0"></path>
<path d="M38.25 38.38L38.25 45.31"  stroke="#000000" stroke-width="1" stroke-opacity="1" fill-opacity="0"></path>
<path d="M41.24 40.11L35.25 43.58"  stroke="#000000" stroke-width="1" stroke-opacity="1" fill-opacity="0"></path>
<path d="M41.24 43.58L35.25 40.11"  stroke="#000000" stroke-width="1" stroke-opacity="1" fill-opacity="0"></path>
<path d="M19.62 38.38L19.62 45.31"  stroke="#000000" stroke-width="1" stroke-opacity="1" fill-opacity="0"></path>
<path d="M22.62 40.11L16.62 43.58"  stroke="#000000" stroke-width="1" stroke-opacity="1" fill-opacity="0"></path>
<path d="M22.62 43.58L16.62 40.11"  stroke="#000000" stroke-width="1" stroke-opacity="1" fill-opacity="0"></path>
<path d="M24.06 40.46L28.53 40.46L25.29 45.88L32.97 38.69L29.62 38.59L34.99 32.68L30.31 32.68L24.06 40.46Z"  stroke="#000000" stroke-width="0.5" stroke-opacity="1" fill="#f6e804" fill-opacity="1"></path>
</g>
</svg>
