<svg xmlns="http://www.w3.org/2000/svg" viewBox="0 0 50 50" version="1.1">
<g>
<path d="M26.4 9.69C26.72 8.93 26.93 8.45 27.01 8.26C28.09 5.71 30.3 3.81 32.99 3.13C32.99 3.13 32.99 3.13 32.99 3.13C33.06 3.6 33.11 3.9 33.12 4.02C33.79 8.61 37.63 12.07 42.27 12.27C42.46 12.27 42.95 12.29 43.73 12.33C43.73 12.37 43.74 12.4 43.74 12.41C43.88 14.79 42.82 17.08 40.9 18.51C40.86 18.54 40.75 18.62 40.58 18.75"  stroke="#000000" stroke-width="2" stroke-opacity="1" fill-opacity="0"></path>
<path d="M29.45 34.53L17.89 34.53"  stroke="#000000" stroke-width="2" stroke-opacity="1" fill-opacity="0"></path>
<path d="M28.83 34.53C30.52 34.53 31.58 34.53 32.01 34.53C33.25 34.53 34.48 34.38 35.69 34.1C35.99 34.02 35.38 34.17 35.76 34.08C36.73 33.85 37.65 33.46 38.49 32.93C39.07 32.56 38.43 32.97 38.73 32.77C40.43 31.7 41.56 29.92 41.82 27.92C41.9 27.31 41.77 28.33 41.86 27.65C42.09 25.87 41.64 24.06 40.6 22.59C40.3 22.17 40.92 23.05 40.6 22.59C39.62 21.21 38.24 20.14 36.65 19.54C36.2 19.36 37.65 19.92 37.29 19.78C35.38 19.05 33.3 18.91 31.32 19.37C31.15 19.4 30.74 19.5 30.08 19.65C30.02 18.74 29.98 18.17 29.97 17.94C29.88 16.68 29.41 15.48 28.62 14.5C28.29 14.09 28.95 14.91 28.73 14.64C27.57 13.2 26.01 12.15 24.25 11.62C23.69 11.45 25.21 11.91 24.78 11.78C22.63 11.13 20.33 11.24 18.26 12.09C17.74 12.31 18.9 11.83 18.26 12.09C16.56 12.8 15.11 14 14.11 15.54C13.81 16.01 14.74 14.57 14.52 14.92C13.28 16.83 12.77 19.12 13.08 21.38C13.1 21.58 13.17 22.09 13.29 22.9C12.62 22.87 12.2 22.85 12.04 22.85C9.97 22.76 8.03 23.84 7.02 25.65C6.87 25.93 7.41 24.94 7.1 25.51C6.54 26.5 6.29 27.64 6.38 28.78C6.43 29.52 6.35 28.5 6.38 28.86C6.54 31.08 7.88 33.05 9.88 34.02C10.09 34.12 8.77 33.48 9.31 33.74C10.37 34.26 11.54 34.53 12.72 34.53C13.48 34.53 15.38 34.53 18.43 34.53"  stroke="#000000" stroke-width="2" stroke-opacity="1" fill-opacity="0"></path>
<path d="M17.12 44.48L13.99 47.6"  stroke="#000000" stroke-width="2" stroke-opacity="1" fill-opacity="0"></path>
<path d="M31.17 44.48L28.04 47.6"  stroke="#000000" stroke-width="2" stroke-opacity="1" fill-opacity="0"></path>
<path d="M32.08 36.77L32.08 43.7"  stroke="#000000" stroke-width="1" stroke-opacity="1" fill-opacity="0"></path>
<path d="M35.08 38.51L29.08 41.97"  stroke="#000000" stroke-width="1" stroke-opacity="1" fill-opacity="0"></path>
<path d="M35.08 41.97L29.08 38.51"  stroke="#000000" stroke-width="1" stroke-opacity="1" fill-opacity="0"></path>
<path d="M13.45 36.77L13.45 43.7"  stroke="#000000" stroke-width="1" stroke-opacity="1" fill-opacity="0"></path>
<path d="M16.45 38.51L10.45 41.97"  stroke="#000000" stroke-width="1" stroke-opacity="1" fill-opacity="0"></path>
<path d="M16.45 41.97L10.45 38.51"  stroke="#000000" stroke-width="1" stroke-opacity="1" fill-opacity="0"></path>
<path d="M22.77 39.42L22.77 46.34"  stroke="#000000" stroke-width="1" stroke-opacity="1" fill-opacity="0"></path>
<path d="M25.77 41.15L19.77 44.61"  stroke="#000000" stroke-width="1" stroke-opacity="1" fill-opacity="0"></path>
<path d="M25.77 44.61L19.77 41.15"  stroke="#000000" stroke-width="1" stroke-opacity="1" fill-opacity="0"></path>
</g>
</svg>
