<svg xmlns="http://www.w3.org/2000/svg" viewBox="0 0 50 50" version="1.1">
<g>
<path d="M39.94 32.08C40.86 31.48 41.43 31.11 41.66 30.96C43.35 29.86 44.47 28.07 44.73 26.07C44.81 25.46 44.68 26.48 44.77 25.8C45 24.02 44.55 22.21 43.51 20.74C43.21 20.32 43.83 21.2 43.51 20.74C42.53 19.35 41.15 18.29 39.56 17.69C39.11 17.51 40.56 18.06 40.2 17.93C38.29 17.2 36.21 17.06 34.23 17.52C34.06 17.55 33.65 17.65 32.99 17.8C32.93 16.89 32.89 16.32 32.88 16.09C32.79 14.83 32.32 13.63 31.53 12.65C31.2 12.24 31.86 13.06 31.64 12.78C30.48 11.35 28.92 10.3 27.16 9.77C26.6 9.6 28.12 10.06 27.69 9.93C25.54 9.28 23.24 9.39 21.17 10.24C20.65 10.46 21.81 9.98 21.17 10.24C19.47 10.94 18.02 12.15 17.02 13.69C16.72 14.16 17.65 12.72 17.43 13.07C16.19 14.98 15.68 17.27 15.99 19.52C16.01 19.73 16.08 20.24 16.2 21.05C15.53 21.02 15.11 21 14.95 21C12.88 20.91 10.94 21.99 9.93 23.8C9.83 23.98 9.57 24.45 9.16 25.18"  stroke="#000000" stroke-width="2" stroke-opacity="1" fill-opacity="0"></path>
<path d="M5.17 32.68L36.42 32.68"  stroke="#000000" stroke-width="2" stroke-opacity="1" fill-opacity="0"></path>
<path d="M9.03 27.99L40.28 27.99"  stroke="#000000" stroke-width="2" stroke-opacity="1" fill-opacity="0"></path>
<path d="M12.99 37.36L44.24 37.36"  stroke="#000000" stroke-width="2" stroke-opacity="1" fill-opacity="0"></path>
</g>
</svg>
