<svg xmlns="http://www.w3.org/2000/svg" viewBox="0 0 50 50" version="1.1">
<g>
<path d="M26.4 11.44C26.72 10.68 26.93 10.2 27.01 10.01C28.09 7.46 30.3 5.56 32.99 4.88C32.99 4.88 32.99 4.88 32.99 4.88C33.06 5.35 33.11 5.65 33.12 5.77C33.79 10.36 37.63 13.82 42.27 14.02C42.46 14.02 42.95 14.04 43.73 14.08C43.73 14.12 43.74 14.15 43.74 14.16C43.88 16.54 42.82 18.83 40.9 20.26C40.86 20.29 40.75 20.37 40.58 20.5"  stroke="#000000" stroke-width="2" stroke-opacity="1" fill-opacity="0"></path>
<path d="M29.45 35.92L17.89 35.92"  stroke="#000000" stroke-width="2" stroke-opacity="1" fill-opacity="0"></path>
<path d="M28.83 35.92C30.52 35.92 31.58 35.92 32.01 35.92C33.25 35.92 34.48 35.78 35.69 35.49C35.99 35.42 35.38 35.56 35.76 35.47C36.73 35.24 37.65 34.85 38.49 34.32C39.07 33.95 38.43 34.36 38.73 34.17C40.43 33.09 41.56 31.31 41.82 29.32C41.9 28.71 41.77 29.73 41.86 29.04C42.09 27.26 41.64 25.45 40.6 23.99C40.3 23.56 40.92 24.44 40.6 23.99C39.62 22.6 38.24 21.54 36.65 20.93C36.2 20.76 37.65 21.31 37.29 21.17C35.38 20.45 33.3 20.3 31.32 20.76C31.15 20.8 30.74 20.89 30.08 21.04C30.02 20.13 29.98 19.56 29.97 19.34C29.88 18.08 29.41 16.87 28.62 15.89C28.29 15.48 28.95 16.3 28.73 16.03C27.57 14.6 26.01 13.55 24.25 13.01C23.69 12.85 25.21 13.3 24.78 13.17C22.63 12.52 20.33 12.64 18.26 13.49C17.74 13.7 18.9 13.22 18.26 13.49C16.56 14.19 15.11 15.39 14.11 16.94C13.81 17.41 14.74 15.96 14.52 16.31C13.28 18.22 12.77 20.51 13.08 22.77C13.1 22.97 13.17 23.48 13.29 24.29C12.62 24.27 12.2 24.25 12.04 24.24C9.97 24.15 8.03 25.24 7.02 27.04C6.87 27.32 7.41 26.34 7.1 26.9C6.54 27.9 6.29 29.04 6.38 30.18C6.43 30.91 6.35 29.89 6.38 30.26C6.54 32.48 7.88 34.44 9.88 35.41C10.09 35.52 8.77 34.88 9.31 35.14C10.37 35.65 11.54 35.92 12.72 35.92C13.48 35.92 15.38 35.92 18.43 35.92"  stroke="#000000" stroke-width="2" stroke-opacity="1" fill-opacity="0"></path>
<path d="M23.75 42L20.62 45.12"  stroke="#000000" stroke-width="2" stroke-opacity="1" fill-opacity="0"></path>
<path d="M16.33 39.05L13.2 42.17"  stroke="#000000" stroke-width="2" stroke-opacity="1" fill-opacity="0"></path>
<path d="M31.95 39.05L28.83 42.17"  stroke="#000000" stroke-width="2" stroke-opacity="1" fill-opacity="0"></path>
</g>
</svg>
