<svg xmlns="http://www.w3.org/2000/svg" viewBox="0 0 50 50" version="1.1">
<g>
<path d="M21.22 13.71C21.5 14.41 18.8 17.13 18.8 17.92C18.8 20.11 19.13 20.41 18.78 21.6C18.44 22.79 16.71 22.54 15.5 22.54C12.11 22.54 9.35 19.79 9.35 16.4C9.35 13 12.11 10.25 15.5 10.25C18.1 10.25 20.32 11.44 21.22 13.71Z"  stroke="#000000" stroke-width="2" stroke-opacity="0" fill="#fcff00" fill-opacity="1"></path>
<path d="M15.9 22.61C15.36 22.53 15.03 22.49 14.89 22.47C13.2 22.23 11.66 21.36 10.58 20.03C10.25 19.62 10.91 20.43 10.57 20.02C9.5 18.7 9.02 17.01 9.23 15.33C9.3 14.75 9.17 15.8 9.24 15.27C9.46 13.47 10.44 11.86 11.93 10.84C12.32 10.57 11.49 11.14 11.97 10.81C13.2 9.97 14.68 9.59 16.16 9.76C16.78 9.83 15.78 9.72 16.26 9.77C18.15 9.98 19.84 11.04 20.86 12.65C20.94 12.78 21.15 13.12 21.49 13.65"  stroke="#000000" stroke-width="2" stroke-opacity="1" fill-opacity="0"></path>
<path d="M15.51 7.15L15.51 1.78"  stroke="#000000" stroke-width="2" stroke-opacity="1" fill-opacity="0"></path>
<path d="M1.1 16.06L6.48 16.06"  stroke="#000000" stroke-width="2" stroke-opacity="1" fill-opacity="0"></path>
<path d="M22.02 9.7L25.82 5.9"  stroke="#000000" stroke-width="2" stroke-opacity="1" fill-opacity="0"></path>
<path d="M5.17 26.55L8.97 22.75"  stroke="#000000" stroke-width="2" stroke-opacity="1" fill-opacity="0"></path>
<path d="M5.02 5.9L8.82 9.7"  stroke="#000000" stroke-width="2" stroke-opacity="1" fill-opacity="0"></path>
<path d="M35.54 33.8L23.98 33.8"  stroke="#000000" stroke-width="2" stroke-opacity="1" fill-opacity="0"></path>
<path d="M34.91 33.8C36.61 33.8 37.67 33.8 38.1 33.8C39.34 33.8 40.57 33.66 41.77 33.37C42.08 33.3 41.47 33.44 41.85 33.35C42.82 33.12 43.74 32.73 44.57 32.2C45.16 31.83 44.52 32.24 44.82 32.05C46.52 30.97 47.65 29.19 47.91 27.2C47.99 26.59 47.86 27.61 47.94 26.92C48.18 25.14 47.73 23.33 46.69 21.86C46.39 21.44 47.01 22.32 46.69 21.86C45.7 20.48 44.33 19.41 42.74 18.81C42.28 18.64 43.74 19.19 43.38 19.05C41.47 18.33 39.39 18.18 37.4 18.64C37.24 18.68 36.83 18.77 36.17 18.92C36.11 18.01 36.07 17.44 36.05 17.21C35.97 15.96 35.5 14.75 34.71 13.77C34.37 13.36 35.04 14.18 34.82 13.91C33.66 12.48 32.1 11.43 30.34 10.89C29.78 10.72 31.3 11.18 30.86 11.05C28.72 10.4 26.42 10.52 24.35 11.37C23.83 11.58 24.99 11.1 24.35 11.37C22.65 12.07 21.2 13.27 20.2 14.82C19.89 15.28 20.83 13.84 20.6 14.19C19.37 16.1 18.85 18.39 19.16 20.65C19.19 20.85 19.26 21.36 19.37 22.17C18.71 22.14 18.29 22.13 18.12 22.12C16.06 22.03 14.12 23.12 13.11 24.92C12.95 25.2 13.5 24.22 13.19 24.78C12.63 25.78 12.38 26.92 12.46 28.06C12.52 28.79 12.44 27.77 12.47 28.14C12.63 30.36 13.96 32.32 15.97 33.29C16.18 33.4 14.86 32.76 15.39 33.02C16.46 33.53 17.63 33.8 18.81 33.8C19.57 33.8 21.47 33.8 24.51 33.8"  stroke="#000000" stroke-width="2" stroke-opacity="1" fill-opacity="0"></path>
<path d="M23.21 43.75L20.08 46.88"  stroke="#000000" stroke-width="2" stroke-opacity="1" fill-opacity="0"></path>
<path d="M37.26 43.75L34.13 46.87"  stroke="#000000" stroke-width="2" stroke-opacity="1" fill-opacity="0"></path>
<path d="M38.16 36.05L38.16 42.97"  stroke="#000000" stroke-width="1" stroke-opacity="1" fill-opacity="0"></path>
<path d="M41.16 37.78L35.16 41.24"  stroke="#000000" stroke-width="1" stroke-opacity="1" fill-opacity="0"></path>
<path d="M41.16 41.24L35.16 37.78"  stroke="#000000" stroke-width="1" stroke-opacity="1" fill-opacity="0"></path>
<path d="M19.54 36.05L19.54 42.97"  stroke="#000000" stroke-width="1" stroke-opacity="1" fill-opacity="0"></path>
<path d="M22.54 37.78L16.54 41.24"  stroke="#000000" stroke-width="1" stroke-opacity="1" fill-opacity="0"></path>
<path d="M22.54 41.24L16.54 37.78"  stroke="#000000" stroke-width="1" stroke-opacity="1" fill-opacity="0"></path>
<path d="M28.86 38.69L28.86 45.61"  stroke="#000000" stroke-width="1" stroke-opacity="1" fill-opacity="0"></path>
<path d="M31.86 40.42L25.86 43.88"  stroke="#000000" stroke-width="1" stroke-opacity="1" fill-opacity="0"></path>
<path d="M31.86 43.88L25.86 40.42"  stroke="#000000" stroke-width="1" stroke-opacity="1" fill-opacity="0"></path>
</g>
</svg>
