<svg xmlns="http://www.w3.org/2000/svg" viewBox="0 0 50 50" version="1.1">
<g>
<path d="M21.22 12.27C21.5 12.97 18.8 15.68 18.8 16.48C18.8 18.67 19.13 18.97 18.78 20.16C18.44 21.34 16.71 21.1 15.5 21.1C12.11 21.1 9.35 18.35 9.35 14.96C9.35 11.56 12.11 8.81 15.5 8.81C18.1 8.81 20.32 10 21.22 12.27Z"  stroke="#000000" stroke-width="2" stroke-opacity="0" fill="#fcff00" fill-opacity="1"></path>
<path d="M15.9 21.17C15.36 21.09 15.03 21.05 14.89 21.03C13.2 20.79 11.66 19.92 10.58 18.59C10.25 18.17 10.91 18.99 10.57 18.57C9.5 17.26 9.02 15.57 9.23 13.88C9.3 13.31 9.17 14.36 9.24 13.83C9.46 12.03 10.44 10.42 11.93 9.39C12.32 9.13 11.49 9.7 11.97 9.37C13.2 8.53 14.68 8.15 16.16 8.32C16.78 8.39 15.78 8.27 16.26 8.33C18.15 8.54 19.84 9.6 20.86 11.21C20.94 11.34 21.15 11.68 21.49 12.21"  stroke="#000000" stroke-width="2" stroke-opacity="1" fill-opacity="0"></path>
<path d="M15.51 5.71L15.51 0.34"  stroke="#000000" stroke-width="2" stroke-opacity="1" fill-opacity="0"></path>
<path d="M1.1 14.62L6.48 14.62"  stroke="#000000" stroke-width="2" stroke-opacity="1" fill-opacity="0"></path>
<path d="M22.02 8.26L25.82 4.46"  stroke="#000000" stroke-width="2" stroke-opacity="1" fill-opacity="0"></path>
<path d="M5.17 25.11L8.97 21.31"  stroke="#000000" stroke-width="2" stroke-opacity="1" fill-opacity="0"></path>
<path d="M5.02 4.46L8.82 8.26"  stroke="#000000" stroke-width="2" stroke-opacity="1" fill-opacity="0"></path>
<path d="M34.91 32.36C36.61 32.36 37.67 32.36 38.1 32.36C39.34 32.36 40.57 32.21 41.77 31.93C42.08 31.86 41.47 32 41.85 31.91C42.82 31.68 43.74 31.29 44.57 30.76C45.16 30.39 44.52 30.8 44.82 30.61C46.52 29.53 47.65 27.75 47.91 25.76C47.99 25.15 47.86 26.17 47.94 25.48C48.18 23.7 47.73 21.89 46.69 20.42C46.39 20 47.01 20.88 46.69 20.42C45.7 19.04 44.33 17.97 42.74 17.37C42.28 17.19 43.74 17.75 43.38 17.61C41.47 16.89 39.39 16.74 37.4 17.2C37.24 17.24 36.83 17.33 36.17 17.48C36.11 16.57 36.07 16 36.05 15.77C35.97 14.51 35.5 13.31 34.71 12.33C34.37 11.92 35.04 12.74 34.82 12.47C33.66 11.04 32.1 9.98 30.34 9.45C29.78 9.28 31.3 9.74 30.86 9.61C28.72 8.96 26.42 9.07 24.35 9.93C23.83 10.14 24.99 9.66 24.35 9.93C22.65 10.63 21.2 11.83 20.2 13.38C19.89 13.84 20.83 12.4 20.6 12.75C19.37 14.66 18.85 16.95 19.16 19.21C19.19 19.41 19.26 19.92 19.37 20.73C18.71 20.7 18.29 20.69 18.12 20.68C16.06 20.59 14.12 21.68 13.11 23.48C12.95 23.76 13.5 22.78 13.19 23.34C12.63 24.34 12.38 25.48 12.46 26.62C12.52 27.35 12.44 26.33 12.47 26.69C12.63 28.92 13.96 30.88 15.97 31.85C16.18 31.95 14.86 31.32 15.39 31.57C16.46 32.09 17.63 32.36 18.81 32.36C19.57 32.36 21.47 32.36 24.51 32.36"  stroke="#000000" stroke-width="2" stroke-opacity="1" fill-opacity="0"></path>
<path d="M38.16 34.59L38.16 41.51"  stroke="#000000" stroke-width="1" stroke-opacity="1" fill-opacity="0"></path>
<path d="M41.16 36.32L35.16 39.78"  stroke="#000000" stroke-width="1" stroke-opacity="1" fill-opacity="0"></path>
<path d="M41.16 39.78L35.16 36.32"  stroke="#000000" stroke-width="1" stroke-opacity="1" fill-opacity="0"></path>
<path d="M19.54 34.59L19.54 41.51"  stroke="#000000" stroke-width="1" stroke-opacity="1" fill-opacity="0"></path>
<path d="M22.54 36.32L16.54 39.78"  stroke="#000000" stroke-width="1" stroke-opacity="1" fill-opacity="0"></path>
<path d="M22.54 39.78L16.54 36.32"  stroke="#000000" stroke-width="1" stroke-opacity="1" fill-opacity="0"></path>
<path d="M24.1 42.74L24.1 49.66"  stroke="#000000" stroke-width="1" stroke-opacity="1" fill-opacity="0"></path>
<path d="M27.1 44.47L21.1 47.93"  stroke="#000000" stroke-width="1" stroke-opacity="1" fill-opacity="0"></path>
<path d="M27.1 47.93L21.1 44.47"  stroke="#000000" stroke-width="1" stroke-opacity="1" fill-opacity="0"></path>
<path d="M33.6 42.74L33.6 49.66"  stroke="#000000" stroke-width="1" stroke-opacity="1" fill-opacity="0"></path>
<path d="M36.6 44.47L30.6 47.93"  stroke="#000000" stroke-width="1" stroke-opacity="1" fill-opacity="0"></path>
<path d="M36.6 47.93L30.6 44.47"  stroke="#000000" stroke-width="1" stroke-opacity="1" fill-opacity="0"></path>
<path d="M23.98 36.67L28.45 36.67L25.2 42.08L32.88 34.89L29.54 34.79L34.91 28.89L30.23 28.89L23.98 36.67Z"  stroke="#000000" stroke-width="0.5" stroke-opacity="1" fill="#f6e804" fill-opacity="1"></path>
</g>
</svg>
