<svg xmlns="http://www.w3.org/2000/svg" viewBox="0 0 50 50" version="1.1">
<g>
<path d="M28.14 35.66C26.57 35.91 24.96 35.79 23.45 35.32C22.98 35.17 23.65 35.38 23.12 35.21C21.8 34.8 20.57 34.12 19.51 33.22C19.21 32.97 19.79 33.46 19.46 33.18C18.51 32.38 17.71 31.41 17.1 30.33C16.84 29.86 17.26 30.61 17.07 30.28C16.22 28.77 15.74 27.09 15.65 25.37C15.63 24.92 15.68 25.82 15.65 25.27C15.58 23.84 15.81 22.41 16.33 21.07C16.46 20.71 16.26 21.24 16.44 20.77C16.82 19.79 17.34 18.88 17.99 18.05C18.47 17.45 17.83 18.26 18.03 18C19.55 16.08 21.68 14.74 24.06 14.21C24.06 14.21 24.06 14.21 24.06 14.21C24.14 14.75 24.19 15.09 24.21 15.23C25.04 20.93 29.81 25.24 35.57 25.48C35.83 25.49 36.47 25.51 37.49 25.56C37.49 25.56 37.49 25.56 37.49 25.56C37.38 27.37 36.81 29.12 35.83 30.65C35.61 31 35.96 30.45 35.62 30.98C35.02 31.9 34.27 32.72 33.4 33.39C32.93 33.76 33.46 33.35 33.14 33.59C31.77 34.65 30.16 35.34 28.46 35.61C27.92 35.7 28.72 35.57 28.14 35.66Z"  stroke="#000000" stroke-width="2" stroke-opacity="1" fill-opacity="0"></path>
</g>
</svg>
