<svg xmlns="http://www.w3.org/2000/svg" viewBox="0 0 50 50" version="1.1">
<g>
<path d="M26.4 9.29C26.72 8.53 26.93 8.05 27.01 7.86C28.09 5.31 30.3 3.41 32.99 2.73C32.99 2.73 32.99 2.73 32.99 2.73C33.06 3.21 33.11 3.51 33.12 3.63C33.79 8.21 37.63 11.67 42.27 11.87C42.46 11.88 42.95 11.9 43.73 11.93C43.73 11.98 43.74 12 43.74 12.02C43.88 14.39 42.82 16.69 40.9 18.11C40.86 18.14 40.75 18.22 40.58 18.35"  stroke="#000000" stroke-width="2" stroke-opacity="1" fill-opacity="0"></path>
<path d="M29.45 33.77L17.89 33.77"  stroke="#000000" stroke-width="2" stroke-opacity="1" fill-opacity="0"></path>
<path d="M28.83 33.77C30.52 33.77 31.58 33.77 32.01 33.77C33.25 33.77 34.48 33.63 35.69 33.34C35.99 33.27 35.38 33.41 35.76 33.32C36.73 33.09 37.65 32.71 38.49 32.17C39.07 31.8 38.43 32.21 38.73 32.02C40.43 30.94 41.56 29.17 41.82 27.17C41.9 26.56 41.77 27.58 41.86 26.9C42.09 25.11 41.64 23.31 40.6 21.84C40.3 21.41 40.92 22.29 40.6 21.84C39.62 20.45 38.24 19.39 36.65 18.78C36.2 18.61 37.65 19.16 37.29 19.02C35.38 18.3 33.3 18.16 31.32 18.61C31.15 18.65 30.74 18.74 30.08 18.9C30.02 17.98 29.98 17.42 29.97 17.19C29.88 15.93 29.41 14.73 28.62 13.74C28.29 13.33 28.95 14.16 28.73 13.88C27.57 12.45 26.01 11.4 24.25 10.87C23.69 10.7 25.21 11.16 24.78 11.02C22.63 10.38 20.33 10.49 18.26 11.34C17.74 11.56 18.9 11.08 18.26 11.34C16.56 12.04 15.11 13.24 14.11 14.79C13.81 15.26 14.74 13.81 14.52 14.16C13.28 16.07 12.77 18.36 13.08 20.62C13.1 20.82 13.17 21.33 13.29 22.15C12.62 22.12 12.2 22.1 12.04 22.09C9.97 22 8.03 23.09 7.02 24.9C6.87 25.17 7.41 24.19 7.1 24.75C6.54 25.75 6.29 26.89 6.38 28.03C6.43 28.76 6.35 27.74 6.38 28.11C6.54 30.33 7.88 32.3 9.88 33.27C10.09 33.37 8.77 32.73 9.31 32.99C10.37 33.5 11.54 33.77 12.72 33.77C13.48 33.77 15.38 33.77 18.43 33.77"  stroke="#000000" stroke-width="2" stroke-opacity="1" fill-opacity="0"></path>
<path d="M20.01 41.02L16.89 44.15"  stroke="#000000" stroke-width="2" stroke-opacity="1" fill-opacity="0"></path>
<path d="M16.33 36.9L13.2 40.02"  stroke="#000000" stroke-width="2" stroke-opacity="1" fill-opacity="0"></path>
<path d="M31.95 36.9L28.83 40.02"  stroke="#000000" stroke-width="2" stroke-opacity="1" fill-opacity="0"></path>
<path d="M24.14 36.9L21.01 40.02"  stroke="#000000" stroke-width="2" stroke-opacity="1" fill-opacity="0"></path>
<path d="M27.83 41.02L24.7 44.15"  stroke="#000000" stroke-width="2" stroke-opacity="1" fill-opacity="0"></path>
<path d="M12.2 41.02L9.08 44.15"  stroke="#000000" stroke-width="2" stroke-opacity="1" fill-opacity="0"></path>
</g>
</svg>
