<svg xmlns="http://www.w3.org/2000/svg" viewBox="0 0 50 50" version="1.1">
<g>
<path d="M35.29 21.98C35.28 21.09 35.5 20.29 35.97 19.58C36.67 18.52 37.68 17.61 39.24 17.47C40.8 17.34 41.77 17.66 42.5 18.15C43.23 18.65 43.59 19.01 44.01 19.75C44.44 20.48 44.62 21.17 44.62 22.12C44.61 23.06 44.47 23.57 44.1 24.24C44.03 24.38 43.99 24.45 43.99 24.45C43.21 25.76 41.81 26.56 40.28 26.56C35.54 26.56 23.67 26.56 4.69 26.56"  stroke="#000000" stroke-width="2" stroke-opacity="1" fill-opacity="0"></path>
<path d="M21.44 15.73C21.42 14.84 21.64 14.04 22.11 13.33C22.81 12.27 23.82 11.36 25.38 11.22C26.94 11.09 27.91 11.41 28.64 11.9C29.38 12.4 29.73 12.76 30.15 13.5C30.58 14.23 30.77 14.92 30.76 15.87C30.75 16.81 30.61 17.32 30.25 17.99C30.17 18.13 30.13 18.2 30.13 18.2C29.36 19.51 27.95 20.31 26.43 20.31C23.94 20.31 17.74 20.31 7.81 20.31"  stroke="#000000" stroke-width="2" stroke-opacity="1" fill-opacity="0"></path>
<path d="M32.1 36.14C32.09 36.76 32.25 37.32 32.58 37.83C33.07 38.58 33.78 39.21 34.88 39.31C35.98 39.41 36.66 39.18 37.18 38.83C37.69 38.48 37.94 38.23 38.24 37.71C38.54 37.19 38.67 36.71 38.67 36.04C38.66 35.37 38.56 35.02 38.3 34.54C38.25 34.45 38.22 34.4 38.22 34.4C37.68 33.48 36.69 32.91 35.61 32.9C32.79 32.89 25.74 32.86 14.46 32.81"  stroke="#000000" stroke-width="2" stroke-opacity="1" fill-opacity="0"></path>
</g>
</svg>
