<svg xmlns="http://www.w3.org/2000/svg" viewBox="0 0 50 50" version="1.1">
<g>
<path d="M39.06 25C39.06 32.76 32.76 39.06 25 39.06C17.24 39.06 10.94 32.76 10.94 25C10.94 17.24 17.24 10.94 25 10.94C32.76 10.94 39.06 17.24 39.06 25Z"  stroke="#000000" stroke-width="2" stroke-opacity="1" fill-opacity="0"></path>
<path d="M31.25 40.63L25 49.61L18.93 40.63C19.79 40.88 20.32 41.05 20.54 41.11C23.45 41.99 26.55 42 29.47 41.15C29.71 41.08 30.3 40.9 31.25 40.63Z"  fill="#000000" fill-opacity="1"></path>
<path d="M25 47.54L25 42.97L25 47.54Z"  fill-opacity="0"></path>
<path d="M25 10.94L25 4.69"  stroke="#000000" stroke-width="2" stroke-opacity="1" fill-opacity="0"></path>
</g>
</svg>
