<svg xmlns="http://www.w3.org/2000/svg" viewBox="0 0 50 50" version="1.1">
<g>
<path d="M26.56 17.19L32.81 17.19C32.81 21.48 32.81 24.16 32.81 25.23C32.81 27.11 32.2 28.94 31.08 30.44C30.49 31.22 29.44 32.62 28.59 33.75C28.3 34.14 27.84 34.38 27.34 34.38C26.25 34.38 23.97 34.38 22.94 34.38C22.27 34.38 21.64 34.06 21.24 33.53C20.43 32.45 19.5 31.21 18.91 30.42C17.79 28.93 17.19 27.12 17.19 25.25C17.19 24.18 17.19 21.49 17.19 17.19L23.44 17.19"  stroke="#000000" stroke-width="2" stroke-opacity="1" fill-opacity="0"></path>
<path d="M28.13 4.69L28.13 12.5L26.56 12.5C26.56 17.2 26.56 20.14 26.56 21.32C26.56 21.67 26.42 22.02 26.17 22.27C25.93 22.5 26.16 22.28 26.06 22.38C25.47 22.96 24.53 22.96 23.94 22.38C23.84 22.28 24.07 22.5 23.83 22.27C23.58 22.02 23.44 21.67 23.44 21.32C23.44 20.14 23.44 17.2 23.44 12.5L21.88 12.5L21.88 4.69L28.13 4.69Z"  stroke="#000000" stroke-width="2" stroke-opacity="1" fill-opacity="0"></path>
<path d="M18.75 17.19L18.75 7.81L21.88 7.81"  stroke="#000000" stroke-width="2" stroke-opacity="1" fill-opacity="0"></path>
<path d="M28.13 7.81L31.25 7.81L31.25 17.19"  stroke="#000000" stroke-width="2" stroke-opacity="1" fill-opacity="0"></path>
<path d="M27.34 31.25L22.66 31.25"  stroke="#000000" stroke-width="1" stroke-opacity="1" fill-opacity="0"></path>
<path d="M27.34 28.91L22.66 28.91"  stroke="#000000" stroke-width="1" stroke-opacity="1" fill-opacity="0"></path>
<path d="M23.44 46.88L23.44 34.38"  stroke="#000000" stroke-width="2" stroke-opacity="1" fill-opacity="0"></path>
<path d="M26.56 46.88L26.56 34.38"  stroke="#000000" stroke-width="2" stroke-opacity="1" fill-opacity="0"></path>
</g>
</svg>
