<svg xmlns="http://www.w3.org/2000/svg" viewBox="0 0 50 50" version="1.1">
<g>
<path d="M43.75 19.32C43.18 18.76 42.03 17.87 40.32 16.65C31.13 10.13 18.83 10.08 9.58 16.51C7.95 17.64 6.84 18.5 6.25 19.09"  stroke="#000000" stroke-width="2" stroke-opacity="1" fill-opacity="0"></path>
<path d="M37.5 25.57C37.11 25.19 36.34 24.59 35.18 23.78C29.06 19.46 20.91 19.43 14.75 23.68C13.65 24.44 12.9 25.02 12.5 25.42"  stroke="#000000" stroke-width="2" stroke-opacity="1" fill-opacity="0"></path>
<path d="M31.25 31.82C31.01 31.61 30.54 31.27 29.84 30.81C26.89 28.9 23.1 28.88 20.13 30.77C19.46 31.2 19 31.52 18.75 31.75"  stroke="#000000" stroke-width="2" stroke-opacity="1" fill-opacity="0"></path>
<path d="M26.56 38.07C26.56 38.93 25.86 39.63 25 39.63C24.14 39.63 23.44 38.93 23.44 38.07C23.44 37.21 24.14 36.51 25 36.51C25.86 36.51 26.56 37.21 26.56 38.07Z"  fill="#000000" fill-opacity="1"></path>
</g>
</svg>
