<svg xmlns="http://www.w3.org/2000/svg" viewBox="0 0 50 50" version="1.1">
<g>
<path d="M4.69 4.69L45.31 4.69L45.31 45.31L4.69 45.31L4.69 4.69Z"  stroke="#000000" stroke-width="2" stroke-opacity="1" fill-opacity="0"></path>
<path d="M9.38 8.59C9.38 9.02 9.02 9.38 8.59 9.38C8.16 9.38 7.81 9.02 7.81 8.59C7.81 8.16 8.16 7.81 8.59 7.81C9.02 7.81 9.38 8.16 9.38 8.59Z"  fill="#000000" fill-opacity="1"></path>
<path d="M42.19 8.59C42.19 9.02 41.84 9.38 41.41 9.38C40.98 9.38 40.63 9.02 40.63 8.59C40.63 8.16 40.98 7.81 41.41 7.81C41.84 7.81 42.19 8.16 42.19 8.59Z"  fill="#000000" fill-opacity="1"></path>
<path d="M9.38 41.41C9.38 41.84 9.02 42.19 8.59 42.19C8.16 42.19 7.81 41.84 7.81 41.41C7.81 40.98 8.16 40.63 8.59 40.63C9.02 40.63 9.38 40.98 9.38 41.41Z"  fill="#000000" fill-opacity="1"></path>
<path d="M42.19 41.41C42.19 41.84 41.84 42.19 41.41 42.19C40.98 42.19 40.63 41.84 40.63 41.41C40.63 40.98 40.98 40.63 41.41 40.63C41.84 40.63 42.19 40.98 42.19 41.41Z"  fill="#000000" fill-opacity="1"></path>
<path d="M11.62 11.72L13.18 11.72L13.18 13.28L11.62 13.28L11.62 11.72Z"  fill="#000000" fill-opacity="1"></path>
<path d="M14.75 11.72L16.31 11.72L16.31 13.28L14.75 13.28L14.75 11.72Z"  fill="#000000" fill-opacity="1"></path>
<path d="M17.87 11.72L19.43 11.72L19.43 13.28L17.87 13.28L17.87 11.72Z"  fill="#000000" fill-opacity="1"></path>
<path d="M21 11.72L22.56 11.72L22.56 13.28L21 13.28L21 11.72Z"  fill="#000000" fill-opacity="1"></path>
<path d="M24.12 11.72L25.68 11.72L25.68 13.28L24.12 13.28L24.12 11.72Z"  fill="#000000" fill-opacity="1"></path>
<path d="M27.25 11.72L28.81 11.72L28.81 13.28L27.25 13.28L27.25 11.72Z"  fill="#000000" fill-opacity="1"></path>
<path d="M30.37 11.72L31.93 11.72L31.93 13.28L30.37 13.28L30.37 11.72Z"  fill="#000000" fill-opacity="1"></path>
<path d="M33.5 11.72L35.06 11.72L35.06 13.28L33.5 13.28L33.5 11.72Z"  fill="#000000" fill-opacity="1"></path>
<path d="M36.82 11.72L38.38 11.72L38.38 13.28L36.82 13.28L36.82 11.72Z"  fill="#000000" fill-opacity="1"></path>
<path d="M11.62 14.84L13.18 14.84L13.18 16.41L11.62 16.41L11.62 14.84Z"  fill="#000000" fill-opacity="1"></path>
<path d="M14.75 14.84L16.31 14.84L16.31 16.41L14.75 16.41L14.75 14.84Z"  fill="#000000" fill-opacity="1"></path>
<path d="M17.87 14.84L19.43 14.84L19.43 16.41L17.87 16.41L17.87 14.84Z"  fill="#000000" fill-opacity="1"></path>
<path d="M21 14.84L22.56 14.84L22.56 16.41L21 16.41L21 14.84Z"  fill="#000000" fill-opacity="1"></path>
<path d="M24.12 14.84L25.68 14.84L25.68 16.41L24.12 16.41L24.12 14.84Z"  fill="#000000" fill-opacity="1"></path>
<path d="M27.25 14.84L28.81 14.84L28.81 16.41L27.25 16.41L27.25 14.84Z"  fill="#000000" fill-opacity="1"></path>
<path d="M30.37 14.84L31.93 14.84L31.93 16.41L30.37 16.41L30.37 14.84Z"  fill="#000000" fill-opacity="1"></path>
<path d="M33.5 14.84L35.06 14.84L35.06 16.41L33.5 16.41L33.5 14.84Z"  fill="#000000" fill-opacity="1"></path>
<path d="M36.82 14.84L38.38 14.84L38.38 16.41L36.82 16.41L36.82 14.84Z"  fill="#000000" fill-opacity="1"></path>
<path d="M11.62 17.97L13.18 17.97L13.18 19.53L11.62 19.53L11.62 17.97Z"  fill="#000000" fill-opacity="1"></path>
<path d="M14.75 17.97L16.31 17.97L16.31 19.53L14.75 19.53L14.75 17.97Z"  fill="#000000" fill-opacity="1"></path>
<path d="M17.87 17.97L19.43 17.97L19.43 19.53L17.87 19.53L17.87 17.97Z"  fill="#000000" fill-opacity="1"></path>
<path d="M21 17.97L22.56 17.97L22.56 19.53L21 19.53L21 17.97Z"  fill="#000000" fill-opacity="1"></path>
<path d="M24.12 17.97L25.68 17.97L25.68 19.53L24.12 19.53L24.12 17.97Z"  fill="#000000" fill-opacity="1"></path>
<path d="M27.25 17.97L28.81 17.97L28.81 19.53L27.25 19.53L27.25 17.97Z"  fill="#000000" fill-opacity="1"></path>
<path d="M30.37 17.97L31.93 17.97L31.93 19.53L30.37 19.53L30.37 17.97Z"  fill="#000000" fill-opacity="1"></path>
<path d="M33.5 17.97L35.06 17.97L35.06 19.53L33.5 19.53L33.5 17.97Z"  fill="#000000" fill-opacity="1"></path>
<path d="M36.82 17.97L38.38 17.97L38.38 19.53L36.82 19.53L36.82 17.97Z"  fill="#000000" fill-opacity="1"></path>
<path d="M11.62 21.09L13.18 21.09L13.18 22.66L11.62 22.66L11.62 21.09Z"  fill="#000000" fill-opacity="1"></path>
<path d="M14.75 21.09L16.31 21.09L16.31 22.66L14.75 22.66L14.75 21.09Z"  fill="#000000" fill-opacity="1"></path>
<path d="M17.87 21.09L19.43 21.09L19.43 22.66L17.87 22.66L17.87 21.09Z"  fill="#000000" fill-opacity="1"></path>
<path d="M21 21.09L22.56 21.09L22.56 22.66L21 22.66L21 21.09Z"  fill="#000000" fill-opacity="1"></path>
<path d="M24.12 21.09L25.68 21.09L25.68 22.66L24.12 22.66L24.12 21.09Z"  fill="#000000" fill-opacity="1"></path>
<path d="M27.25 21.09L28.81 21.09L28.81 22.66L27.25 22.66L27.25 21.09Z"  fill="#000000" fill-opacity="1"></path>
<path d="M30.37 21.09L31.93 21.09L31.93 22.66L30.37 22.66L30.37 21.09Z"  fill="#000000" fill-opacity="1"></path>
<path d="M33.5 21.09L35.06 21.09L35.06 22.66L33.5 22.66L33.5 21.09Z"  fill="#000000" fill-opacity="1"></path>
<path d="M36.82 21.09L38.38 21.09L38.38 22.66L36.82 22.66L36.82 21.09Z"  fill="#000000" fill-opacity="1"></path>
<path d="M11.62 24.22L13.18 24.22L13.18 25.78L11.62 25.78L11.62 24.22Z"  fill="#000000" fill-opacity="1"></path>
<path d="M14.75 24.22L16.31 24.22L16.31 25.78L14.75 25.78L14.75 24.22Z"  fill="#000000" fill-opacity="1"></path>
<path d="M17.87 24.22L19.43 24.22L19.43 25.78L17.87 25.78L17.87 24.22Z"  fill="#000000" fill-opacity="1"></path>
<path d="M21 24.22L22.56 24.22L22.56 25.78L21 25.78L21 24.22Z"  fill="#000000" fill-opacity="1"></path>
<path d="M24.12 24.22L25.68 24.22L25.68 25.78L24.12 25.78L24.12 24.22Z"  fill="#000000" fill-opacity="1"></path>
<path d="M27.25 24.22L28.81 24.22L28.81 25.78L27.25 25.78L27.25 24.22Z"  fill="#000000" fill-opacity="1"></path>
<path d="M30.37 24.22L31.93 24.22L31.93 25.78L30.37 25.78L30.37 24.22Z"  fill="#000000" fill-opacity="1"></path>
<path d="M33.5 24.22L35.06 24.22L35.06 25.78L33.5 25.78L33.5 24.22Z"  fill="#000000" fill-opacity="1"></path>
<path d="M36.82 24.22L38.38 24.22L38.38 25.78L36.82 25.78L36.82 24.22Z"  fill="#000000" fill-opacity="1"></path>
<path d="M11.62 27.34L13.18 27.34L13.18 28.91L11.62 28.91L11.62 27.34Z"  fill="#000000" fill-opacity="1"></path>
<path d="M14.75 27.34L16.31 27.34L16.31 28.91L14.75 28.91L14.75 27.34Z"  fill="#000000" fill-opacity="1"></path>
<path d="M17.87 27.34L19.43 27.34L19.43 28.91L17.87 28.91L17.87 27.34Z"  fill="#000000" fill-opacity="1"></path>
<path d="M21 27.34L22.56 27.34L22.56 28.91L21 28.91L21 27.34Z"  fill="#000000" fill-opacity="1"></path>
<path d="M24.12 27.34L25.68 27.34L25.68 28.91L24.12 28.91L24.12 27.34Z"  fill="#000000" fill-opacity="1"></path>
<path d="M27.25 27.34L28.81 27.34L28.81 28.91L27.25 28.91L27.25 27.34Z"  fill="#000000" fill-opacity="1"></path>
<path d="M30.37 27.34L31.93 27.34L31.93 28.91L30.37 28.91L30.37 27.34Z"  fill="#000000" fill-opacity="1"></path>
<path d="M33.5 27.34L35.06 27.34L35.06 28.91L33.5 28.91L33.5 27.34Z"  fill="#000000" fill-opacity="1"></path>
<path d="M36.82 27.34L38.38 27.34L38.38 28.91L36.82 28.91L36.82 27.34Z"  fill="#000000" fill-opacity="1"></path>
<path d="M11.62 30.47L13.18 30.47L13.18 32.03L11.62 32.03L11.62 30.47Z"  fill="#000000" fill-opacity="1"></path>
<path d="M14.75 30.47L16.31 30.47L16.31 32.03L14.75 32.03L14.75 30.47Z"  fill="#000000" fill-opacity="1"></path>
<path d="M17.87 30.47L19.43 30.47L19.43 32.03L17.87 32.03L17.87 30.47Z"  fill="#000000" fill-opacity="1"></path>
<path d="M21 30.47L22.56 30.47L22.56 32.03L21 32.03L21 30.47Z"  fill="#000000" fill-opacity="1"></path>
<path d="M24.12 30.47L25.68 30.47L25.68 32.03L24.12 32.03L24.12 30.47Z"  fill="#000000" fill-opacity="1"></path>
<path d="M27.25 30.47L28.81 30.47L28.81 32.03L27.25 32.03L27.25 30.47Z"  fill="#000000" fill-opacity="1"></path>
<path d="M30.37 30.47L31.93 30.47L31.93 32.03L30.37 32.03L30.37 30.47Z"  fill="#000000" fill-opacity="1"></path>
<path d="M33.5 30.47L35.06 30.47L35.06 32.03L33.5 32.03L33.5 30.47Z"  fill="#000000" fill-opacity="1"></path>
<path d="M36.82 30.47L38.38 30.47L38.38 32.03L36.82 32.03L36.82 30.47Z"  fill="#000000" fill-opacity="1"></path>
<path d="M11.62 33.59L13.18 33.59L13.18 35.16L11.62 35.16L11.62 33.59Z"  fill="#000000" fill-opacity="1"></path>
<path d="M14.75 33.59L16.31 33.59L16.31 35.16L14.75 35.16L14.75 33.59Z"  fill="#000000" fill-opacity="1"></path>
<path d="M17.87 33.59L19.43 33.59L19.43 35.16L17.87 35.16L17.87 33.59Z"  fill="#000000" fill-opacity="1"></path>
<path d="M21 33.59L22.56 33.59L22.56 35.16L21 35.16L21 33.59Z"  fill="#000000" fill-opacity="1"></path>
<path d="M24.12 33.59L25.68 33.59L25.68 35.16L24.12 35.16L24.12 33.59Z"  fill="#000000" fill-opacity="1"></path>
<path d="M27.25 33.59L28.81 33.59L28.81 35.16L27.25 35.16L27.25 33.59Z"  fill="#000000" fill-opacity="1"></path>
<path d="M30.37 33.59L31.93 33.59L31.93 35.16L30.37 35.16L30.37 33.59Z"  fill="#000000" fill-opacity="1"></path>
<path d="M33.5 33.59L35.06 33.59L35.06 35.16L33.5 35.16L33.5 33.59Z"  fill="#000000" fill-opacity="1"></path>
<path d="M36.82 33.59L38.38 33.59L38.38 35.16L36.82 35.16L36.82 33.59Z"  fill="#000000" fill-opacity="1"></path>
<path d="M11.62 36.72L13.18 36.72L13.18 38.28L11.62 38.28L11.62 36.72Z"  fill="#000000" fill-opacity="1"></path>
<path d="M14.75 36.72L16.31 36.72L16.31 38.28L14.75 38.28L14.75 36.72Z"  fill="#000000" fill-opacity="1"></path>
<path d="M17.87 36.72L19.43 36.72L19.43 38.28L17.87 38.28L17.87 36.72Z"  fill="#000000" fill-opacity="1"></path>
<path d="M21 36.72L22.56 36.72L22.56 38.28L21 38.28L21 36.72Z"  fill="#000000" fill-opacity="1"></path>
<path d="M24.12 36.72L25.68 36.72L25.68 38.28L24.12 38.28L24.12 36.72Z"  fill="#000000" fill-opacity="1"></path>
<path d="M27.25 36.72L28.81 36.72L28.81 38.28L27.25 38.28L27.25 36.72Z"  fill="#000000" fill-opacity="1"></path>
<path d="M30.37 36.72L31.93 36.72L31.93 38.28L30.37 38.28L30.37 36.72Z"  fill="#000000" fill-opacity="1"></path>
<path d="M33.5 36.72L35.06 36.72L35.06 38.28L33.5 38.28L33.5 36.72Z"  fill="#000000" fill-opacity="1"></path>
<path d="M36.82 36.72L38.38 36.72L38.38 38.28L36.82 38.28L36.82 36.72Z"  fill="#000000" fill-opacity="1"></path>
</g>
</svg>
